<svg width="234" height="54" viewBox="0 0 234 54" fill="none" xmlns="http://www.w3.org/2000/svg">
<path d="M3.9 42.3261L0 45V54H234V0L230.1 1.80525C226.2 3.61051 218.4 7.22102 210.6 12.6369C202.8 18.0527 195 25.2739 187.2 24.4833C179.4 23.6928 171.6 14.8905 163.8 15.524C156 16.1575 148.2 26.2267 140.4 28.2197C132.6 30.2126 124.8 24.1293 117 18.0065L116.732 17.7962C109.021 11.7431 101.311 5.6899 93.6 2.96617C85.8 0.21091 78 0.862632 70.2 2.97637C62.4 5.0901 54.6 8.66586 46.8 13.2396C39 17.8133 31.2 23.3851 23.4 28.8448C15.6 34.3045 7.80009 39.6522 3.90007 42.3261L3.9 42.3261Z" fill="url(#paint0_linear_17015_15155)" fill-opacity="0.8"/>
<defs>
<linearGradient id="paint0_linear_17015_15155" x1="102" y1="8.07308e-07" x2="102" y2="54" gradientUnits="userSpaceOnUse">
<stop stop-color="#305EC6"/>
<stop offset="1" stop-color="#305EC6" stop-opacity="0"/>
</linearGradient>
</defs>
</svg>
