<svg width="257" height="72" viewBox="0 0 257 72" fill="none" xmlns="http://www.w3.org/2000/svg">
<path d="M20.1667 50.4851L16 51V65H241V11L236.833 14.9011C232.667 18.8021 224.333 26.6042 216 31.1241C207.667 35.6439 199.333 36.8815 191 37.719C182.667 38.5565 174.333 38.9938 166 38.0647C157.667 37.1356 149.333 34.8401 141 34.3663C132.667 33.8926 124.333 35.2405 116 35.5855C107.667 35.9304 99.3333 35.2723 91 35.0946C82.6667 34.917 74.3333 35.2197 66 37.4358C57.6667 39.6519 49.3333 43.7813 41 46.3609C32.6667 48.9405 24.3333 49.9702 20.1667 50.4851Z" fill="url(#paint0_linear_17035_30620)" fill-opacity="0.8"/>
<g filter="url(#filter0_d_17035_30620)">
<path d="M16 51L20.1667 50.4851C24.3333 49.9702 32.6667 48.9405 41 46.3609C49.3333 43.7813 57.6667 39.6519 66 37.4358C74.3333 35.2197 82.6667 34.917 91 35.0946C99.3333 35.2723 107.667 35.9304 116 35.5855C124.333 35.2405 132.667 33.8926 141 34.3663C149.333 34.8401 157.667 37.1356 166 38.0647C174.333 38.9938 182.667 38.5565 191 37.719C199.333 36.8815 207.667 35.6439 216 31.1241C224.333 26.6042 232.667 18.8021 236.833 14.9011L241 11" stroke="#BC8CF8" stroke-width="2" stroke-linecap="round"/>
</g>
<defs>
<filter id="filter0_d_17035_30620" x="0" y="0" width="257" height="72.0001" filterUnits="userSpaceOnUse" color-interpolation-filters="sRGB">
<feFlood flood-opacity="0" result="BackgroundImageFix"/>
<feColorMatrix in="SourceAlpha" type="matrix" values="0 0 0 0 0 0 0 0 0 0 0 0 0 0 0 0 0 0 127 0" result="hardAlpha"/>
<feOffset dy="5"/>
<feGaussianBlur stdDeviation="7.5"/>
<feColorMatrix type="matrix" values="0 0 0 0 0.647059 0 0 0 0 0.584314 0 0 0 0 0.972549 0 0 0 0.2 0"/>
<feBlend mode="normal" in2="BackgroundImageFix" result="effect1_dropShadow_17035_30620"/>
<feBlend mode="normal" in="SourceGraphic" in2="effect1_dropShadow_17035_30620" result="shape"/>
</filter>
<linearGradient id="paint0_linear_17035_30620" x1="114.055" y1="11" x2="114.055" y2="65" gradientUnits="userSpaceOnUse">
<stop stop-color="#BC8CF8"/>
<stop offset="1" stop-color="#BC8CF8" stop-opacity="0"/>
</linearGradient>
</defs>
</svg>
