<svg width="218" height="32" viewBox="0 0 218 32" fill="none" xmlns="http://www.w3.org/2000/svg">
<g clip-path="url(#clip0_17015_15178)">
<path d="M209.721 25.1317C207.956 25.1317 206.386 24.7286 205.013 23.9225C203.661 23.0946 202.604 21.9834 201.841 20.589C201.078 19.1729 200.696 17.5933 200.696 15.8503C200.696 14.0638 201.078 12.4842 201.841 11.1116C202.626 9.73899 203.672 8.66052 204.98 7.87618C206.288 7.07006 207.77 6.66699 209.427 6.66699C210.757 6.66699 211.945 6.89576 212.991 7.35329C214.038 7.81082 214.921 8.44265 215.64 9.24878C216.36 10.0331 216.905 10.9373 217.275 11.9613C217.668 12.9853 217.864 14.0747 217.864 15.2294C217.864 15.5126 217.853 15.8067 217.831 16.1118C217.809 16.4168 217.766 16.7 217.7 16.9615H203.607V14.0202H215.607L213.842 15.3601C214.06 14.2925 213.983 13.3448 213.613 12.5169C213.264 11.6672 212.719 11.0027 211.978 10.5233C211.258 10.0222 210.408 9.77167 209.427 9.77167C208.446 9.77167 207.574 10.0222 206.811 10.5233C206.048 11.0027 205.46 11.6998 205.045 12.6149C204.631 13.5082 204.468 14.5975 204.555 15.883C204.446 17.0813 204.609 18.1271 205.045 19.0204C205.503 19.9136 206.135 20.6108 206.942 21.1119C207.77 21.613 208.708 21.8636 209.754 21.8636C210.822 21.8636 211.727 21.6239 212.468 21.1446C213.231 20.6653 213.831 20.0444 214.267 19.2818L217.275 20.7524C216.926 21.5804 216.381 22.332 215.64 23.0074C214.921 23.661 214.049 24.1839 213.024 24.5761C212.021 24.9465 210.92 25.1317 209.721 25.1317Z" fill="#F2EEF9"/>
<path d="M188.523 31.9293C187.236 31.9293 186.048 31.7223 184.958 31.3084C183.868 30.8944 182.931 30.317 182.146 29.5763C181.361 28.8573 180.773 28.0076 180.38 27.0272L183.781 25.6219C184.086 26.4498 184.642 27.1361 185.449 27.6808C186.277 28.2255 187.291 28.4978 188.49 28.4978C189.427 28.4978 190.267 28.3126 191.008 27.9422C191.749 27.5936 192.338 27.0707 192.774 26.3735C193.21 25.6981 193.428 24.8811 193.428 23.9225V19.9354L194.082 20.6871C193.471 21.82 192.621 22.6806 191.531 23.2689C190.463 23.8571 189.253 24.1512 187.901 24.1512C186.266 24.1512 184.795 23.77 183.487 23.0074C182.179 22.2449 181.143 21.1991 180.38 19.8701C179.639 18.541 179.269 17.0486 179.269 15.3928C179.269 13.7152 179.639 12.2227 180.38 10.9155C181.143 9.60827 182.168 8.57338 183.454 7.81082C184.74 7.04827 186.212 6.66699 187.869 6.66699C189.22 6.66699 190.419 6.96112 191.466 7.54938C192.534 8.11584 193.406 8.94376 194.082 10.0331L193.591 10.9482V7.05916H197.09V23.9225C197.09 25.4476 196.719 26.8093 195.978 28.0076C195.259 29.2277 194.256 30.1863 192.97 30.8835C191.684 31.5807 190.201 31.9293 188.523 31.9293ZM188.326 20.7198C189.307 20.7198 190.179 20.491 190.942 20.0335C191.705 19.5541 192.305 18.9223 192.741 18.138C193.199 17.3318 193.428 16.4277 193.428 15.4255C193.428 14.4232 193.199 13.5191 192.741 12.713C192.283 11.9068 191.673 11.275 190.91 10.8175C190.147 10.3381 189.286 10.0985 188.326 10.0985C187.324 10.0985 186.43 10.3381 185.645 10.8175C184.86 11.275 184.239 11.9068 183.781 12.713C183.345 13.4973 183.127 14.4015 183.127 15.4255C183.127 16.4059 183.345 17.2992 183.781 18.1053C184.239 18.9114 184.86 19.5541 185.645 20.0335C186.43 20.491 187.324 20.7198 188.326 20.7198Z" fill="#F2EEF9"/>
<path d="M166.381 25.1317C165.182 25.1317 164.125 24.9247 163.209 24.5107C162.315 24.075 161.618 23.4867 161.116 22.746C160.615 21.9834 160.364 21.0901 160.364 20.0661C160.364 19.1075 160.571 18.2469 160.986 17.4844C161.422 16.7218 162.086 16.0791 162.98 15.5562C163.874 15.0333 164.997 14.6629 166.348 14.445L172.496 13.4319V16.3405L167.068 17.2883C166.087 17.4626 165.367 17.7785 164.91 18.236C164.452 18.6718 164.223 19.2382 164.223 19.9354C164.223 20.6108 164.474 21.1664 164.975 21.6021C165.498 22.0161 166.163 22.2231 166.97 22.2231C167.972 22.2231 168.844 22.0052 169.586 21.5695C170.349 21.1337 170.937 20.5564 171.351 19.8374C171.766 19.0966 171.973 18.2796 171.973 17.3863V12.8437C171.973 11.9722 171.646 11.2641 170.992 10.7194C170.36 10.1529 169.509 9.86972 168.441 9.86972C167.46 9.86972 166.599 10.1312 165.858 10.6541C165.138 11.1552 164.604 11.8088 164.256 12.6149L161.182 11.0789C161.509 10.2074 162.043 9.44486 162.784 8.79125C163.525 8.11584 164.386 7.59295 165.367 7.22257C166.37 6.85218 167.427 6.66699 168.539 6.66699C169.934 6.66699 171.166 6.92844 172.234 7.45133C173.324 7.97423 174.164 8.7041 174.752 9.64095C175.363 10.556 175.668 11.6236 175.668 12.8437V24.7395H172.136V21.5368L172.888 21.6348C172.474 22.3538 171.94 22.9747 171.286 23.4976C170.654 24.0205 169.924 24.4236 169.095 24.7068C168.289 24.9901 167.384 25.1317 166.381 25.1317Z" fill="#F2EEF9"/>
<path d="M149.125 25.1316C147.599 25.1316 146.182 24.8483 144.874 24.2819C143.566 23.6936 142.454 22.8984 141.538 21.8962C140.623 20.894 139.947 19.7392 139.511 18.432L142.781 17.0594C143.369 18.5627 144.23 19.7174 145.364 20.5236C146.498 21.3297 147.806 21.7328 149.288 21.7328C150.16 21.7328 150.923 21.602 151.577 21.3406C152.231 21.0574 152.732 20.6652 153.081 20.1641C153.452 19.663 153.637 19.0856 153.637 18.432C153.637 17.5387 153.386 16.8306 152.885 16.3077C152.384 15.7849 151.642 15.3709 150.661 15.0659L146.083 13.6279C144.252 13.0614 142.857 12.2009 141.898 11.0461C140.939 9.86962 140.459 8.49702 140.459 6.92834C140.459 5.55574 140.797 4.35745 141.473 3.33345C142.149 2.28766 143.075 1.47064 144.252 0.882383C145.451 0.294128 146.814 0 148.34 0C149.8 0 151.13 0.261447 152.329 0.78434C153.528 1.28545 154.553 1.98264 155.403 2.87591C156.275 3.76919 156.907 4.80409 157.3 5.9806L154.095 7.38587C153.615 6.10043 152.863 5.10911 151.839 4.41191C150.836 3.71472 149.67 3.36613 148.34 3.36613C147.533 3.36613 146.825 3.50774 146.214 3.79098C145.604 4.05243 145.124 4.4446 144.775 4.96749C144.448 5.4686 144.285 6.05685 144.285 6.73225C144.285 7.5166 144.536 8.21379 145.037 8.82383C145.538 9.43387 146.301 9.8914 147.326 10.1964L151.577 11.5363C153.517 12.1246 154.978 12.9743 155.959 14.0854C156.94 15.1748 157.43 16.5365 157.43 18.1706C157.43 19.5214 157.071 20.7197 156.351 21.7654C155.654 22.8112 154.684 23.6391 153.441 24.2492C152.198 24.8374 150.76 25.1316 149.125 25.1316Z" fill="#F2EEF9"/>
<path d="M122.667 24.7394V7.05909H126.199V10.6213L125.872 10.0984C126.264 8.94368 126.896 8.11577 127.768 7.61466C128.64 7.09177 129.687 6.83032 130.907 6.83032H131.987V10.1964H130.45C129.229 10.1964 128.237 10.5777 127.474 11.3403C126.733 12.081 126.362 13.1486 126.362 14.543V24.7394H122.667Z" fill="#F2EEF9"/>
<path d="M110.919 25.1317C109.153 25.1317 107.583 24.7286 106.21 23.9225C104.858 23.0946 103.801 21.9834 103.038 20.589C102.275 19.1729 101.894 17.5933 101.894 15.8503C101.894 14.0638 102.275 12.4842 103.038 11.1116C103.823 9.73899 104.869 8.66052 106.177 7.87618C107.485 7.07006 108.968 6.66699 110.624 6.66699C111.954 6.66699 113.142 6.89576 114.189 7.35329C115.235 7.81082 116.118 8.44265 116.837 9.24878C117.557 10.0331 118.102 10.9373 118.472 11.9613C118.865 12.9853 119.061 14.0747 119.061 15.2294C119.061 15.5126 119.05 15.8067 119.028 16.1118C119.007 16.4168 118.963 16.7 118.898 16.9615H104.804V14.0202H116.805L115.039 15.3601C115.257 14.2925 115.181 13.3448 114.81 12.5169C114.461 11.6672 113.916 11.0027 113.175 10.5233C112.456 10.0222 111.605 9.77167 110.624 9.77167C109.643 9.77167 108.771 10.0222 108.008 10.5233C107.245 11.0027 106.657 11.6998 106.243 12.6149C105.828 13.5082 105.665 14.5975 105.752 15.883C105.643 17.0813 105.807 18.1271 106.243 19.0204C106.7 19.9136 107.333 20.6108 108.139 21.1119C108.968 21.613 109.905 21.8636 110.951 21.8636C112.02 21.8636 112.924 21.6239 113.666 21.1446C114.429 20.6653 115.028 20.0444 115.464 19.2818L118.472 20.7524C118.124 21.5804 117.579 22.332 116.837 23.0074C116.118 23.661 115.246 24.1839 114.221 24.5761C113.219 24.9465 112.118 25.1317 110.919 25.1317Z" fill="#F2EEF9"/>
<path d="M88.8817 25.1316C87.1813 25.1316 85.6553 24.7285 84.3037 23.9224C82.9739 23.0945 81.9166 21.9833 81.1318 20.5889C80.3688 19.1946 79.9873 17.6259 79.9873 15.8829C79.9873 14.1399 80.3797 12.5712 81.1645 11.1769C81.9493 9.78247 83.0066 8.68221 84.3364 7.87608C85.6662 7.06996 87.1704 6.66689 88.849 6.66689C90.266 6.66689 91.5195 6.95013 92.6095 7.5166C93.6995 8.08306 94.5606 8.8674 95.1928 9.86962L94.6369 10.7193V0H98.2993V24.7394H94.8004V21.1445L95.2255 21.8308C94.6151 22.8984 93.7431 23.7154 92.6095 24.2819C91.4759 24.8483 90.2333 25.1316 88.8817 25.1316ZM89.2414 21.7001C90.266 21.7001 91.1816 21.4495 91.9882 20.9484C92.8166 20.4473 93.4597 19.761 93.9175 18.8895C94.3971 17.9963 94.6369 16.994 94.6369 15.8829C94.6369 14.7717 94.3971 13.7804 93.9175 12.9089C93.4597 12.0374 92.8166 11.3511 91.9882 10.85C91.1816 10.3489 90.266 10.0984 89.2414 10.0984C88.2168 10.0984 87.2903 10.3489 86.4619 10.85C85.6335 11.3511 84.9904 12.0374 84.5326 12.9089C84.0748 13.7804 83.8459 14.7717 83.8459 15.8829C83.8459 16.994 84.0748 17.9963 84.5326 18.8895C84.9904 19.761 85.6226 20.4473 86.4292 20.9484C87.2576 21.4495 88.195 21.7001 89.2414 21.7001Z" fill="#F2EEF9"/>
<path d="M67.0988 25.1317C65.8998 25.1317 64.8425 24.9247 63.9269 24.5107C63.0331 24.075 62.3355 23.4867 61.8341 22.746C61.3327 21.9834 61.082 21.0901 61.082 20.0661C61.082 19.1075 61.2891 18.2469 61.7033 17.4844C62.1393 16.7218 62.8042 16.0791 63.698 15.5562C64.5918 15.0333 65.7145 14.6629 67.0661 14.445L73.2137 13.4319V16.3405L67.7855 17.2883C66.8045 17.4626 66.0851 17.7785 65.6273 18.236C65.1695 18.6718 64.9406 19.2382 64.9406 19.9354C64.9406 20.6108 65.1913 21.1664 65.6927 21.6021C66.2159 22.0161 66.8808 22.2231 67.6874 22.2231C68.6902 22.2231 69.5622 22.0052 70.3034 21.5695C71.0664 21.1337 71.655 20.5564 72.0692 19.8374C72.4834 19.0966 72.6905 18.2796 72.6905 17.3863V12.8437C72.6905 11.9722 72.3635 11.2641 71.7095 10.7194C71.0773 10.1529 70.2271 9.86972 69.1589 9.86972C68.1779 9.86972 67.3168 10.1312 66.5756 10.6541C65.8562 11.1552 65.3221 11.8088 64.9733 12.6149L61.8995 11.0789C62.2265 10.2074 62.7606 9.44486 63.5018 8.79125C64.243 8.11584 65.1041 7.59295 66.0851 7.22257C67.0879 6.85218 68.1452 6.66699 69.257 6.66699C70.6522 6.66699 71.8839 6.92844 72.9521 7.45133C74.0421 7.97423 74.8814 8.7041 75.47 9.64095C76.0804 10.556 76.3856 11.6236 76.3856 12.8437V24.7395H72.854V21.5368L73.6061 21.6348C73.1919 22.3538 72.6578 22.9747 72.0038 23.4976C71.3716 24.0205 70.6413 24.4236 69.8129 24.7068C69.0063 24.9901 68.1016 25.1317 67.0988 25.1317Z" fill="#F2EEF9"/>
<path d="M49.9541 24.7394V7.05909H53.4857V10.6213L53.1587 10.0984C53.5511 8.94368 54.1833 8.11577 55.0553 7.61466C55.9273 7.09177 56.9737 6.83032 58.1945 6.83032H59.2736V10.1964H57.7367C56.5159 10.1964 55.524 10.5777 54.761 11.3403C54.0198 12.081 53.6492 13.1486 53.6492 14.543V24.7394H49.9541Z" fill="#F2EEF9"/>
<path d="M39.1748 24.7393V3.82359H32.7002V0.39209H49.3772V3.82359H43.0007V24.7393H39.1748Z" fill="#F2EEF9"/>
<path fill-rule="evenodd" clip-rule="evenodd" d="M2.72634 5.37525L11.5701 0.0624398C11.8583 -0.110649 12.225 0.096596 12.225 0.432568V12.7884C12.225 12.934 12.1518 13.0693 12.0308 13.149L3.18713 18.9888C2.8995 19.178 2.5166 18.9726 2.5166 18.6283V5.74536C2.5166 5.59384 2.59631 5.45311 2.72634 5.37525ZM23.1019 5.37525L14.2582 0.0624398C13.97 -0.110649 13.6033 0.096596 13.6033 0.432568V12.7884C13.6033 12.934 13.6764 13.0693 13.7974 13.149L22.6411 18.9888C22.9288 19.178 23.3117 18.9726 23.3117 18.6283V5.74536C23.3117 5.59384 23.2319 5.45311 23.1019 5.37525ZM22.6459 22.3205L13.1748 16.2878C13.0334 16.198 12.853 16.1973 12.7116 16.2878L3.18058 22.324C2.89289 22.5061 2.51719 22.2995 2.51719 21.9593V21.2928C2.51719 21.146 2.59209 21.0089 2.71557 20.9298L12.7086 14.5078C12.8512 14.4162 13.0346 14.4162 13.1766 14.5078L23.1127 20.9292C23.2356 21.0089 23.3105 21.1454 23.3105 21.2916V21.9563C23.3105 22.2971 22.9336 22.5037 22.6459 22.3205ZM13.1748 19.7614L22.6459 25.7941C22.9336 25.9773 23.3105 25.7707 23.3105 25.4299V24.7652C23.3105 24.619 23.2356 24.4825 23.1127 24.4028L13.1766 17.9814C13.0346 17.8898 12.8512 17.8898 12.7086 17.9814L2.71557 24.4034C2.59209 24.4825 2.51719 24.6196 2.51719 24.7664V25.4329C2.51719 25.7731 2.89289 25.9797 3.18058 25.7977L12.7116 19.7614C12.853 19.6709 13.0334 19.6716 13.1748 19.7614Z" fill="url(#paint0_linear_17015_15178)"/>
</g>
<defs>
<linearGradient id="paint0_linear_17015_15178" x1="2.5166" y1="12.9327" x2="23.3117" y2="12.9327" gradientUnits="userSpaceOnUse">
<stop stop-color="#BC8CF8"/>
<stop offset="1" stop-color="#9544FC"/>
</linearGradient>
<clipPath id="clip0_17015_15178">
<rect width="218" height="32" fill="white"/>
</clipPath>
</defs>
</svg>
