<svg width="137" height="129" viewBox="0 0 137 129" fill="none" xmlns="http://www.w3.org/2000/svg">
<path fill-rule="evenodd" clip-rule="evenodd" d="M-19.8736 123.783C-44.0054 118.516 -62.7794 102.226 -81.7414 86.3977C-99.3409 71.7072 -111.772 53.9056 -125.544 35.5783C-147.578 6.25572 -194.149 -17.0115 -186.383 -52.8584C-178.88 -87.4937 -124.031 -81.8267 -95.5422 -102.905C-66.6328 -124.294 -55.2072 -169.362 -19.8736 -176.054C16.2171 -182.89 58.8444 -166.21 79.9425 -136.141C100.448 -106.917 71.2077 -65.8769 81.4332 -31.6727C91.2148 1.04635 139.818 17.9915 136.172 51.9463C132.627 84.9722 95.4839 104.602 65.3119 118.492C38.8206 130.687 8.6193 130.001 -19.8736 123.783Z" fill="#F2EEF9" fill-opacity="0.08"/>
</svg>
