<svg width="225" height="54" viewBox="0 0 225 54" fill="none" xmlns="http://www.w3.org/2000/svg">
<path d="M4.16667 39.4851L0 40V54H225V0L220.833 3.90106C216.667 7.80212 208.333 15.6042 200 20.1241C191.667 24.6439 183.333 25.8815 175 26.719C166.667 27.5565 158.333 27.9938 150 27.0647C141.667 26.1356 133.333 23.8401 125 23.3663C116.667 22.8926 108.333 24.2405 100 24.5855C91.6667 24.9304 83.3333 24.2723 75 24.0946C66.6667 23.917 58.3333 24.2197 50 26.4358C41.6667 28.6519 33.3333 32.7813 25 35.3609C16.6667 37.9405 8.33333 38.9702 4.16667 39.4851Z" fill="url(#paint0_linear_17035_30631)" fill-opacity="0.8"/>
<defs>
<linearGradient id="paint0_linear_17035_30631" x1="98.0555" y1="8.07308e-07" x2="98.0555" y2="54" gradientUnits="userSpaceOnUse">
<stop stop-color="#BC8CF8"/>
<stop offset="1" stop-color="#BC8CF8" stop-opacity="0"/>
</linearGradient>
</defs>
</svg>
