<svg width="219" height="221" viewBox="0 0 219 221" fill="none" xmlns="http://www.w3.org/2000/svg">
<path fill-rule="evenodd" clip-rule="evenodd" d="M147.786 298.365C124.41 290.387 107.611 272.067 90.5731 254.184C74.7591 237.587 64.4335 218.487 52.8361 198.712C34.281 167.073 -9.34114 138.659 2.45256 103.928C13.8477 70.3712 67.6954 82.2411 98.3974 64.5407C129.552 46.5792 146.031 3.10358 181.896 0.474565C218.53 -2.21078 258.983 19.21 276.524 51.4837C293.571 82.8505 259.852 120.298 266.12 155.444C272.116 189.063 318.476 211.427 310.991 244.747C303.712 277.155 264.577 292.432 233.021 302.799C205.314 311.902 175.387 307.785 147.786 298.365Z" fill="#F2EEF9" fill-opacity="0.04"/>
</svg>
