<svg width="234" height="55" viewBox="0 0 234 55" fill="none" xmlns="http://www.w3.org/2000/svg">
<path d="M3.9 43.0886L0 45.7625V54.7625H234V0.762451L230.1 2.56771C226.2 4.37296 218.4 7.98347 210.6 13.3993C202.8 18.8152 195 26.0363 187.2 25.2458C179.4 24.4552 171.6 15.653 163.8 16.2864C156 16.9199 148.2 26.9892 140.4 28.9821C132.6 30.9751 124.8 24.8917 117 18.7689L116.732 18.5587C109.021 12.5055 101.311 6.45235 93.6 3.72862C85.8 0.973361 78 1.62508 70.2 3.73882C62.4 5.85256 54.6 9.42831 46.8 14.002C39 18.5758 31.2 24.1475 23.4 29.6073C15.6 35.067 7.80009 40.4147 3.90007 43.0885L3.9 43.0886Z" fill="url(#paint0_linear_17015_15155)" fill-opacity="0.8"/>
<defs>
<linearGradient id="paint0_linear_17015_15155" x1="102" y1="0.762452" x2="102" y2="54.7625" gradientUnits="userSpaceOnUse">
<stop stop-color="#305EC6"/>
<stop offset="1" stop-color="#305EC6" stop-opacity="0"/>
</linearGradient>
</defs>
</svg>
