<svg width="385" height="206" viewBox="0 0 385 206" fill="none" xmlns="http://www.w3.org/2000/svg">
<g filter="url(#filter0_ddddii_1_60)">
<g clip-path="url(#clip0_1_60)">
<rect x="199" y="20" width="166" height="166" rx="35.5714" fill="white" shape-rendering="crispEdges"/>
<g filter="url(#filter1_f_1_60)">
<ellipse cx="282.001" cy="214.852" rx="101.181" ry="45.4524" fill="#3B82F6"/>
</g>
<g filter="url(#filter2_f_1_60)">
<ellipse cx="282" cy="235.405" rx="48.219" ry="32.8048" fill="#3B82F6"/>
</g>
<g style="mix-blend-mode:plus-lighter" filter="url(#filter3_f_1_60)">
<ellipse cx="277.259" cy="235.8" rx="52.9619" ry="32.4095" fill="#003DA0"/>
</g>
<g filter="url(#filter4_di_1_60)">
<mask id="path-5-outside-1_1_60" maskUnits="userSpaceOnUse" x="256" y="51" width="51" height="86" fill="black">
<rect fill="white" x="256" y="51" width="51" height="86"/>
<path d="M276.812 135.688C273.766 135.688 272.242 135.336 272.242 134.633L272.711 131.586C269.039 131.117 264.742 130.297 259.82 129.125C259.195 126.625 258.648 123.812 258.18 120.688C257.711 117.562 257.398 114.164 257.242 110.492C257.164 109.711 257.828 109.32 259.234 109.32C261.031 109.32 262.203 109.477 262.75 109.789C263.297 112.133 264.508 114.789 266.383 117.758C268.336 120.648 270.836 122.797 273.883 124.203L277.867 100.18L277.398 99.8281L273.297 97.25C271.812 96.3125 270.641 95.5703 269.781 95.0234C268.922 94.4766 268.141 93.9297 267.438 93.3828C266.812 92.8359 265.914 92.0547 264.742 91.0391C262.945 89.4766 261.734 88.1094 261.109 86.9375C260.328 85.7656 259.586 84.2422 258.883 82.3672C258.258 80.4141 257.945 78.3828 257.945 76.2734C257.945 72.3672 259.117 68.8516 261.461 65.7266C263.805 62.6016 266.812 60.1406 270.484 58.3438C274.156 56.5469 277.945 55.6484 281.852 55.6484C282.945 55.6484 284.039 55.6875 285.133 55.7656L285.602 52.7188C288.648 52.7188 290.172 53.0312 290.172 53.6562L289.703 56.2344C291.891 56.625 293.805 57.0547 295.445 57.5234C297.164 57.9922 298.609 58.3438 299.781 58.5781C300.641 61.9375 301.266 65.1797 301.656 68.3047C302.125 71.4297 302.359 74.4375 302.359 77.3281C301.812 78.1094 300.641 78.5 298.844 78.5C297.438 78.5 296.734 78.2266 296.734 77.6797C296.734 76.8984 296.266 75.3359 295.328 72.9922C294.781 71.5859 293.883 70.0625 292.633 68.4219C291.461 66.7812 290.055 65.4141 288.414 64.3203L284.898 85.8828C285.523 86.3516 286.148 86.7812 286.773 87.1719C289.977 89.2031 292.633 90.9609 294.742 92.4453C296.852 93.8516 298.336 94.9844 299.195 95.8438C303.492 99.9062 305.641 104.945 305.641 110.961C305.641 115.023 304.391 118.656 301.891 121.859C299.391 124.984 296.148 127.484 292.164 129.359C288.258 131.156 284.078 132.055 279.625 132.055C278.922 132.055 278.18 132.016 277.398 131.938L276.812 135.688ZM272.828 71.5859C272.828 74.8672 275.445 78.6172 280.68 82.8359L284.078 62.2109C283.375 62.0547 282.672 61.9766 281.969 61.9766C279.078 61.9766 276.812 62.8359 275.172 64.5547C273.609 66.2734 272.828 68.6172 272.828 71.5859ZM290.055 114.008C290.055 112.133 289.352 110.336 287.945 108.617C286.617 106.82 284.664 104.984 282.086 103.109L278.453 125.492C279 125.57 279.547 125.609 280.094 125.609C282.828 125.609 285.172 124.555 287.125 122.445C289.078 120.258 290.055 117.445 290.055 114.008Z"/>
</mask>
<path d="M276.812 135.688C273.766 135.688 272.242 135.336 272.242 134.633L272.711 131.586C269.039 131.117 264.742 130.297 259.82 129.125C259.195 126.625 258.648 123.812 258.18 120.688C257.711 117.562 257.398 114.164 257.242 110.492C257.164 109.711 257.828 109.32 259.234 109.32C261.031 109.32 262.203 109.477 262.75 109.789C263.297 112.133 264.508 114.789 266.383 117.758C268.336 120.648 270.836 122.797 273.883 124.203L277.867 100.18L277.398 99.8281L273.297 97.25C271.812 96.3125 270.641 95.5703 269.781 95.0234C268.922 94.4766 268.141 93.9297 267.438 93.3828C266.812 92.8359 265.914 92.0547 264.742 91.0391C262.945 89.4766 261.734 88.1094 261.109 86.9375C260.328 85.7656 259.586 84.2422 258.883 82.3672C258.258 80.4141 257.945 78.3828 257.945 76.2734C257.945 72.3672 259.117 68.8516 261.461 65.7266C263.805 62.6016 266.812 60.1406 270.484 58.3438C274.156 56.5469 277.945 55.6484 281.852 55.6484C282.945 55.6484 284.039 55.6875 285.133 55.7656L285.602 52.7188C288.648 52.7188 290.172 53.0312 290.172 53.6562L289.703 56.2344C291.891 56.625 293.805 57.0547 295.445 57.5234C297.164 57.9922 298.609 58.3438 299.781 58.5781C300.641 61.9375 301.266 65.1797 301.656 68.3047C302.125 71.4297 302.359 74.4375 302.359 77.3281C301.812 78.1094 300.641 78.5 298.844 78.5C297.438 78.5 296.734 78.2266 296.734 77.6797C296.734 76.8984 296.266 75.3359 295.328 72.9922C294.781 71.5859 293.883 70.0625 292.633 68.4219C291.461 66.7812 290.055 65.4141 288.414 64.3203L284.898 85.8828C285.523 86.3516 286.148 86.7812 286.773 87.1719C289.977 89.2031 292.633 90.9609 294.742 92.4453C296.852 93.8516 298.336 94.9844 299.195 95.8438C303.492 99.9062 305.641 104.945 305.641 110.961C305.641 115.023 304.391 118.656 301.891 121.859C299.391 124.984 296.148 127.484 292.164 129.359C288.258 131.156 284.078 132.055 279.625 132.055C278.922 132.055 278.18 132.016 277.398 131.938L276.812 135.688ZM272.828 71.5859C272.828 74.8672 275.445 78.6172 280.68 82.8359L284.078 62.2109C283.375 62.0547 282.672 61.9766 281.969 61.9766C279.078 61.9766 276.812 62.8359 275.172 64.5547C273.609 66.2734 272.828 68.6172 272.828 71.5859ZM290.055 114.008C290.055 112.133 289.352 110.336 287.945 108.617C286.617 106.82 284.664 104.984 282.086 103.109L278.453 125.492C279 125.57 279.547 125.609 280.094 125.609C282.828 125.609 285.172 124.555 287.125 122.445C289.078 120.258 290.055 117.445 290.055 114.008Z" fill="url(#paint0_linear_1_60)" shape-rendering="crispEdges"/>
<path d="M276.812 135.688V136.688H277.668L277.801 135.842L276.812 135.688ZM272.242 134.633L271.254 134.481L271.242 134.556V134.633H272.242ZM272.711 131.586L273.699 131.738L273.855 130.724L272.838 130.594L272.711 131.586ZM259.82 129.125L258.85 129.368L258.998 129.957L259.589 130.098L259.82 129.125ZM257.242 110.492L258.241 110.45L258.24 110.421L258.237 110.393L257.242 110.492ZM262.75 109.789L263.724 109.562L263.625 109.137L263.246 108.921L262.75 109.789ZM266.383 117.758L265.537 118.292L265.546 118.305L265.554 118.318L266.383 117.758ZM273.883 124.203L273.464 125.111L274.655 125.661L274.869 124.367L273.883 124.203ZM277.867 100.18L278.854 100.343L278.953 99.7441L278.467 99.3797L277.867 100.18ZM277.398 99.8281L277.998 99.0281L277.965 99.0034L277.931 98.9815L277.398 99.8281ZM273.297 97.25L272.763 98.0955L272.765 98.0966L273.297 97.25ZM267.438 93.3828L266.779 94.1354L266.801 94.1544L266.824 94.1722L267.438 93.3828ZM264.742 91.0391L264.086 91.7937L264.087 91.7948L264.742 91.0391ZM261.109 86.9375L261.992 86.4669L261.969 86.4236L261.941 86.3828L261.109 86.9375ZM258.883 82.3672L257.93 82.672L257.938 82.6953L257.946 82.7183L258.883 82.3672ZM261.461 65.7266L262.261 66.3266L261.461 65.7266ZM285.133 55.7656L285.062 56.7631L285.981 56.8288L286.121 55.9177L285.133 55.7656ZM285.602 52.7188V51.7188H284.744L284.613 52.5667L285.602 52.7188ZM290.172 53.6562L291.156 53.8351L291.172 53.7464V53.6562H290.172ZM289.703 56.2344L288.719 56.0555L288.54 57.0425L289.527 57.2188L289.703 56.2344ZM295.445 57.5234L295.171 58.485L295.182 58.4882L295.445 57.5234ZM299.781 58.5781L300.75 58.3303L300.594 57.7209L299.977 57.5975L299.781 58.5781ZM301.656 68.3047L300.664 68.4287L300.665 68.4409L300.667 68.453L301.656 68.3047ZM302.359 77.3281L303.179 77.9016L303.359 77.6433V77.3281H302.359ZM295.328 72.9922L294.396 73.3547L294.4 73.3636L295.328 72.9922ZM292.633 68.4219L291.819 69.0031L291.828 69.0157L291.837 69.0279L292.633 68.4219ZM288.414 64.3203L288.969 63.4883L287.677 62.627L287.427 64.1594L288.414 64.3203ZM284.898 85.8828L283.911 85.7219L283.814 86.3195L284.298 86.6828L284.898 85.8828ZM286.773 87.1719L287.309 86.3273L287.303 86.3239L286.773 87.1719ZM294.742 92.4453L294.167 93.2631L294.177 93.2704L294.187 93.2774L294.742 92.4453ZM299.195 95.8438L298.488 96.5509L298.498 96.5608L298.508 96.5704L299.195 95.8438ZM301.891 121.859L302.672 122.484L302.679 122.475L301.891 121.859ZM292.164 129.359L292.582 130.268L292.59 130.264L292.164 129.359ZM277.398 131.938L277.498 130.942L276.556 130.848L276.41 131.783L277.398 131.938ZM280.68 82.8359L280.052 83.6145L281.388 84.6908L281.666 82.9985L280.68 82.8359ZM284.078 62.2109L285.065 62.3735L285.219 61.44L284.295 61.2348L284.078 62.2109ZM275.172 64.5547L274.449 63.8642L274.44 63.873L274.432 63.882L275.172 64.5547ZM287.945 108.617L287.141 109.212L287.156 109.231L287.171 109.25L287.945 108.617ZM282.086 103.109L282.674 102.301L281.359 101.344L281.099 102.949L282.086 103.109ZM278.453 125.492L277.466 125.332L277.303 126.338L278.312 126.482L278.453 125.492ZM287.125 122.445L287.859 123.125L287.865 123.118L287.871 123.111L287.125 122.445ZM276.812 134.688C275.308 134.688 274.257 134.599 273.61 134.449C273.279 134.373 273.136 134.299 273.097 134.272C273.082 134.261 273.242 134.38 273.242 134.633H271.242C271.242 135.237 271.593 135.663 271.959 135.916C272.301 136.153 272.729 136.299 273.16 136.398C274.036 136.6 275.27 136.688 276.812 136.688V134.688ZM273.231 134.785L273.699 131.738L271.723 131.434L271.254 134.481L273.231 134.785ZM272.838 130.594C269.211 130.131 264.951 129.319 260.052 128.152L259.589 130.098C264.534 131.275 268.867 132.103 272.584 132.578L272.838 130.594ZM260.79 128.882C260.175 126.42 259.634 123.639 259.169 120.539L257.191 120.836C257.663 123.986 258.216 126.83 258.85 129.368L260.79 128.882ZM259.169 120.539C258.706 117.454 258.396 114.092 258.241 110.45L256.243 110.535C256.401 114.236 256.716 117.671 257.191 120.836L259.169 120.539ZM258.237 110.393C258.233 110.348 258.244 110.373 258.217 110.427C258.19 110.482 258.159 110.493 258.189 110.475C258.226 110.453 258.32 110.411 258.504 110.376C258.686 110.342 258.926 110.32 259.234 110.32V108.32C258.479 108.32 257.741 108.418 257.175 108.751C256.872 108.929 256.602 109.184 256.428 109.532C256.255 109.879 256.213 110.246 256.247 110.592L258.237 110.393ZM259.234 110.32C260.109 110.32 260.803 110.359 261.329 110.429C261.879 110.502 262.152 110.599 262.254 110.657L263.246 108.921C262.801 108.666 262.215 108.529 261.593 108.446C260.947 108.36 260.157 108.32 259.234 108.32V110.32ZM261.776 110.016C262.357 112.506 263.628 115.268 265.537 118.292L267.228 117.224C265.388 114.31 264.237 111.759 263.724 109.562L261.776 110.016ZM265.554 118.318C267.605 121.353 270.244 123.625 273.464 125.111L274.302 123.295C271.427 121.969 269.067 119.944 267.211 117.198L265.554 118.318ZM274.869 124.367L278.854 100.343L276.881 100.016L272.896 124.04L274.869 124.367ZM278.467 99.3797L277.998 99.0281L276.798 100.628L277.267 100.98L278.467 99.3797ZM277.931 98.9815L273.829 96.4034L272.765 98.0966L276.866 100.675L277.931 98.9815ZM273.831 96.4045C272.347 95.4673 271.176 94.7258 270.318 94.1798L269.244 95.8671C270.105 96.4149 271.278 97.1577 272.763 98.0955L273.831 96.4045ZM270.318 94.1798C269.482 93.6474 268.727 93.1185 268.051 92.5935L266.824 94.1722C267.555 94.7408 268.362 95.3057 269.244 95.8671L270.318 94.1798ZM268.096 92.6302C267.469 92.0818 266.569 91.2993 265.397 90.2834L264.087 91.7948C265.259 92.8101 266.156 93.5901 266.779 94.1354L268.096 92.6302ZM265.398 90.2845C263.632 88.7489 262.531 87.4774 261.992 86.4669L260.227 87.4081C260.938 88.7414 262.258 90.2043 264.086 91.7937L265.398 90.2845ZM261.941 86.3828C261.216 85.295 260.506 83.8468 259.819 82.0161L257.946 82.7183C258.666 84.6375 259.44 86.2362 260.277 87.4922L261.941 86.3828ZM259.835 82.0624C259.243 80.2106 258.945 78.2824 258.945 76.2734H256.945C256.945 78.4833 257.273 80.6175 257.93 82.672L259.835 82.0624ZM258.945 76.2734C258.945 72.5836 260.047 69.2785 262.261 66.3266L260.661 65.1266C258.187 68.4247 256.945 72.1508 256.945 76.2734H258.945ZM262.261 66.3266C264.505 63.334 267.387 60.9727 270.924 59.242L270.045 57.4455C266.238 59.3086 263.104 61.8691 260.661 65.1266L262.261 66.3266ZM270.924 59.242C274.465 57.5089 278.105 56.6484 281.852 56.6484V54.6484C277.786 54.6484 273.847 55.5849 270.045 57.4455L270.924 59.242ZM281.852 56.6484C282.921 56.6484 283.991 56.6866 285.062 56.7631L285.204 54.7682C284.087 54.6884 282.969 54.6484 281.852 54.6484V56.6484ZM286.121 55.9177L286.59 52.8708L284.613 52.5667L284.144 55.6136L286.121 55.9177ZM285.602 53.7188C287.109 53.7188 288.169 53.7975 288.828 53.9327C289.166 54.0021 289.319 54.0709 289.362 54.0978C289.396 54.1188 289.172 53.9845 289.172 53.6562H291.172C291.172 53.0155 290.757 52.6077 290.41 52.3944C290.073 52.1869 289.654 52.0604 289.23 51.9735C288.366 51.7963 287.141 51.7188 285.602 51.7188V53.7188ZM289.188 53.4774L288.719 56.0555L290.687 56.4133L291.156 53.8351L289.188 53.4774ZM289.527 57.2188C291.691 57.6051 293.571 58.0278 295.171 58.485L295.72 56.5619C294.039 56.0816 292.09 55.6449 289.879 55.2499L289.527 57.2188ZM295.182 58.4882C296.913 58.9604 298.383 59.3182 299.585 59.5587L299.977 57.5975C298.836 57.3693 297.415 57.024 295.708 56.5587L295.182 58.4882ZM298.812 58.826C299.662 62.1486 300.279 65.3494 300.664 68.4287L302.649 68.1807C302.252 65.01 301.619 61.7264 300.75 58.3303L298.812 58.826ZM300.667 68.453C301.129 71.5334 301.359 74.4915 301.359 77.3281H303.359C303.359 74.3835 303.121 71.326 302.645 68.1563L300.667 68.453ZM301.54 76.7547C301.296 77.104 300.587 77.5 298.844 77.5V79.5C300.694 79.5 302.329 79.1147 303.179 77.9016L301.54 76.7547ZM298.844 77.5C298.176 77.5 297.799 77.4311 297.624 77.3629C297.544 77.3319 297.572 77.3257 297.625 77.3878C297.695 77.4689 297.734 77.5809 297.734 77.6797H295.734C295.734 78.0519 295.862 78.4031 296.107 78.6894C296.336 78.9565 296.628 79.1213 296.899 79.2269C297.427 79.4322 298.105 79.5 298.844 79.5V77.5ZM297.734 77.6797C297.734 77.1344 297.579 76.4306 297.341 75.6345C297.094 74.8139 296.731 73.8071 296.257 72.6208L294.4 73.3636C294.863 74.521 295.202 75.4673 295.425 76.2092C295.655 76.9757 295.734 77.4437 295.734 77.6797H297.734ZM296.26 72.6297C295.67 71.111 294.716 69.5056 293.428 67.8158L291.837 69.0279C293.05 70.6194 293.893 72.0609 294.396 73.3546L296.26 72.6297ZM293.447 67.8406C292.206 66.1037 290.713 64.6508 288.969 63.4883L287.859 65.1524C289.397 66.1774 290.716 67.4588 291.819 69.0031L293.447 67.8406ZM287.427 64.1594L283.911 85.7219L285.885 86.0437L289.401 64.4812L287.427 64.1594ZM284.298 86.6828C284.945 87.1675 285.593 87.6134 286.243 88.0199L287.303 86.3239C286.704 85.9491 286.102 85.5356 285.498 85.0828L284.298 86.6828ZM286.238 88.0164C289.433 90.0426 292.075 91.7911 294.167 93.2631L295.318 91.6275C293.191 90.1307 290.52 88.3636 287.309 86.3274L286.238 88.0164ZM294.187 93.2774C296.288 94.6775 297.703 95.7652 298.488 96.5509L299.902 95.1366C298.969 94.2035 297.415 93.0256 295.297 91.6133L294.187 93.2774ZM298.508 96.5704C302.602 100.44 304.641 105.215 304.641 110.961H306.641C306.641 104.676 304.383 99.3722 299.882 95.1171L298.508 96.5704ZM304.641 110.961C304.641 114.8 303.465 118.217 301.102 121.244L302.679 122.475C305.316 119.096 306.641 115.246 306.641 110.961H304.641ZM301.11 121.235C298.714 124.229 295.599 126.638 291.738 128.455L292.59 130.264C296.698 128.331 300.067 125.74 302.671 122.484L301.11 121.235ZM291.746 128.451C287.976 130.185 283.939 131.055 279.625 131.055V133.055C284.217 133.055 288.54 132.127 292.582 130.268L291.746 128.451ZM279.625 131.055C278.959 131.055 278.25 131.018 277.498 130.942L277.299 132.933C278.109 133.014 278.885 133.055 279.625 133.055V131.055ZM276.41 131.783L275.824 135.533L277.801 135.842L278.386 132.092L276.41 131.783ZM271.828 71.5859C271.828 73.4975 272.59 75.4529 273.971 77.4317C275.353 79.4113 277.393 81.4709 280.052 83.6145L281.307 82.0573C278.732 79.9822 276.847 78.0575 275.611 76.2871C274.375 74.5159 273.828 72.9556 273.828 71.5859H271.828ZM281.666 82.9985L285.065 62.3735L283.091 62.0484L279.693 82.6734L281.666 82.9985ZM284.295 61.2348C283.522 61.0631 282.747 60.9766 281.969 60.9766V62.9766C282.597 62.9766 283.228 63.0463 283.861 63.1871L284.295 61.2348ZM281.969 60.9766C278.868 60.9766 276.318 61.9061 274.449 63.8642L275.895 65.2452C277.307 63.7658 279.288 62.9766 281.969 62.9766V60.9766ZM274.432 63.882C272.66 65.8317 271.828 68.4399 271.828 71.5859H273.828C273.828 68.7945 274.559 66.7152 275.912 65.2274L274.432 63.882ZM291.055 114.008C291.055 111.861 290.244 109.847 288.719 107.984L287.171 109.25C288.46 110.825 289.055 112.404 289.055 114.008H291.055ZM288.749 108.023C287.341 106.117 285.303 104.212 282.674 102.301L281.498 103.918C284.025 105.756 285.893 107.524 287.141 109.212L288.749 108.023ZM281.099 102.949L277.466 125.332L279.44 125.652L283.073 103.27L281.099 102.949ZM278.312 126.482C278.905 126.567 279.499 126.609 280.094 126.609V124.609C279.595 124.609 279.095 124.574 278.595 124.502L278.312 126.482ZM280.094 126.609C283.122 126.609 285.727 125.427 287.859 123.125L286.391 121.766C284.616 123.683 282.534 124.609 280.094 124.609V126.609ZM287.871 123.111C290.015 120.71 291.055 117.646 291.055 114.008H289.055C289.055 117.244 288.141 119.806 286.379 121.779L287.871 123.111Z" fill="url(#paint1_linear_1_60)" style="mix-blend-mode:color-dodge" mask="url(#path-5-outside-1_1_60)"/>
</g>
</g>
<rect x="199" y="20" width="166" height="166" rx="35.5714" stroke="url(#paint2_linear_1_60)" stroke-width="0.790476" shape-rendering="crispEdges"/>
</g>
<defs>
<filter id="filter0_ddddii_1_60" x="0.985687" y="-174.852" width="562.029" height="562.029" filterUnits="userSpaceOnUse" color-interpolation-filters="sRGB">
<feFlood flood-opacity="0" result="BackgroundImageFix"/>
<feColorMatrix in="SourceAlpha" type="matrix" values="0 0 0 0 0 0 0 0 0 0 0 0 0 0 0 0 0 0 127 0" result="hardAlpha"/>
<feOffset dy="3.1619"/>
<feGaussianBlur stdDeviation="98.8095"/>
<feComposite in2="hardAlpha" operator="out"/>
<feColorMatrix type="matrix" values="0 0 0 0 0.231373 0 0 0 0 0.509804 0 0 0 0 0.964706 0 0 0 0.74 0"/>
<feBlend mode="normal" in2="BackgroundImageFix" result="effect1_dropShadow_1_60"/>
<feColorMatrix in="SourceAlpha" type="matrix" values="0 0 0 0 0 0 0 0 0 0 0 0 0 0 0 0 0 0 127 0" result="hardAlpha"/>
<feOffset dy="3.1619"/>
<feGaussianBlur stdDeviation="7.74667"/>
<feComposite in2="hardAlpha" operator="out"/>
<feColorMatrix type="matrix" values="0 0 0 0 0.231373 0 0 0 0 0.509804 0 0 0 0 0.964706 0 0 0 0.25 0"/>
<feBlend mode="normal" in2="effect1_dropShadow_1_60" result="effect2_dropShadow_1_60"/>
<feColorMatrix in="SourceAlpha" type="matrix" values="0 0 0 0 0 0 0 0 0 0 0 0 0 0 0 0 0 0 127 0" result="hardAlpha"/>
<feOffset dy="3.1619"/>
<feGaussianBlur stdDeviation="12.2129"/>
<feComposite in2="hardAlpha" operator="out"/>
<feColorMatrix type="matrix" values="0 0 0 0 0.231373 0 0 0 0 0.509804 0 0 0 0 0.964706 0 0 0 0.46 0"/>
<feBlend mode="normal" in2="effect2_dropShadow_1_60" result="effect3_dropShadow_1_60"/>
<feColorMatrix in="SourceAlpha" type="matrix" values="0 0 0 0 0 0 0 0 0 0 0 0 0 0 0 0 0 0 127 0" result="hardAlpha"/>
<feOffset dy="1.58095"/>
<feGaussianBlur stdDeviation="1.58095"/>
<feComposite in2="hardAlpha" operator="out"/>
<feColorMatrix type="matrix" values="0 0 0 0 0.231373 0 0 0 0 0.509804 0 0 0 0 0.964706 0 0 0 0.25 0"/>
<feBlend mode="normal" in2="effect3_dropShadow_1_60" result="effect4_dropShadow_1_60"/>
<feBlend mode="normal" in="SourceGraphic" in2="effect4_dropShadow_1_60" result="shape"/>
<feColorMatrix in="SourceAlpha" type="matrix" values="0 0 0 0 0 0 0 0 0 0 0 0 0 0 0 0 0 0 127 0" result="hardAlpha"/>
<feOffset dy="-3.95238"/>
<feGaussianBlur stdDeviation="10.869"/>
<feComposite in2="hardAlpha" operator="arithmetic" k2="-1" k3="1"/>
<feColorMatrix type="matrix" values="0 0 0 0 0.151221 0 0 0 0 0.519025 0 0 0 0 1 0 0 0 0.55 0"/>
<feBlend mode="normal" in2="shape" result="effect5_innerShadow_1_60"/>
<feColorMatrix in="SourceAlpha" type="matrix" values="0 0 0 0 0 0 0 0 0 0 0 0 0 0 0 0 0 0 127 0" result="hardAlpha"/>
<feOffset dy="-3.95238"/>
<feGaussianBlur stdDeviation="1.97619"/>
<feComposite in2="hardAlpha" operator="arithmetic" k2="-1" k3="1"/>
<feColorMatrix type="matrix" values="0 0 0 0 0.231373 0 0 0 0 0.509804 0 0 0 0 0.964706 0 0 0 0.25 0"/>
<feBlend mode="normal" in2="effect5_innerShadow_1_60" result="effect6_innerShadow_1_60"/>
</filter>
<filter id="filter1_f_1_60" x="62.2489" y="50.8285" width="439.505" height="328.048" filterUnits="userSpaceOnUse" color-interpolation-filters="sRGB">
<feFlood flood-opacity="0" result="BackgroundImageFix"/>
<feBlend mode="normal" in="SourceGraphic" in2="BackgroundImageFix" result="shape"/>
<feGaussianBlur stdDeviation="59.2857" result="effect1_foregroundBlur_1_60"/>
</filter>
<filter id="filter2_f_1_60" x="194.257" y="163.076" width="175.486" height="144.657" filterUnits="userSpaceOnUse" color-interpolation-filters="sRGB">
<feFlood flood-opacity="0" result="BackgroundImageFix"/>
<feBlend mode="normal" in="SourceGraphic" in2="BackgroundImageFix" result="shape"/>
<feGaussianBlur stdDeviation="19.7619" result="effect1_foregroundBlur_1_60"/>
</filter>
<filter id="filter3_f_1_60" x="184.773" y="163.867" width="184.971" height="143.867" filterUnits="userSpaceOnUse" color-interpolation-filters="sRGB">
<feFlood flood-opacity="0" result="BackgroundImageFix"/>
<feBlend mode="normal" in="SourceGraphic" in2="BackgroundImageFix" result="shape"/>
<feGaussianBlur stdDeviation="19.7619" result="effect1_foregroundBlur_1_60"/>
</filter>
<filter id="filter4_di_1_60" x="242.325" y="49.9187" width="78.1156" height="112.569" filterUnits="userSpaceOnUse" color-interpolation-filters="sRGB">
<feFlood flood-opacity="0" result="BackgroundImageFix"/>
<feColorMatrix in="SourceAlpha" type="matrix" values="0 0 0 0 0 0 0 0 0 0 0 0 0 0 0 0 0 0 127 0" result="hardAlpha"/>
<feOffset dy="12"/>
<feGaussianBlur stdDeviation="7.4"/>
<feComposite in2="hardAlpha" operator="out"/>
<feColorMatrix type="matrix" values="0 0 0 0 0.231373 0 0 0 0 0.509804 0 0 0 0 0.964706 0 0 0 0.74 0"/>
<feBlend mode="normal" in2="BackgroundImageFix" result="effect1_dropShadow_1_60"/>
<feBlend mode="normal" in="SourceGraphic" in2="effect1_dropShadow_1_60" result="shape"/>
<feColorMatrix in="SourceAlpha" type="matrix" values="0 0 0 0 0 0 0 0 0 0 0 0 0 0 0 0 0 0 127 0" result="hardAlpha"/>
<feOffset dy="3"/>
<feGaussianBlur stdDeviation="4.85"/>
<feComposite in2="hardAlpha" operator="arithmetic" k2="-1" k3="1"/>
<feColorMatrix type="matrix" values="0 0 0 0 1 0 0 0 0 1 0 0 0 0 1 0 0 0 1 0"/>
<feBlend mode="normal" in2="shape" result="effect2_innerShadow_1_60"/>
</filter>
<linearGradient id="paint0_linear_1_60" x1="247.902" y1="71.0336" x2="258.187" y2="127.317" gradientUnits="userSpaceOnUse">
<stop stop-color="#007BC7"/>
<stop offset="0.355" stop-color="#003DA0"/>
<stop offset="1" stop-color="#3B82F6"/>
</linearGradient>
<linearGradient id="paint1_linear_1_60" x1="247.902" y1="71.0336" x2="258.187" y2="127.317" gradientUnits="userSpaceOnUse">
<stop offset="0.9998" stop-color="#070101" stop-opacity="0"/>
<stop offset="0.9999" stop-color="#003DA0"/>
<stop offset="1" stop-color="#3B82F6"/>
</linearGradient>
<linearGradient id="paint2_linear_1_60" x1="281.379" y1="-4.39184" x2="290.42" y2="185.599" gradientUnits="userSpaceOnUse">
<stop stop-color="#EDEDED" stop-opacity="0"/>
<stop offset="1" stop-color="#EDEDED"/>
</linearGradient>
<clipPath id="clip0_1_60">
<rect x="199" y="20" width="166" height="166" rx="35.5714" fill="white"/>
</clipPath>
</defs>
</svg>
