<svg width="92" height="92" viewBox="0 0 92 92" fill="none" xmlns="http://www.w3.org/2000/svg">
<path fill-rule="evenodd" clip-rule="evenodd" d="M85.1215 45.5608C85.1215 67.4096 67.4096 85.1215 45.5608 85.1215C23.712 85.1215 6 67.4096 6 45.5608C6 23.712 23.712 6 45.5608 6C67.4096 6 85.1215 23.712 85.1215 45.5608ZM91.1215 45.5608C91.1215 70.7233 70.7233 91.1215 45.5608 91.1215C20.3982 91.1215 0 70.7233 0 45.5608C0 20.3982 20.3982 0 45.5608 0C70.7233 0 91.1215 20.3982 91.1215 45.5608ZM68.6438 51.3939C73.3105 48.6996 73.3105 41.9638 68.6438 39.2695L38.5001 21.866C33.8334 19.1717 28.0001 22.5396 28.0001 27.9282L28.0001 62.7352C28.0001 68.1238 33.8334 71.4916 38.5001 68.7973L68.6438 51.3939ZM65.6438 44.4657C66.3105 44.8506 66.3105 45.8128 65.6438 46.1977L35.5001 63.6012C34.8334 63.9861 34.0001 63.505 34.0001 62.7352V27.9282C34.0001 27.1584 34.8334 26.6773 35.5001 27.0622L65.6438 44.4657Z" fill="white"/>
</svg>
