<svg width="79" height="114" viewBox="0 0 79 114" fill="none" xmlns="http://www.w3.org/2000/svg">
<g filter="url(#filter0_di_6002_2)">
<mask id="path-1-outside-1_6002_2" maskUnits="userSpaceOnUse" x="14" y="2" width="51" height="86" fill="black">
<rect fill="white" x="14" y="2" width="51" height="86"/>
<path d="M34.8125 86.6875C31.7656 86.6875 30.2422 86.3359 30.2422 85.6328L30.7109 82.5859C27.0391 82.1172 22.7422 81.2969 17.8203 80.125C17.1953 77.625 16.6484 74.8125 16.1797 71.6875C15.7109 68.5625 15.3984 65.1641 15.2422 61.4922C15.1641 60.7109 15.8281 60.3203 17.2344 60.3203C19.0312 60.3203 20.2031 60.4766 20.75 60.7891C21.2969 63.1328 22.5078 65.7891 24.3828 68.7578C26.3359 71.6484 28.8359 73.7969 31.8828 75.2031L35.8672 51.1797L35.3984 50.8281L31.2969 48.25C29.8125 47.3125 28.6406 46.5703 27.7812 46.0234C26.9219 45.4766 26.1406 44.9297 25.4375 44.3828C24.8125 43.8359 23.9141 43.0547 22.7422 42.0391C20.9453 40.4766 19.7344 39.1094 19.1094 37.9375C18.3281 36.7656 17.5859 35.2422 16.8828 33.3672C16.2578 31.4141 15.9453 29.3828 15.9453 27.2734C15.9453 23.3672 17.1172 19.8516 19.4609 16.7266C21.8047 13.6016 24.8125 11.1406 28.4844 9.34375C32.1562 7.54687 35.9453 6.64844 39.8516 6.64844C40.9453 6.64844 42.0391 6.6875 43.1328 6.76562L43.6016 3.71875C46.6484 3.71875 48.1719 4.03125 48.1719 4.65625L47.7031 7.23438C49.8906 7.625 51.8047 8.05469 53.4453 8.52344C55.1641 8.99219 56.6094 9.34375 57.7812 9.57812C58.6406 12.9375 59.2656 16.1797 59.6562 19.3047C60.125 22.4297 60.3594 25.4375 60.3594 28.3281C59.8125 29.1094 58.6406 29.5 56.8438 29.5C55.4375 29.5 54.7344 29.2266 54.7344 28.6797C54.7344 27.8984 54.2656 26.3359 53.3281 23.9922C52.7812 22.5859 51.8828 21.0625 50.6328 19.4219C49.4609 17.7812 48.0547 16.4141 46.4141 15.3203L42.8984 36.8828C43.5234 37.3516 44.1484 37.7812 44.7734 38.1719C47.9766 40.2031 50.6328 41.9609 52.7422 43.4453C54.8516 44.8516 56.3359 45.9844 57.1953 46.8438C61.4922 50.9062 63.6406 55.9453 63.6406 61.9609C63.6406 66.0234 62.3906 69.6562 59.8906 72.8594C57.3906 75.9844 54.1484 78.4844 50.1641 80.3594C46.2578 82.1562 42.0781 83.0547 37.625 83.0547C36.9219 83.0547 36.1797 83.0156 35.3984 82.9375L34.8125 86.6875ZM30.8281 22.5859C30.8281 25.8672 33.4453 29.6172 38.6797 33.8359L42.0781 13.2109C41.375 13.0547 40.6719 12.9766 39.9688 12.9766C37.0781 12.9766 34.8125 13.8359 33.1719 15.5547C31.6094 17.2734 30.8281 19.6172 30.8281 22.5859ZM48.0547 65.0078C48.0547 63.1328 47.3516 61.3359 45.9453 59.6172C44.6172 57.8203 42.6641 55.9844 40.0859 54.1094L36.4531 76.4922C37 76.5703 37.5469 76.6094 38.0938 76.6094C40.8281 76.6094 43.1719 75.5547 45.125 73.4453C47.0781 71.2578 48.0547 68.4453 48.0547 65.0078Z"/>
</mask>
<path d="M34.8125 86.6875C31.7656 86.6875 30.2422 86.3359 30.2422 85.6328L30.7109 82.5859C27.0391 82.1172 22.7422 81.2969 17.8203 80.125C17.1953 77.625 16.6484 74.8125 16.1797 71.6875C15.7109 68.5625 15.3984 65.1641 15.2422 61.4922C15.1641 60.7109 15.8281 60.3203 17.2344 60.3203C19.0312 60.3203 20.2031 60.4766 20.75 60.7891C21.2969 63.1328 22.5078 65.7891 24.3828 68.7578C26.3359 71.6484 28.8359 73.7969 31.8828 75.2031L35.8672 51.1797L35.3984 50.8281L31.2969 48.25C29.8125 47.3125 28.6406 46.5703 27.7812 46.0234C26.9219 45.4766 26.1406 44.9297 25.4375 44.3828C24.8125 43.8359 23.9141 43.0547 22.7422 42.0391C20.9453 40.4766 19.7344 39.1094 19.1094 37.9375C18.3281 36.7656 17.5859 35.2422 16.8828 33.3672C16.2578 31.4141 15.9453 29.3828 15.9453 27.2734C15.9453 23.3672 17.1172 19.8516 19.4609 16.7266C21.8047 13.6016 24.8125 11.1406 28.4844 9.34375C32.1562 7.54687 35.9453 6.64844 39.8516 6.64844C40.9453 6.64844 42.0391 6.6875 43.1328 6.76562L43.6016 3.71875C46.6484 3.71875 48.1719 4.03125 48.1719 4.65625L47.7031 7.23438C49.8906 7.625 51.8047 8.05469 53.4453 8.52344C55.1641 8.99219 56.6094 9.34375 57.7812 9.57812C58.6406 12.9375 59.2656 16.1797 59.6562 19.3047C60.125 22.4297 60.3594 25.4375 60.3594 28.3281C59.8125 29.1094 58.6406 29.5 56.8438 29.5C55.4375 29.5 54.7344 29.2266 54.7344 28.6797C54.7344 27.8984 54.2656 26.3359 53.3281 23.9922C52.7812 22.5859 51.8828 21.0625 50.6328 19.4219C49.4609 17.7812 48.0547 16.4141 46.4141 15.3203L42.8984 36.8828C43.5234 37.3516 44.1484 37.7812 44.7734 38.1719C47.9766 40.2031 50.6328 41.9609 52.7422 43.4453C54.8516 44.8516 56.3359 45.9844 57.1953 46.8438C61.4922 50.9062 63.6406 55.9453 63.6406 61.9609C63.6406 66.0234 62.3906 69.6562 59.8906 72.8594C57.3906 75.9844 54.1484 78.4844 50.1641 80.3594C46.2578 82.1562 42.0781 83.0547 37.625 83.0547C36.9219 83.0547 36.1797 83.0156 35.3984 82.9375L34.8125 86.6875ZM30.8281 22.5859C30.8281 25.8672 33.4453 29.6172 38.6797 33.8359L42.0781 13.2109C41.375 13.0547 40.6719 12.9766 39.9688 12.9766C37.0781 12.9766 34.8125 13.8359 33.1719 15.5547C31.6094 17.2734 30.8281 19.6172 30.8281 22.5859ZM48.0547 65.0078C48.0547 63.1328 47.3516 61.3359 45.9453 59.6172C44.6172 57.8203 42.6641 55.9844 40.0859 54.1094L36.4531 76.4922C37 76.5703 37.5469 76.6094 38.0938 76.6094C40.8281 76.6094 43.1719 75.5547 45.125 73.4453C47.0781 71.2578 48.0547 68.4453 48.0547 65.0078Z" fill="url(#paint0_linear_6002_2)" shape-rendering="crispEdges"/>
<path d="M34.8125 86.6875V87.6875H35.6684L35.8005 86.8419L34.8125 86.6875ZM30.2422 85.6328L29.2538 85.4808L29.2422 85.5563V85.6328H30.2422ZM30.7109 82.5859L31.6993 82.738L31.8553 81.7239L30.8376 81.594L30.7109 82.5859ZM17.8203 80.125L16.8502 80.3675L16.9976 80.9571L17.5887 81.0978L17.8203 80.125ZM15.2422 61.4922L16.2413 61.4497L16.2401 61.4211L16.2372 61.3927L15.2422 61.4922ZM20.75 60.7891L21.7238 60.5618L21.6248 60.1372L21.2461 59.9208L20.75 60.7891ZM24.3828 68.7578L23.5373 69.2918L23.5456 69.3049L23.5542 69.3177L24.3828 68.7578ZM31.8828 75.2031L31.4638 76.1111L32.6547 76.6608L32.8693 75.3667L31.8828 75.2031ZM35.8672 51.1797L36.8537 51.3433L36.9531 50.7441L36.4672 50.3797L35.8672 51.1797ZM35.3984 50.8281L35.9984 50.0281L35.9655 50.0034L35.9306 49.9815L35.3984 50.8281ZM31.2969 48.25L30.7629 49.0955L30.7647 49.0966L31.2969 48.25ZM25.4375 44.3828L24.779 45.1354L24.8007 45.1544L24.8236 45.1722L25.4375 44.3828ZM22.7422 42.0391L22.086 42.7937L22.0873 42.7948L22.7422 42.0391ZM19.1094 37.9375L19.9917 37.4669L19.9686 37.4236L19.9414 37.3828L19.1094 37.9375ZM16.8828 33.3672L15.9304 33.672L15.9379 33.6953L15.9465 33.7183L16.8828 33.3672ZM19.4609 16.7266L20.2609 17.3266L19.4609 16.7266ZM43.1328 6.76562L43.0616 7.76308L43.981 7.82876L44.1212 6.91768L43.1328 6.76562ZM43.6016 3.71875V2.71875H42.7436L42.6132 3.56669L43.6016 3.71875ZM48.1719 4.65625L49.1557 4.83514L49.1719 4.74642V4.65625H48.1719ZM47.7031 7.23438L46.7193 7.05549L46.5398 8.04246L47.5273 8.2188L47.7031 7.23438ZM53.4453 8.52344L53.1706 9.48503L53.1822 9.4882L53.4453 8.52344ZM57.7812 9.57812L58.7501 9.33029L58.5942 8.7209L57.9774 8.59754L57.7812 9.57812ZM59.6562 19.3047L58.664 19.4287L58.6655 19.4409L58.6673 19.453L59.6562 19.3047ZM60.3594 28.3281L61.1786 28.9016L61.3594 28.6433V28.3281H60.3594ZM53.3281 23.9922L52.3961 24.3547L52.3996 24.3636L53.3281 23.9922ZM50.6328 19.4219L49.8191 20.0031L49.828 20.0157L49.8374 20.0279L50.6328 19.4219ZM46.4141 15.3203L46.9688 14.4883L45.6769 13.627L45.4271 15.1594L46.4141 15.3203ZM42.8984 36.8828L41.9115 36.7219L41.814 37.3195L42.2984 37.6828L42.8984 36.8828ZM44.7734 38.1719L45.309 37.3273L45.3034 37.3239L44.7734 38.1719ZM52.7422 43.4453L52.1667 44.2631L52.177 44.2704L52.1875 44.2774L52.7422 43.4453ZM57.1953 46.8438L56.4882 47.5509L56.4981 47.5608L56.5083 47.5704L57.1953 46.8438ZM59.8906 72.8594L60.6716 73.4841L60.6789 73.4746L59.8906 72.8594ZM50.1641 80.3594L50.582 81.2679L50.5899 81.2642L50.1641 80.3594ZM35.3984 82.9375L35.4979 81.9425L34.5565 81.8483L34.4104 82.7831L35.3984 82.9375ZM38.6797 33.8359L38.0522 34.6145L39.3875 35.6908L39.6664 33.9985L38.6797 33.8359ZM42.0781 13.2109L43.0648 13.3735L43.2186 12.44L42.2951 12.2348L42.0781 13.2109ZM33.1719 15.5547L32.4485 14.8642L32.4401 14.873L32.4319 14.882L33.1719 15.5547ZM45.9453 59.6172L45.1411 60.2116L45.1558 60.2314L45.1714 60.2504L45.9453 59.6172ZM40.0859 54.1094L40.6741 53.3006L39.3593 52.3444L39.0989 53.9492L40.0859 54.1094ZM36.4531 76.4922L35.466 76.332L35.3028 77.338L36.3117 77.4821L36.4531 76.4922ZM45.125 73.4453L45.8588 74.1247L45.8649 74.1181L45.8709 74.1113L45.125 73.4453ZM34.8125 85.6875C33.3077 85.6875 32.2574 85.5989 31.6096 85.4494C31.2791 85.3732 31.1357 85.2988 31.097 85.272C31.0817 85.2614 31.2422 85.38 31.2422 85.6328H29.2422C29.2422 86.2372 29.5931 86.6634 29.9586 86.9164C30.3008 87.1534 30.7287 87.2987 31.1599 87.3982C32.0355 87.6003 33.2704 87.6875 34.8125 87.6875V85.6875ZM31.2306 85.7849L31.6993 82.738L29.7226 82.4339L29.2538 85.4808L31.2306 85.7849ZM30.8376 81.594C27.2111 81.131 22.9508 80.3186 18.0519 79.1522L17.5887 81.0978C22.5336 82.2752 26.867 83.1033 30.5843 83.5779L30.8376 81.594ZM18.7905 79.8825C18.1747 77.4195 17.6336 74.6393 17.1686 71.5392L15.1908 71.8358C15.6632 74.9857 16.2159 77.8305 16.8502 80.3675L18.7905 79.8825ZM17.1686 71.5392C16.7059 68.4543 16.3963 65.0917 16.2413 61.4497L14.2431 61.5347C14.4006 65.2365 14.716 68.6707 15.1908 71.8358L17.1686 71.5392ZM16.2372 61.3927C16.2327 61.3478 16.244 61.3732 16.2172 61.4267C16.1898 61.4815 16.1593 61.4925 16.1887 61.4752C16.2261 61.4532 16.3201 61.411 16.5043 61.3762C16.6855 61.342 16.9258 61.3203 17.2344 61.3203V59.3203C16.4785 59.3203 15.741 59.4182 15.1746 59.7513C14.872 59.9294 14.6022 60.1845 14.4283 60.5323C14.2551 60.8788 14.2126 61.246 14.2472 61.5917L16.2372 61.3927ZM17.2344 61.3203C18.1088 61.3203 18.8029 61.3586 19.3288 61.4287C19.879 61.5021 20.1522 61.5992 20.2539 61.6573L21.2461 59.9208C20.8009 59.6664 20.2147 59.5292 19.5931 59.4463C18.9471 59.3601 18.1568 59.3203 17.2344 59.3203V61.3203ZM19.7762 61.0163C20.3572 63.5063 21.6276 66.268 23.5373 69.2918L25.2283 68.2238C23.3881 65.3101 22.2366 62.7593 21.7238 60.5618L19.7762 61.0163ZM23.5542 69.3177C25.6053 72.3533 28.2444 74.6252 31.4638 76.1111L32.3019 74.2952C29.4275 72.9685 27.0666 70.9436 25.2114 68.198L23.5542 69.3177ZM32.8693 75.3667L36.8537 51.3433L34.8807 51.0161L30.8963 75.0395L32.8693 75.3667ZM36.4672 50.3797L35.9984 50.0281L34.7984 51.6281L35.2672 51.9797L36.4672 50.3797ZM35.9306 49.9815L31.829 47.4034L30.7647 49.0966L34.8663 51.6748L35.9306 49.9815ZM31.8309 47.4045C30.3469 46.4673 29.1761 45.7258 28.3181 45.1798L27.2444 46.8671C28.1052 47.4149 29.2781 48.1577 30.7629 49.0955L31.8309 47.4045ZM28.3181 45.1798C27.4816 44.6474 26.7265 44.1185 26.0514 43.5935L24.8236 45.1722C25.5547 45.7408 26.3621 46.3057 27.2444 46.8671L28.3181 45.1798ZM26.096 43.6302C25.4692 43.0818 24.5694 42.2993 23.3971 41.2834L22.0873 42.7948C23.2588 43.8101 24.1558 44.5901 24.779 45.1354L26.096 43.6302ZM23.3984 41.2845C21.6324 39.7489 20.5306 38.4774 19.9917 37.4669L18.227 38.4081C18.9381 39.7414 20.2582 41.2043 22.086 42.7937L23.3984 41.2845ZM19.9414 37.3828C19.2162 36.295 18.5057 34.8468 17.8191 33.0161L15.9465 33.7183C16.6662 35.6375 17.44 37.2362 18.2773 38.4922L19.9414 37.3828ZM17.8352 33.0624C17.2427 31.2106 16.9453 29.2824 16.9453 27.2734H14.9453C14.9453 29.4833 15.273 31.6175 15.9304 33.672L17.8352 33.0624ZM16.9453 27.2734C16.9453 23.5836 18.047 20.2785 20.2609 17.3266L18.6609 16.1266C16.1874 19.4247 14.9453 23.1508 14.9453 27.2734H16.9453ZM20.2609 17.3266C22.5054 14.334 25.3873 11.9727 28.9239 10.242L28.0448 8.44553C24.2377 10.3086 21.104 12.8691 18.6609 16.1266L20.2609 17.3266ZM28.9239 10.242C32.4655 8.50886 36.1048 7.64844 39.8516 7.64844V5.64844C35.7858 5.64844 31.847 6.58489 28.0448 8.44553L28.9239 10.242ZM39.8516 7.64844C40.9215 7.64844 41.9915 7.68665 43.0616 7.76308L43.2041 5.76817C42.0867 5.68835 40.9691 5.64844 39.8516 5.64844V7.64844ZM44.1212 6.91768L44.5899 3.87081L42.6132 3.56669L42.1444 6.61357L44.1212 6.91768ZM43.6016 4.71875C45.1087 4.71875 46.1689 4.79746 46.8284 4.93273C47.1664 5.00207 47.3186 5.07094 47.3621 5.09775C47.3964 5.11884 47.1719 4.98453 47.1719 4.65625H49.1719C49.1719 4.01547 48.7569 3.60772 48.4103 3.39444C48.073 3.18687 47.6539 3.06043 47.2302 2.97352C46.3662 2.79629 45.1413 2.71875 43.6016 2.71875V4.71875ZM47.188 4.47736L46.7193 7.05549L48.687 7.41326L49.1557 4.83514L47.188 4.47736ZM47.5273 8.2188C49.6908 8.60514 51.5705 9.0278 53.1706 9.48496L53.72 7.56191C52.0388 7.08157 50.0904 6.64486 47.8789 6.24995L47.5273 8.2188ZM53.1822 9.4882C54.9135 9.96037 56.3827 10.3182 57.5851 10.5587L57.9774 8.59754C56.836 8.36927 55.4146 8.024 53.7084 7.55867L53.1822 9.4882ZM56.8124 9.82596C57.6624 13.1486 58.2791 16.3494 58.664 19.4287L60.6485 19.1807C60.2522 16.01 59.6188 12.7264 58.7501 9.33029L56.8124 9.82596ZM58.6673 19.453C59.1294 22.5334 59.3594 25.4915 59.3594 28.3281H61.3594C61.3594 25.3835 61.1206 22.326 60.6452 19.1563L58.6673 19.453ZM59.5401 27.7547C59.2956 28.104 58.5873 28.5 56.8438 28.5V30.5C58.6939 30.5 60.3294 30.1147 61.1786 28.9016L59.5401 27.7547ZM56.8438 28.5C56.1764 28.5 55.7995 28.4311 55.6242 28.3629C55.5443 28.3319 55.5722 28.3257 55.6255 28.3878C55.695 28.4689 55.7344 28.5809 55.7344 28.6797H53.7344C53.7344 29.0519 53.8616 29.4031 54.107 29.6894C54.336 29.9565 54.6276 30.1213 54.8993 30.2269C55.4271 30.4322 56.1048 30.5 56.8438 30.5V28.5ZM55.7344 28.6797C55.7344 28.1344 55.5795 27.4306 55.3406 26.6345C55.0945 25.8139 54.7311 24.8071 54.2566 23.6208L52.3996 24.3636C52.8626 25.521 53.2024 26.4673 53.425 27.2092C53.6549 27.9757 53.7344 28.4437 53.7344 28.6797H55.7344ZM54.2601 23.6297C53.6695 22.111 52.7157 20.5056 51.4282 18.8158L49.8374 20.0279C51.0499 21.6194 51.893 23.0609 52.3961 24.3546L54.2601 23.6297ZM51.4465 18.8406C50.2059 17.1037 48.7125 15.6508 46.9688 14.4883L45.8594 16.1524C47.3969 17.1774 48.716 18.4588 49.8191 20.0031L51.4465 18.8406ZM45.4271 15.1594L41.9115 36.7219L43.8854 37.0437L47.401 15.4812L45.4271 15.1594ZM42.2984 37.6828C42.9447 38.1675 43.5931 38.6134 44.2434 39.0199L45.3034 37.3239C44.7038 36.9491 44.1021 36.5356 43.4984 36.0828L42.2984 37.6828ZM44.2379 39.0164C47.4331 41.0426 50.0749 42.7911 52.1667 44.2631L53.3177 42.6275C51.1907 41.1307 48.52 39.3636 45.309 37.3274L44.2379 39.0164ZM52.1875 44.2774C54.2877 45.6775 55.7026 46.7652 56.4882 47.5509L57.9024 46.1366C56.9693 45.2035 55.4154 44.0256 53.2969 42.6133L52.1875 44.2774ZM56.5083 47.5704C60.6015 51.4403 62.6406 56.2149 62.6406 61.9609H64.6406C64.6406 55.6758 62.3829 50.3722 57.8823 46.1171L56.5083 47.5704ZM62.6406 61.9609C62.6406 65.8004 61.4652 69.2167 59.1023 72.2441L60.6789 73.4746C63.3161 70.0958 64.6406 66.2464 64.6406 61.9609H62.6406ZM59.1098 72.2347C56.7144 75.2288 53.5985 77.638 49.7383 79.4546L50.5899 81.2642C54.6984 79.3308 58.0668 76.7399 60.6715 73.4841L59.1098 72.2347ZM49.7462 79.4509C45.9757 81.1853 41.9391 82.0547 37.625 82.0547V84.0547C42.2171 84.0547 46.5399 83.1272 50.582 81.2679L49.7462 79.4509ZM37.625 82.0547C36.9587 82.0547 36.2499 82.0177 35.4979 81.9425L35.2989 83.9325C36.1095 84.0136 36.8851 84.0547 37.625 84.0547V82.0547ZM34.4104 82.7831L33.8245 86.5331L35.8005 86.8419L36.3864 83.0919L34.4104 82.7831ZM29.8281 22.5859C29.8281 24.4975 30.5899 26.4529 31.971 28.4317C33.3526 30.4113 35.3925 32.4709 38.0522 34.6145L39.3072 33.0573C36.7325 30.9822 34.8466 29.0575 33.611 27.2871C32.3749 25.5159 31.8281 23.9556 31.8281 22.5859H29.8281ZM39.6664 33.9985L43.0648 13.3735L41.0914 13.0484L37.693 33.6734L39.6664 33.9985ZM42.2951 12.2348C41.5224 12.0631 40.7466 11.9766 39.9688 11.9766V13.9766C40.5971 13.9766 41.2276 14.0463 41.8612 14.1871L42.2951 12.2348ZM39.9688 11.9766C36.8684 11.9766 34.3176 12.9061 32.4485 14.8642L33.8952 16.2452C35.3074 14.7658 37.2879 13.9766 39.9688 13.9766V11.9766ZM32.4319 14.882C30.6595 16.8317 29.8281 19.4399 29.8281 22.5859H31.8281C31.8281 19.7945 32.5592 17.7152 33.9118 16.2274L32.4319 14.882ZM49.0547 65.0078C49.0547 62.8611 48.2436 60.847 46.7193 58.9839L45.1714 60.2504C46.4596 61.8249 47.0547 63.4045 47.0547 65.0078H49.0547ZM46.7495 59.0228C45.3409 57.1171 43.3026 55.2123 40.6741 53.3006L39.4978 54.9181C42.0255 56.7565 43.8934 58.5235 45.1411 60.2116L46.7495 59.0228ZM39.0989 53.9492L35.466 76.332L37.4402 76.6524L41.073 54.2696L39.0989 53.9492ZM36.3117 77.4821C36.9049 77.5669 37.4991 77.6094 38.0938 77.6094V75.6094C37.5947 75.6094 37.0951 75.5737 36.5945 75.5022L36.3117 77.4821ZM38.0938 77.6094C41.1224 77.6094 43.7273 76.4267 45.8588 74.1247L44.3912 72.7659C42.6164 74.6827 40.5339 75.6094 38.0938 75.6094V77.6094ZM45.8709 74.1113C48.0153 71.7097 49.0547 68.6461 49.0547 65.0078H47.0547C47.0547 68.2445 46.141 70.806 44.3791 72.7793L45.8709 74.1113Z" fill="url(#paint1_linear_6002_2)" style="mix-blend-mode:color-dodge" mask="url(#path-1-outside-1_6002_2)"/>
</g>
<defs>
<filter id="filter0_di_6002_2" x="0.325" y="0.91875" width="78.1156" height="112.569" filterUnits="userSpaceOnUse" color-interpolation-filters="sRGB">
<feFlood flood-opacity="0" result="BackgroundImageFix"/>
<feColorMatrix in="SourceAlpha" type="matrix" values="0 0 0 0 0 0 0 0 0 0 0 0 0 0 0 0 0 0 127 0" result="hardAlpha"/>
<feOffset dy="12"/>
<feGaussianBlur stdDeviation="7.4"/>
<feComposite in2="hardAlpha" operator="out"/>
<feColorMatrix type="matrix" values="0 0 0 0 0.231373 0 0 0 0 0.509804 0 0 0 0 0.964706 0 0 0 0.74 0"/>
<feBlend mode="normal" in2="BackgroundImageFix" result="effect1_dropShadow_6002_2"/>
<feBlend mode="normal" in="SourceGraphic" in2="effect1_dropShadow_6002_2" result="shape"/>
<feColorMatrix in="SourceAlpha" type="matrix" values="0 0 0 0 0 0 0 0 0 0 0 0 0 0 0 0 0 0 127 0" result="hardAlpha"/>
<feOffset dy="3"/>
<feGaussianBlur stdDeviation="4.85"/>
<feComposite in2="hardAlpha" operator="arithmetic" k2="-1" k3="1"/>
<feColorMatrix type="matrix" values="0 0 0 0 1 0 0 0 0 1 0 0 0 0 1 0 0 0 1 0"/>
<feBlend mode="normal" in2="shape" result="effect2_innerShadow_6002_2"/>
</filter>
<linearGradient id="paint0_linear_6002_2" x1="5.902" y1="22.0336" x2="16.1869" y2="78.3166" gradientUnits="userSpaceOnUse">
<stop stop-color="#007BC7"/>
<stop offset="0.355" stop-color="#003DA0"/>
<stop offset="1" stop-color="#3B82F6"/>
</linearGradient>
<linearGradient id="paint1_linear_6002_2" x1="5.902" y1="22.0336" x2="16.1869" y2="78.3166" gradientUnits="userSpaceOnUse">
<stop offset="0.9998" stop-color="#070101" stop-opacity="0"/>
<stop offset="0.9999" stop-color="#003DA0"/>
<stop offset="1" stop-color="#3B82F6"/>
</linearGradient>
</defs>
</svg>
