<svg width="174" height="427" viewBox="0 0 174 427" fill="none" xmlns="http://www.w3.org/2000/svg">
<path d="M174.595 2.02092L175.798 1.7708V3V422.5V423.369L174.938 423.49C135.784 429.012 90.7018 424.267 56.2141 395.013C21.7063 365.741 -1.95697 312.135 1.29909 220.465C6.52095 73.4492 118.983 13.5789 174.595 2.02092Z" fill="url(#paint0_radial_2_3)"/>
<path d="M174.595 2.02092L175.798 1.7708V3V422.5V423.369L174.938 423.49C135.784 429.012 90.7018 424.267 56.2141 395.013C21.7063 365.741 -1.95697 312.135 1.29909 220.465C6.52095 73.4492 118.983 13.5789 174.595 2.02092Z" fill="url(#paint1_linear_2_3)" fill-opacity="0.2"/>
<path d="M174.595 2.02092L175.798 1.7708V3V422.5V423.369L174.938 423.49C135.784 429.012 90.7018 424.267 56.2141 395.013C21.7063 365.741 -1.95697 312.135 1.29909 220.465C6.52095 73.4492 118.983 13.5789 174.595 2.02092Z" stroke="white" stroke-width="2"/>
<defs>
<radialGradient id="paint0_radial_2_3" cx="0" cy="0" r="1" gradientUnits="userSpaceOnUse" gradientTransform="translate(175 42) rotate(96.0966) scale(376.63 641.688)">
<stop offset="0.1" stop-color="#DED5C6"/>
<stop offset="1" stop-color="#F6C919"/>
</radialGradient>
<linearGradient id="paint1_linear_2_3" x1="142.5" y1="180.5" x2="58" y2="80.5" gradientUnits="userSpaceOnUse">
<stop stop-opacity="0"/>
<stop offset="1"/>
</linearGradient>
</defs>
</svg>
