<svg width="600" height="600" viewBox="0 0 600 600" fill="none" xmlns="http://www.w3.org/2000/svg">
<g filter="url(#filter0_f_3_8)">
<ellipse cx="304" cy="530.5" rx="260" ry="4.5" fill="#724D0A"/>
</g>
<path d="M304.339 534.274C304.019 534.269 303.701 534.264 303.385 534.259L303.383 534.078C301.601 534.104 299.64 534.134 297.529 534.167C295.418 534.134 293.457 534.104 291.676 534.078L291.673 534.259C291.358 534.264 291.04 534.269 290.72 534.274C275.3 534.518 254.847 534.842 237.351 534.957C227.242 535.024 218.128 535.021 211.546 534.893C208.251 534.829 205.607 534.734 203.792 534.603C202.923 534.54 202.271 534.47 201.839 534.397C201.565 530.241 198.842 526.427 196.036 523.419C194.535 521.811 192.962 520.382 191.623 519.202C191.292 518.911 190.98 518.638 190.689 518.384C189.769 517.581 189.054 516.957 188.615 516.494C186.307 514.059 183.25 511.069 179.626 507.523C148.188 476.763 74.0024 404.178 74 289.48C74.4099 252.723 86.0985 197.399 119.781 150.756C153.429 104.161 209.061 66.1735 297.527 64.0339C385.999 66.1862 442.874 105.4 477.761 153.237C512.681 201.12 525.59 257.675 526 294.416C525.997 405.56 452.629 473.404 418.709 504.771C413.595 509.5 409.377 513.4 406.443 516.494C406.004 516.957 405.289 517.581 404.37 518.384C404.078 518.638 403.766 518.911 403.436 519.202C402.097 520.382 400.523 521.811 399.023 523.419C396.217 526.427 393.493 530.241 393.22 534.397C392.787 534.47 392.136 534.54 391.266 534.603C389.452 534.734 386.807 534.829 383.513 534.893C376.93 535.021 367.817 535.024 357.708 534.957C340.211 534.842 319.759 534.518 304.339 534.274ZM393.644 534.301C393.644 534.301 393.643 534.302 393.643 534.302C393.649 534.299 393.65 534.299 393.644 534.301Z" fill="url(#paint0_linear_3_8)" stroke="white" stroke-width="2"/>
<g filter="url(#filter1_d_3_8)">
<circle cx="300" cy="286" r="210" fill="url(#paint1_linear_3_8)"/>
<circle cx="300" cy="286" r="210" fill="url(#paint2_radial_3_8)" fill-opacity="0.4"/>
<circle cx="300" cy="286" r="210" fill="url(#paint3_linear_3_8)" fill-opacity="0.1"/>
</g>
<defs>
<filter id="filter0_f_3_8" x="31" y="513" width="546" height="35" filterUnits="userSpaceOnUse" color-interpolation-filters="sRGB">
<feFlood flood-opacity="0" result="BackgroundImageFix"/>
<feBlend mode="normal" in="SourceGraphic" in2="BackgroundImageFix" result="shape"/>
<feGaussianBlur stdDeviation="6.5" result="effect1_foregroundBlur_3_8"/>
</filter>
<filter id="filter1_d_3_8" x="57" y="48" width="476" height="476" filterUnits="userSpaceOnUse" color-interpolation-filters="sRGB">
<feFlood flood-opacity="0" result="BackgroundImageFix"/>
<feColorMatrix in="SourceAlpha" type="matrix" values="0 0 0 0 0 0 0 0 0 0 0 0 0 0 0 0 0 0 127 0" result="hardAlpha"/>
<feMorphology radius="9" operator="dilate" in="SourceAlpha" result="effect1_dropShadow_3_8"/>
<feOffset dx="-5"/>
<feGaussianBlur stdDeviation="9.5"/>
<feComposite in2="hardAlpha" operator="out"/>
<feColorMatrix type="matrix" values="0 0 0 0 0 0 0 0 0 0 0 0 0 0 0 0 0 0 0.25 0"/>
<feBlend mode="normal" in2="BackgroundImageFix" result="effect1_dropShadow_3_8"/>
<feBlend mode="normal" in="SourceGraphic" in2="effect1_dropShadow_3_8" result="shape"/>
</filter>
<linearGradient id="paint0_linear_3_8" x1="300" y1="63" x2="300" y2="536" gradientUnits="userSpaceOnUse">
<stop stop-color="#F7EDD8"/>
<stop offset="1" stop-color="#F4EDDF"/>
</linearGradient>
<linearGradient id="paint1_linear_3_8" x1="156.088" y1="146.412" x2="430.941" y2="475.618" gradientUnits="userSpaceOnUse">
<stop offset="0.195" stop-color="#B82F2F"/>
<stop offset="1" stop-color="#F9E316"/>
</linearGradient>
<radialGradient id="paint2_radial_3_8" cx="0" cy="0" r="1" gradientUnits="userSpaceOnUse" gradientTransform="translate(372.882 156.912) rotate(147.103) scale(222.888 118.514)">
<stop offset="0.129077" stop-color="white"/>
<stop offset="0.9999" stop-color="white" stop-opacity="0"/>
</radialGradient>
<linearGradient id="paint3_linear_3_8" x1="169.059" y1="131.588" x2="445.147" y2="441.647" gradientUnits="userSpaceOnUse">
<stop offset="0.02" stop-color="#953136"/>
<stop offset="1" stop-color="#F9E316"/>
</linearGradient>
</defs>
</svg>
