<svg width="373" height="390" viewBox="0 0 373 390" fill="none" xmlns="http://www.w3.org/2000/svg">
<g clip-path="url(#clip0_3_8)">
<path d="M188.27 384.659C188.007 384.655 187.747 384.65 187.488 384.646L187.485 384.5C186.952 384.508 186.399 384.516 185.828 384.525C184.854 384.539 183.826 384.555 182.75 384.572C182.031 384.561 181.333 384.55 180.658 384.539C179.731 384.525 178.849 384.512 178.015 384.5L178.012 384.646C177.753 384.65 177.493 384.655 177.23 384.659C164.748 384.856 148.196 385.119 134.036 385.212C125.853 385.266 118.478 385.264 113.153 385.16C110.487 385.109 108.35 385.032 106.887 384.926C106.278 384.881 105.807 384.834 105.47 384.784C105.189 381.407 102.976 378.331 100.733 375.924C99.5125 374.614 98.2335 373.452 97.1479 372.494C96.8766 372.255 96.6216 372.032 96.3841 371.825C95.6431 371.177 95.0744 370.68 94.726 370.312C92.8543 368.337 90.3781 365.911 87.4424 363.036C61.9907 338.108 2.00242 279.353 2 186.506C2.3317 156.754 11.7853 111.968 39.0226 74.2147C66.2253 36.509 111.202 5.76086 182.748 4.0275C254.298 5.77115 300.281 37.5113 328.488 76.2261C356.728 114.986 367.168 160.77 367.5 190.506C367.497 280.466 308.183 335.373 280.719 360.797C276.574 364.634 273.155 367.799 270.774 370.312C270.426 370.68 269.857 371.177 269.116 371.825C268.878 372.032 268.623 372.255 268.352 372.494C267.267 373.452 265.988 374.614 264.767 375.924C262.524 378.331 260.311 381.407 260.03 384.784C259.693 384.834 259.222 384.881 258.613 384.926C257.15 385.032 255.013 385.109 252.347 385.16C247.022 385.264 239.647 385.266 231.464 385.212C217.304 385.119 200.752 384.856 188.27 384.659Z" fill="url(#paint0_linear_3_8)" stroke="white" stroke-width="2"/>
<g filter="url(#filter0_d_3_8)">
<circle cx="185" cy="184" r="170" fill="url(#paint1_linear_3_8)"/>
<circle cx="185" cy="184" r="170" fill="url(#paint2_radial_3_8)" fill-opacity="0.4"/>
<circle cx="185" cy="184" r="170" fill="url(#paint3_linear_3_8)" fill-opacity="0.1"/>
</g>
</g>
<defs>
<filter id="filter0_d_3_8" x="-18" y="-14" width="396" height="396" filterUnits="userSpaceOnUse" color-interpolation-filters="sRGB">
<feFlood flood-opacity="0" result="BackgroundImageFix"/>
<feColorMatrix in="SourceAlpha" type="matrix" values="0 0 0 0 0 0 0 0 0 0 0 0 0 0 0 0 0 0 127 0" result="hardAlpha"/>
<feMorphology radius="9" operator="dilate" in="SourceAlpha" result="effect1_dropShadow_3_8"/>
<feOffset dx="-5"/>
<feGaussianBlur stdDeviation="9.5"/>
<feComposite in2="hardAlpha" operator="out"/>
<feColorMatrix type="matrix" values="0 0 0 0 0 0 0 0 0 0 0 0 0 0 0 0 0 0 0.25 0"/>
<feBlend mode="normal" in2="BackgroundImageFix" result="effect1_dropShadow_3_8"/>
<feBlend mode="normal" in="SourceGraphic" in2="effect1_dropShadow_3_8" result="shape"/>
</filter>
<linearGradient id="paint0_linear_3_8" x1="184.75" y1="3" x2="184.75" y2="386.247" gradientUnits="userSpaceOnUse">
<stop stop-color="#F7EDD8"/>
<stop offset="1" stop-color="#F4EDDF"/>
</linearGradient>
<linearGradient id="paint1_linear_3_8" x1="68.5" y1="71" x2="291" y2="337.5" gradientUnits="userSpaceOnUse">
<stop offset="0.195" stop-color="#B82F2F"/>
<stop offset="1" stop-color="#F9E316"/>
</linearGradient>
<radialGradient id="paint2_radial_3_8" cx="0" cy="0" r="1" gradientUnits="userSpaceOnUse" gradientTransform="translate(244 79.5) rotate(147.103) scale(180.434 95.9396)">
<stop offset="0.129077" stop-color="white"/>
<stop offset="0.9999" stop-color="white" stop-opacity="0"/>
</radialGradient>
<linearGradient id="paint3_linear_3_8" x1="79" y1="59" x2="302.5" y2="310" gradientUnits="userSpaceOnUse">
<stop offset="0.02" stop-color="#953136"/>
<stop offset="1" stop-color="#F9E316"/>
</linearGradient>
<clipPath id="clip0_3_8">
<rect width="373" height="390" fill="white"/>
</clipPath>
</defs>
</svg>
