<svg width="82" height="94" viewBox="0 0 82 94" fill="none" xmlns="http://www.w3.org/2000/svg">
<path d="M78.7844 69.1933V25.54L41.0001 3.7168L3.21582 25.54V69.1933L41.0001 91.0165L78.7844 69.1933Z" fill="url(#paint0_linear_11070_30427)"/>
<mask id="mask0_11070_30427" style="mask-type:alpha" maskUnits="userSpaceOnUse" x="3" y="3" width="76" height="88">
<path d="M78.7849 69.161V25.6914L41.0006 3.86816L3.21631 25.6914V69.161L41.0006 90.9842L78.7849 69.161Z" fill="url(#paint1_linear_11070_30427)"/>
</mask>
<g mask="url(#mask0_11070_30427)">
<path fill-rule="evenodd" clip-rule="evenodd" d="M96.1787 155.522C87.7794 167.957 68.3645 167.434 53.392 166.318C40.6254 165.367 31.2532 155.071 19.5815 149.815C9.24751 145.161 -3.90864 145.834 -11.2528 137.206C-18.6548 128.511 -20.1488 115.9 -18.9529 104.547C-17.8682 94.2496 -7.90125 87.4429 -4.96471 77.5131C-0.991743 64.0787 -10.4505 44.7431 1.08658 36.7846C12.238 29.0921 26.0996 46.5777 39.6492 46.7374C54.0415 46.907 68.3186 30.8903 80.9824 37.7261C93.2239 44.3339 92.4109 62.5597 94.4415 76.3138C96.1079 87.6017 91.3623 98.3239 91.6125 109.731C91.9558 125.384 104.944 142.545 96.1787 155.522Z" fill="#243886"/>
</g>
<path fill-rule="evenodd" clip-rule="evenodd" d="M60.4254 40.584C60.4254 46.3836 57.5923 51.5242 53.236 54.7043L50.0094 51.4883L46.413 64.8771L59.8333 61.2891L56.6097 58.0701C61.8073 54.0058 65.1479 47.6845 65.1479 40.584C65.1479 28.3163 55.1828 18.374 42.8886 18.374C34.263 18.374 26.7883 23.2653 23.1528 30.2609C24.9135 30.4649 26.6801 30.6028 28.4586 30.6358C31.6255 26.077 36.907 23.0885 42.8886 23.0885C52.5719 23.0885 60.4254 30.9205 60.4254 40.584ZM48.7805 29.9974C48.6724 30.39 48.9099 30.7979 49.3034 30.9028L49.6343 30.9895L40.7776 36.0912C40.426 36.2951 40.3025 36.7449 40.507 37.0986C40.7078 37.4493 41.1616 37.5725 41.5132 37.3685L50.3728 32.2668L50.2824 32.5963C50.1772 32.9924 50.4118 33.3968 50.8083 33.5017C51.2018 33.6066 51.6106 33.3726 51.7158 32.9771L52.2659 30.927C52.371 30.5344 52.1365 30.1295 51.743 30.0216L49.688 29.4728C49.291 29.3679 48.8857 29.6019 48.7805 29.9974ZM40.4042 46.1472C40.4042 46.5551 40.7374 46.8846 41.1462 46.8846H57.4032C57.8121 46.8846 58.1453 46.5551 58.1453 46.1472C58.1453 45.7364 57.8121 45.4069 57.4032 45.4069H41.1462C40.7374 45.4069 40.4042 45.7364 40.4042 46.1472ZM50.6162 37.3049V43.9262H47.9332V37.3049H50.6162ZM45.3288 39.5713V43.9262H42.6428V39.5713H45.3288ZM55.9072 33.741V43.9262H53.2212V33.741H55.9072ZM37.7454 40.8239C38.7339 40.8239 39.5421 41.6303 39.5421 42.6164C39.5421 43.5996 38.7339 44.406 37.7454 44.406H20.8007C19.8152 44.406 19.0069 43.6026 19.0069 42.6164C19.0069 41.6303 19.8152 40.8239 20.8007 40.8239H37.7454ZM20.1425 45.8201C16.4137 50.3612 14.458 55.9003 14.2778 62.4344H14.279C14.2364 63.8939 15.0211 65.1647 16.3428 65.7884C24.6831 69.7147 33.8671 69.7147 42.2044 65.7884C43.5291 65.1647 44.3132 63.8939 44.2712 62.4344C44.088 55.9003 42.1318 50.3612 38.4065 45.8201C38.1932 45.862 37.9734 45.8861 37.7454 45.8861H20.8007C20.575 45.8861 20.3558 45.862 20.1425 45.8201ZM20.1395 31.3526L23.258 39.3432H35.2904L38.4089 31.3526C31.5351 32.3835 27.0104 32.3835 20.1395 31.3526ZM38.5773 56.9944C38.5773 51.8691 34.413 47.7146 29.2727 47.7146C24.1354 47.7146 19.9711 51.8661 19.9711 56.9944C19.9711 62.1226 24.1324 66.277 29.2727 66.277C34.413 66.277 38.5773 62.1196 38.5773 56.9944ZM36.7622 57.145C36.7622 61.2278 33.3902 64.5176 29.2053 64.5176C25.0204 64.5176 21.6484 61.1849 21.6484 57.145C21.6484 53.0622 25.0204 49.7725 29.2053 49.7725C33.3902 49.7725 36.7622 53.0622 36.7622 57.145ZM28.4364 53.1028V53.1051L28.4393 53.1023C28.4384 53.1024 28.4374 53.1026 28.4364 53.1028ZM28.4364 52.229V53.1028C27.1555 53.3131 26.2619 54.4804 26.432 55.7278C26.5611 56.9331 27.6705 57.8923 28.994 57.8923H29.6338C29.848 57.8923 30.1033 58.0183 30.2735 58.1843C30.4437 58.3504 30.5318 58.6023 30.4878 58.8514C30.4467 59.3095 30.0182 59.6417 29.5487 59.6417H28.6947C28.4393 59.6417 28.184 59.4326 28.14 59.1836C28.096 59.0576 27.9698 58.9745 27.8407 58.9745H26.8575C26.7724 58.9745 26.6873 59.0146 26.6433 59.0576C26.5582 59.1005 26.5582 59.1836 26.5582 59.2666C26.6433 60.2658 27.4562 61.016 28.4804 61.1419V62.018C28.4804 62.1841 28.6096 62.3101 28.7798 62.3101H29.7629C29.9331 62.3101 30.0622 62.1841 30.0622 62.018V61.1018C31.1716 60.8528 32.0256 60.0196 32.1107 58.9774C32.1547 58.3103 31.9404 57.6461 31.4709 57.145C31.0013 56.6468 30.3176 56.3548 29.6338 56.3548H28.8649C28.6506 56.3548 28.3953 56.2288 28.2251 56.0627C28.0549 55.8967 27.9669 55.6447 28.0109 55.3956C28.052 54.9375 28.4804 54.6054 28.95 54.6054H29.804C30.0593 54.6054 30.3146 54.8144 30.3586 55.0635C30.4027 55.1895 30.5289 55.2725 30.658 55.2725H31.6411C31.7262 55.2725 31.8113 55.2324 31.8553 55.1895C31.9404 55.1465 31.9404 55.0635 31.9404 54.9805C31.8553 53.9813 31.0424 53.2311 30.0182 53.1051V52.229C30.0182 52.063 29.8891 51.937 29.7189 51.937H28.7358C28.5655 51.937 28.4364 52.063 28.4364 52.229Z" fill="url(#paint2_linear_11070_30427)"/>
<path d="M40.9999 1.2745L80.6274 24.1382V69.8618L40.9999 92.7255L1.37248 69.8618V24.1382L40.9999 1.2745ZM40.9999 0L0.266602 23.5009V70.4991L40.9999 94L81.7333 70.4991V23.5009L40.9999 0Z" fill="url(#paint3_linear_11070_30427)"/>
<path fill-rule="evenodd" clip-rule="evenodd" d="M29.0195 86.9649L38.4195 92.306L78.7842 69.1851V58.2334L29.0195 86.9649Z" fill="url(#paint4_linear_11070_30427)"/>
<path d="M0.266602 49.5498V70.498L40.9999 93.9953L59.1548 83.523L0.266602 49.5498Z" fill="url(#paint5_linear_11070_30427)"/>
<path d="M11.5199 72.8158L12.4099 71.2801L16.4981 70.1254C17.3033 69.8963 17.9204 69.7066 18.3495 69.5561C18.7921 69.4021 19.1197 69.2498 19.3322 69.0994C19.5533 68.9539 19.7207 68.783 19.8344 68.5868C20.0371 68.237 20.0801 67.8973 19.9634 67.5677C19.8602 67.2345 19.6378 66.9692 19.2964 66.7716C18.9465 66.5691 18.5756 66.4913 18.1839 66.538C17.797 66.5762 17.4209 66.763 17.0556 67.0984L15.6535 65.5353C16.0427 65.0997 16.5058 64.7923 17.0427 64.6131C17.5797 64.4339 18.1354 64.3795 18.71 64.45C19.2896 64.5119 19.8312 64.6886 20.3347 64.9799C20.9663 65.3454 21.4568 65.7773 21.8062 66.2757C22.1556 66.7741 22.3465 67.3004 22.3787 67.8545C22.4109 68.4086 22.2712 68.9544 21.9597 69.4919C21.762 69.8332 21.5069 70.1356 21.1946 70.3992C20.8872 70.6543 20.5109 70.8808 20.0656 71.0789C19.6338 71.2733 19.1122 71.4557 18.5006 71.6259L15.0061 72.6115L18.9493 74.8932L17.9852 76.5569L11.5199 72.8158ZM22.2965 79.2567C21.7929 78.9653 21.3608 78.5899 21.0001 78.1306C20.6444 77.6627 20.4015 77.1576 20.2713 76.6152C20.1461 76.0642 20.1757 75.5117 20.3601 74.9576L22.4552 75.3838C22.3459 75.8674 22.3776 76.2846 22.5505 76.6352C22.7234 76.9859 22.9848 77.2625 23.3348 77.465C23.6335 77.6379 23.9284 77.7288 24.2195 77.7377C24.5156 77.7382 24.7877 77.662 25.0357 77.5093C25.2972 77.3531 25.5145 77.1256 25.6876 76.827C25.8606 76.5284 25.9474 76.2311 25.9479 75.9352C25.957 75.6442 25.8852 75.3748 25.7325 75.127C25.5847 74.8706 25.3615 74.656 25.0628 74.4831C24.7555 74.3053 24.4428 74.2155 24.1248 74.2138C23.8116 74.2035 23.5204 74.3027 23.2513 74.5115L21.8478 73.1868L25.7086 68.2946L31.0345 71.3763L30.0704 73.0401L25.5511 70.425L26.8127 69.9588L23.9888 73.6224L23.7255 72.8377C24.1416 72.6114 24.5587 72.511 24.977 72.5366C25.4038 72.5671 25.8775 72.733 26.3982 73.0342C27.0383 73.4046 27.5097 73.8597 27.8124 74.3994C28.12 74.9306 28.2616 75.5024 28.2372 76.1149C28.2213 76.7323 28.0329 77.3524 27.672 77.9753C27.311 78.5981 26.8311 79.0723 26.2321 79.3979C25.6466 79.7199 25.0095 79.8753 24.3208 79.8641C23.637 79.8444 22.9622 79.6419 22.2965 79.2567ZM27.1769 81.8757L32.7911 72.1877L34.7115 73.299L31.1146 79.5059L30.5311 78.8607L35.5151 77.3698L37.8836 78.7403L33.7171 80.089L33.8215 85.7205L31.645 84.4611L31.5869 79.6938L32.8639 80.0567L29.3761 81.1488L30.6102 80.3761L29.0973 82.9869L27.1769 81.8757Z" fill="white"/>
<path d="M11.6941 28.0273L11.9861 30.6824L14.6432 30.9742L11.9861 31.2659L11.6941 33.921L11.4022 31.2659L8.74512 30.9742L11.4022 30.6824L11.6941 28.0273Z" fill="white"/>
<ellipse cx="73.2548" cy="47.9193" rx="0.737255" ry="0.736706" fill="white"/>
<defs>
<linearGradient id="paint0_linear_11070_30427" x1="10.5884" y1="6.29527" x2="80.3532" y2="74.1914" gradientUnits="userSpaceOnUse">
<stop stop-color="#264794"/>
<stop offset="1" stop-color="#131660"/>
</linearGradient>
<linearGradient id="paint1_linear_11070_30427" x1="5.95182" y1="-2.84793" x2="80.3496" y2="51.6832" gradientUnits="userSpaceOnUse">
<stop stop-color="#772277"/>
<stop offset="1" stop-color="#601360"/>
</linearGradient>
<linearGradient id="paint2_linear_11070_30427" x1="14.2773" y1="18.374" x2="65.4428" y2="47.7025" gradientUnits="userSpaceOnUse">
<stop stop-color="white"/>
<stop offset="1" stop-color="#C4C4C4"/>
</linearGradient>
<linearGradient id="paint3_linear_11070_30427" x1="8.92934" y1="17.1615" x2="78.3732" y2="75.0438" gradientUnits="userSpaceOnUse">
<stop stop-color="#283E8E"/>
<stop offset="1" stop-color="#00E7F6"/>
</linearGradient>
<linearGradient id="paint4_linear_11070_30427" x1="26.6701" y1="85.852" x2="79.2961" y2="56.2178" gradientUnits="userSpaceOnUse">
<stop stop-color="#24589F"/>
<stop offset="1" stop-color="#06D7EC"/>
</linearGradient>
<linearGradient id="paint5_linear_11070_30427" x1="0.266602" y1="57.1268" x2="52.223" y2="87.9182" gradientUnits="userSpaceOnUse">
<stop stop-color="#23579E"/>
<stop offset="1" stop-color="#05D6EB"/>
</linearGradient>
</defs>
</svg>
