<svg width="553" height="192" viewBox="0 0 553 192" fill="none" xmlns="http://www.w3.org/2000/svg">
<line x1="553" y1="109.5" x2="59" y2="109.5" stroke="#F2EEF9" stroke-opacity="0.12"/>
<line x1="553" y1="59.5" x2="59" y2="59.5" stroke="#F2EEF9" stroke-opacity="0.08"/>
<line x1="553" y1="160.5" x2="59" y2="160.5" stroke="#F2EEF9" stroke-opacity="0.08"/>
<line x1="553" y1="8.5" x2="59" y2="8.5" stroke="#F2EEF9" stroke-opacity="0.08"/>
<path d="M4.068 13.144C3.5 13.144 2.98 13.04 2.508 12.832C2.036 12.616 1.636 12.324 1.308 11.956C0.98 11.588 0.744 11.176 0.6 10.72L1.62 10.3C1.836 10.876 2.156 11.32 2.58 11.632C3.012 11.936 3.516 12.088 4.092 12.088C4.444 12.088 4.752 12.032 5.016 11.92C5.28 11.808 5.484 11.652 5.628 11.452C5.78 11.244 5.856 11.004 5.856 10.732C5.856 10.356 5.748 10.06 5.532 9.844C5.324 9.62 5.016 9.452 4.608 9.34L2.964 8.836C2.316 8.636 1.82 8.32 1.476 7.888C1.132 7.456 0.96 6.96 0.96 6.4C0.96 5.912 1.076 5.484 1.308 5.116C1.548 4.74 1.876 4.448 2.292 4.24C2.716 4.024 3.196 3.916 3.732 3.916C4.268 3.916 4.752 4.012 5.184 4.204C5.624 4.396 5.996 4.656 6.3 4.984C6.604 5.304 6.828 5.672 6.972 6.088L5.964 6.508C5.772 6.004 5.484 5.624 5.1 5.368C4.716 5.104 4.264 4.972 3.744 4.972C3.424 4.972 3.14 5.028 2.892 5.14C2.652 5.244 2.464 5.4 2.328 5.608C2.2 5.808 2.136 6.048 2.136 6.328C2.136 6.656 2.24 6.948 2.448 7.204C2.656 7.46 2.972 7.656 3.396 7.792L4.896 8.236C5.6 8.452 6.132 8.76 6.492 9.16C6.852 9.56 7.032 10.056 7.032 10.648C7.032 11.136 6.904 11.568 6.648 11.944C6.4 12.32 6.052 12.616 5.604 12.832C5.164 13.04 4.652 13.144 4.068 13.144ZM3.528 14.2V2.86H4.428V14.2H3.528ZM10.48 13V12.184L12.952 9.508C13.44 8.988 13.828 8.56 14.116 8.224C14.412 7.888 14.628 7.588 14.764 7.324C14.9 7.06 14.968 6.78 14.968 6.484C14.968 5.996 14.824 5.62 14.536 5.356C14.248 5.092 13.868 4.96 13.396 4.96C12.916 4.96 12.508 5.1 12.172 5.38C11.836 5.652 11.604 6.04 11.476 6.544L10.408 6.268C10.512 5.788 10.704 5.372 10.984 5.02C11.264 4.668 11.612 4.396 12.028 4.204C12.444 4.012 12.9 3.916 13.396 3.916C13.94 3.916 14.416 4.024 14.824 4.24C15.24 4.448 15.564 4.74 15.796 5.116C16.036 5.492 16.156 5.928 16.156 6.424C16.156 6.752 16.088 7.072 15.952 7.384C15.816 7.696 15.616 8.028 15.352 8.38C15.088 8.724 14.744 9.124 14.32 9.58L12.112 11.98H16.348V13H10.48ZM21.3716 13.144C20.6596 13.144 20.0356 12.952 19.4996 12.568C18.9716 12.176 18.5596 11.636 18.2636 10.948C17.9676 10.252 17.8196 9.444 17.8196 8.524C17.8196 7.604 17.9676 6.8 18.2636 6.112C18.5596 5.416 18.9716 4.876 19.4996 4.492C20.0276 4.108 20.6476 3.916 21.3596 3.916C22.0716 3.916 22.6916 4.108 23.2196 4.492C23.7476 4.876 24.1596 5.416 24.4556 6.112C24.7596 6.8 24.9116 7.604 24.9116 8.524C24.9116 9.444 24.7636 10.252 24.4676 10.948C24.1716 11.644 23.7556 12.184 23.2196 12.568C22.6916 12.952 22.0756 13.144 21.3716 13.144ZM21.3716 12.052C21.8516 12.052 22.2676 11.908 22.6196 11.62C22.9716 11.324 23.2436 10.912 23.4356 10.384C23.6356 9.856 23.7356 9.236 23.7356 8.524C23.7356 7.812 23.6356 7.192 23.4356 6.664C23.2436 6.136 22.9676 5.728 22.6076 5.44C22.2556 5.152 21.8396 5.008 21.3596 5.008C20.8796 5.008 20.4636 5.152 20.1116 5.44C19.7596 5.728 19.4836 6.136 19.2836 6.664C19.0916 7.192 18.9956 7.812 18.9956 8.524C18.9956 9.228 19.0916 9.844 19.2836 10.372C19.4836 10.9 19.7596 11.312 20.1116 11.608C20.4716 11.904 20.8916 12.052 21.3716 12.052ZM26.5632 13V3.916H27.6792V10.144L27.2232 10.036L30.6552 6.532H32.0832L29.5992 9.136L32.2512 13H30.9312L28.5072 9.496L29.2032 9.46L27.3192 11.428L27.6792 10.612V13H26.5632Z" fill="#F2EEF9" fill-opacity="0.6"/>
<path d="M4.068 63.8107C3.5 63.8107 2.98 63.7067 2.508 63.4987C2.036 63.2827 1.636 62.9907 1.308 62.6227C0.98 62.2547 0.744 61.8427 0.6 61.3867L1.62 60.9667C1.836 61.5427 2.156 61.9867 2.58 62.2987C3.012 62.6027 3.516 62.7547 4.092 62.7547C4.444 62.7547 4.752 62.6987 5.016 62.5867C5.28 62.4747 5.484 62.3187 5.628 62.1187C5.78 61.9107 5.856 61.6707 5.856 61.3987C5.856 61.0227 5.748 60.7267 5.532 60.5107C5.324 60.2867 5.016 60.1187 4.608 60.0067L2.964 59.5027C2.316 59.3027 1.82 58.9867 1.476 58.5547C1.132 58.1227 0.96 57.6267 0.96 57.0667C0.96 56.5787 1.076 56.1507 1.308 55.7827C1.548 55.4067 1.876 55.1147 2.292 54.9067C2.716 54.6907 3.196 54.5827 3.732 54.5827C4.268 54.5827 4.752 54.6787 5.184 54.8707C5.624 55.0627 5.996 55.3227 6.3 55.6507C6.604 55.9707 6.828 56.3387 6.972 56.7547L5.964 57.1747C5.772 56.6707 5.484 56.2907 5.1 56.0347C4.716 55.7707 4.264 55.6387 3.744 55.6387C3.424 55.6387 3.14 55.6947 2.892 55.8067C2.652 55.9107 2.464 56.0667 2.328 56.2747C2.2 56.4747 2.136 56.7147 2.136 56.9947C2.136 57.3227 2.24 57.6147 2.448 57.8707C2.656 58.1267 2.972 58.3227 3.396 58.4587L4.896 58.9027C5.6 59.1187 6.132 59.4267 6.492 59.8267C6.852 60.2267 7.032 60.7227 7.032 61.3147C7.032 61.8027 6.904 62.2347 6.648 62.6107C6.4 62.9867 6.052 63.2827 5.604 63.4987C5.164 63.7067 4.652 63.8107 4.068 63.8107ZM3.528 64.8667V53.5267H4.428V64.8667H3.528ZM9.89381 63.6667V55.7467H8.20181V54.7267H11.0818V63.6667H9.89381ZM16.6958 63.8107C15.9838 63.8107 15.3598 63.6187 14.8238 63.2347C14.2958 62.8427 13.8838 62.3027 13.5878 61.6147C13.2918 60.9187 13.1438 60.1107 13.1438 59.1907C13.1438 58.2707 13.2918 57.4667 13.5878 56.7787C13.8838 56.0827 14.2958 55.5427 14.8238 55.1587C15.3518 54.7747 15.9718 54.5827 16.6838 54.5827C17.3958 54.5827 18.0158 54.7747 18.5438 55.1587C19.0718 55.5427 19.4838 56.0827 19.7798 56.7787C20.0838 57.4667 20.2358 58.2707 20.2358 59.1907C20.2358 60.1107 20.0878 60.9187 19.7918 61.6147C19.4958 62.3107 19.0798 62.8507 18.5438 63.2347C18.0158 63.6187 17.3998 63.8107 16.6958 63.8107ZM16.6958 62.7187C17.1758 62.7187 17.5918 62.5747 17.9438 62.2867C18.2958 61.9907 18.5678 61.5787 18.7598 61.0507C18.9598 60.5227 19.0598 59.9027 19.0598 59.1907C19.0598 58.4787 18.9598 57.8587 18.7598 57.3307C18.5678 56.8027 18.2918 56.3947 17.9318 56.1067C17.5798 55.8187 17.1638 55.6747 16.6838 55.6747C16.2038 55.6747 15.7878 55.8187 15.4358 56.1067C15.0838 56.3947 14.8078 56.8027 14.6078 57.3307C14.4158 57.8587 14.3198 58.4787 14.3198 59.1907C14.3198 59.8947 14.4158 60.5107 14.6078 61.0387C14.8078 61.5667 15.0838 61.9787 15.4358 62.2747C15.7958 62.5707 16.2158 62.7187 16.6958 62.7187ZM21.8874 63.6667V54.5827H23.0034V60.8107L22.5474 60.7027L25.9794 57.1987H27.4074L24.9234 59.8027L27.5754 63.6667H26.2554L23.8314 60.1627L24.5274 60.1267L22.6434 62.0947L23.0034 61.2787V63.6667H21.8874Z" fill="#F2EEF9" fill-opacity="0.6"/>
<path d="M4.356 114.477C3.644 114.477 3.02 114.285 2.484 113.901C1.956 113.509 1.544 112.969 1.248 112.281C0.952 111.585 0.804 110.777 0.804 109.857C0.804 108.937 0.952 108.133 1.248 107.445C1.544 106.749 1.956 106.209 2.484 105.825C3.012 105.441 3.632 105.249 4.344 105.249C5.056 105.249 5.676 105.441 6.204 105.825C6.732 106.209 7.144 106.749 7.44 107.445C7.744 108.133 7.896 108.937 7.896 109.857C7.896 110.777 7.748 111.585 7.452 112.281C7.156 112.977 6.74 113.517 6.204 113.901C5.676 114.285 5.06 114.477 4.356 114.477ZM4.356 113.385C4.836 113.385 5.252 113.241 5.604 112.953C5.956 112.657 6.228 112.245 6.42 111.717C6.62 111.189 6.72 110.569 6.72 109.857C6.72 109.145 6.62 108.525 6.42 107.997C6.228 107.469 5.952 107.061 5.592 106.773C5.24 106.485 4.824 106.341 4.344 106.341C3.864 106.341 3.448 106.485 3.096 106.773C2.744 107.061 2.468 107.469 2.268 107.997C2.076 108.525 1.98 109.145 1.98 109.857C1.98 110.561 2.076 111.177 2.268 111.705C2.468 112.233 2.744 112.645 3.096 112.941C3.456 113.237 3.876 113.385 4.356 113.385Z" fill="#F2EEF9" fill-opacity="0.6"/>
<path d="M4.068 165.144C3.5 165.144 2.98 165.04 2.508 164.832C2.036 164.616 1.636 164.324 1.308 163.956C0.98 163.588 0.744 163.176 0.6 162.72L1.62 162.3C1.836 162.876 2.156 163.32 2.58 163.632C3.012 163.936 3.516 164.088 4.092 164.088C4.444 164.088 4.752 164.032 5.016 163.92C5.28 163.808 5.484 163.652 5.628 163.452C5.78 163.244 5.856 163.004 5.856 162.732C5.856 162.356 5.748 162.06 5.532 161.844C5.324 161.62 5.016 161.452 4.608 161.34L2.964 160.836C2.316 160.636 1.82 160.32 1.476 159.888C1.132 159.456 0.96 158.96 0.96 158.4C0.96 157.912 1.076 157.484 1.308 157.116C1.548 156.74 1.876 156.448 2.292 156.24C2.716 156.024 3.196 155.916 3.732 155.916C4.268 155.916 4.752 156.012 5.184 156.204C5.624 156.396 5.996 156.656 6.3 156.984C6.604 157.304 6.828 157.672 6.972 158.088L5.964 158.508C5.772 158.004 5.484 157.624 5.1 157.368C4.716 157.104 4.264 156.972 3.744 156.972C3.424 156.972 3.14 157.028 2.892 157.14C2.652 157.244 2.464 157.4 2.328 157.608C2.2 157.808 2.136 158.048 2.136 158.328C2.136 158.656 2.24 158.948 2.448 159.204C2.656 159.46 2.972 159.656 3.396 159.792L4.896 160.236C5.6 160.452 6.132 160.76 6.492 161.16C6.852 161.56 7.032 162.056 7.032 162.648C7.032 163.136 6.904 163.568 6.648 163.944C6.4 164.32 6.052 164.616 5.604 164.832C5.164 165.04 4.652 165.144 4.068 165.144ZM3.528 166.2V154.86H4.428V166.2H3.528ZM10.78 162.276V161.256H15.28V162.276H10.78ZM18.3548 165V157.08H16.6628V156.06H19.5428V165H18.3548ZM25.1568 165.144C24.4448 165.144 23.8208 164.952 23.2848 164.568C22.7568 164.176 22.3448 163.636 22.0488 162.948C21.7528 162.252 21.6048 161.444 21.6048 160.524C21.6048 159.604 21.7528 158.8 22.0488 158.112C22.3448 157.416 22.7568 156.876 23.2848 156.492C23.8128 156.108 24.4328 155.916 25.1448 155.916C25.8568 155.916 26.4768 156.108 27.0048 156.492C27.5328 156.876 27.9448 157.416 28.2408 158.112C28.5448 158.8 28.6968 159.604 28.6968 160.524C28.6968 161.444 28.5488 162.252 28.2528 162.948C27.9568 163.644 27.5408 164.184 27.0048 164.568C26.4768 164.952 25.8608 165.144 25.1568 165.144ZM25.1568 164.052C25.6368 164.052 26.0528 163.908 26.4048 163.62C26.7568 163.324 27.0288 162.912 27.2208 162.384C27.4208 161.856 27.5208 161.236 27.5208 160.524C27.5208 159.812 27.4208 159.192 27.2208 158.664C27.0288 158.136 26.7528 157.728 26.3928 157.44C26.0408 157.152 25.6248 157.008 25.1448 157.008C24.6648 157.008 24.2488 157.152 23.8968 157.44C23.5448 157.728 23.2688 158.136 23.0688 158.664C22.8768 159.192 22.7808 159.812 22.7808 160.524C22.7808 161.228 22.8768 161.844 23.0688 162.372C23.2688 162.9 23.5448 163.312 23.8968 163.608C24.2568 163.904 24.6768 164.052 25.1568 164.052ZM30.3484 165V155.916H31.4644V162.144L31.0084 162.036L34.4404 158.532H35.8684L33.3844 161.136L36.0364 165H34.7164L32.2924 161.496L32.9884 161.46L31.1044 163.428L31.4644 162.612V165H30.3484Z" fill="#F2EEF9" fill-opacity="0.6"/>
<path d="M77.996 181V172.06H79.076L82.424 176.824H81.872L85.196 172.06H86.276V181H85.088V173.548L85.508 173.68L82.184 178.36H82.088L78.8 173.68L79.172 173.548V181H77.996ZM91.2016 181.144C90.5776 181.144 90.0136 181 89.5096 180.712C89.0056 180.416 88.6056 180.012 88.3096 179.5C88.0136 178.988 87.8656 178.408 87.8656 177.76C87.8656 177.112 88.0096 176.536 88.2976 176.032C88.5936 175.528 88.9936 175.128 89.4976 174.832C90.0016 174.536 90.5696 174.388 91.2016 174.388C91.8256 174.388 92.3896 174.536 92.8936 174.832C93.3976 175.12 93.7936 175.516 94.0816 176.02C94.3776 176.524 94.5256 177.104 94.5256 177.76C94.5256 178.416 94.3736 179 94.0696 179.512C93.7656 180.016 93.3616 180.416 92.8576 180.712C92.3616 181 91.8096 181.144 91.2016 181.144ZM91.2016 180.064C91.6016 180.064 91.9616 179.964 92.2816 179.764C92.6096 179.564 92.8656 179.288 93.0496 178.936C93.2416 178.584 93.3376 178.192 93.3376 177.76C93.3376 177.32 93.2416 176.932 93.0496 176.596C92.8656 176.252 92.6096 175.98 92.2816 175.78C91.9616 175.572 91.6016 175.468 91.2016 175.468C90.7936 175.468 90.4256 175.572 90.0976 175.78C89.7776 175.98 89.5216 176.252 89.3296 176.596C89.1376 176.932 89.0416 177.32 89.0416 177.76C89.0416 178.192 89.1376 178.584 89.3296 178.936C89.5216 179.288 89.7776 179.564 90.0976 179.764C90.4256 179.964 90.7936 180.064 91.2016 180.064ZM95.9812 181V174.532H97.0732V175.792L96.8932 175.684C97.0532 175.276 97.3092 174.96 97.6612 174.736C98.0212 174.504 98.4412 174.388 98.9212 174.388C99.3852 174.388 99.7972 174.492 100.157 174.7C100.525 174.908 100.813 175.196 101.021 175.564C101.237 175.932 101.345 176.348 101.345 176.812V181H100.217V177.172C100.217 176.812 100.153 176.508 100.025 176.26C99.8972 176.012 99.7132 175.82 99.4732 175.684C99.2412 175.54 98.9732 175.468 98.6692 175.468C98.3652 175.468 98.0932 175.54 97.8532 175.684C97.6212 175.82 97.4372 176.016 97.3012 176.272C97.1652 176.52 97.0972 176.82 97.0972 177.172V181H95.9812Z" fill="#F2EEF9" fill-opacity="0.6"/>
<g filter="url(#filter0_d_11070_29353)">
<path d="M84 84C84 81.7909 85.7909 80 88 80H128C130.209 80 132 81.7909 132 84V110H84V84Z" fill="url(#paint0_linear_11070_29353)"/>
</g>
<path d="M177.556 181V173.14H175.132V172.06H181.132V173.14H178.744V181H177.556ZM183.945 181.144C183.481 181.144 183.061 181.036 182.685 180.82C182.317 180.604 182.029 180.304 181.821 179.92C181.621 179.528 181.521 179.08 181.521 178.576V174.532H182.637V178.456C182.637 178.776 182.701 179.056 182.829 179.296C182.965 179.536 183.149 179.724 183.381 179.86C183.621 179.996 183.893 180.064 184.197 180.064C184.501 180.064 184.769 179.996 185.001 179.86C185.241 179.724 185.425 179.528 185.553 179.272C185.689 179.016 185.757 178.712 185.757 178.36V174.532H186.885V181H185.793V179.74L185.973 179.848C185.821 180.256 185.561 180.576 185.193 180.808C184.833 181.032 184.417 181.144 183.945 181.144ZM191.59 181.144C190.966 181.144 190.41 180.996 189.922 180.7C189.434 180.404 189.05 180 188.77 179.488C188.49 178.968 188.35 178.388 188.35 177.748C188.35 177.1 188.486 176.524 188.758 176.02C189.038 175.516 189.414 175.12 189.886 174.832C190.366 174.536 190.902 174.388 191.494 174.388C191.974 174.388 192.398 174.476 192.766 174.652C193.142 174.82 193.458 175.052 193.714 175.348C193.978 175.636 194.178 175.968 194.314 176.344C194.458 176.712 194.53 177.096 194.53 177.496C194.53 177.584 194.522 177.684 194.506 177.796C194.498 177.9 194.486 178 194.47 178.096H189.166V177.136H193.822L193.294 177.568C193.366 177.152 193.326 176.78 193.174 176.452C193.022 176.124 192.798 175.864 192.502 175.672C192.206 175.48 191.87 175.384 191.494 175.384C191.118 175.384 190.774 175.48 190.462 175.672C190.15 175.864 189.906 176.14 189.73 176.5C189.562 176.852 189.494 177.272 189.526 177.76C189.494 178.232 189.566 178.648 189.742 179.008C189.926 179.36 190.182 179.636 190.51 179.836C190.846 180.028 191.21 180.124 191.602 180.124C192.034 180.124 192.398 180.024 192.694 179.824C192.99 179.624 193.23 179.368 193.414 179.056L194.35 179.536C194.222 179.832 194.022 180.104 193.75 180.352C193.486 180.592 193.17 180.784 192.802 180.928C192.442 181.072 192.038 181.144 191.59 181.144Z" fill="#F2EEF9" fill-opacity="0.6"/>
<g filter="url(#filter1_d_11070_29353)">
<path d="M182 58C182 55.7909 183.791 54 186 54H226C228.209 54 230 55.7909 230 58V110H182V58Z" fill="url(#paint1_linear_11070_29353)"/>
</g>
<path d="M274.64 181L272.132 172.06H273.368L275.468 179.932H275.18L277.364 172.06H278.6L280.772 179.932H280.472L282.584 172.06H283.82L281.312 181H280.004L277.82 173.164H278.132L275.948 181H274.64ZM287.348 181.144C286.724 181.144 286.168 180.996 285.68 180.7C285.192 180.404 284.808 180 284.528 179.488C284.248 178.968 284.108 178.388 284.108 177.748C284.108 177.1 284.244 176.524 284.516 176.02C284.796 175.516 285.172 175.12 285.644 174.832C286.124 174.536 286.66 174.388 287.252 174.388C287.732 174.388 288.156 174.476 288.524 174.652C288.9 174.82 289.216 175.052 289.472 175.348C289.736 175.636 289.936 175.968 290.072 176.344C290.216 176.712 290.288 177.096 290.288 177.496C290.288 177.584 290.28 177.684 290.264 177.796C290.256 177.9 290.244 178 290.228 178.096H284.924V177.136H289.58L289.052 177.568C289.124 177.152 289.084 176.78 288.932 176.452C288.78 176.124 288.556 175.864 288.26 175.672C287.964 175.48 287.628 175.384 287.252 175.384C286.876 175.384 286.532 175.48 286.22 175.672C285.908 175.864 285.664 176.14 285.488 176.5C285.32 176.852 285.252 177.272 285.284 177.76C285.252 178.232 285.324 178.648 285.5 179.008C285.684 179.36 285.94 179.636 286.268 179.836C286.604 180.028 286.968 180.124 287.36 180.124C287.792 180.124 288.156 180.024 288.452 179.824C288.748 179.624 288.988 179.368 289.172 179.056L290.108 179.536C289.98 179.832 289.78 180.104 289.508 180.352C289.244 180.592 288.928 180.784 288.56 180.928C288.2 181.072 287.796 181.144 287.348 181.144ZM294.683 181.144C294.075 181.144 293.527 180.996 293.039 180.7C292.559 180.404 292.179 180 291.899 179.488C291.619 178.976 291.479 178.404 291.479 177.772C291.479 177.124 291.619 176.548 291.899 176.044C292.179 175.532 292.559 175.128 293.039 174.832C293.527 174.536 294.075 174.388 294.683 174.388C295.219 174.388 295.695 174.504 296.111 174.736C296.527 174.96 296.855 175.264 297.095 175.648L296.915 175.924V171.916H298.043V181H296.951V179.62L297.095 179.812C296.871 180.236 296.543 180.564 296.111 180.796C295.687 181.028 295.211 181.144 294.683 181.144ZM294.779 180.064C295.187 180.064 295.551 179.964 295.871 179.764C296.191 179.564 296.443 179.292 296.627 178.948C296.819 178.596 296.915 178.204 296.915 177.772C296.915 177.332 296.819 176.94 296.627 176.596C296.443 176.244 296.191 175.968 295.871 175.768C295.551 175.568 295.187 175.468 294.779 175.468C294.379 175.468 294.015 175.572 293.687 175.78C293.367 175.98 293.115 176.252 292.931 176.596C292.747 176.932 292.655 177.324 292.655 177.772C292.655 178.204 292.747 178.596 292.931 178.948C293.115 179.292 293.367 179.564 293.687 179.764C294.007 179.964 294.371 180.064 294.779 180.064Z" fill="#F2EEF9" fill-opacity="0.6"/>
<g filter="url(#filter2_d_11070_29353)">
<path d="M279 44C279 41.7909 280.791 40 283 40H323C325.209 40 327 41.7909 327 44V110H279V44Z" fill="url(#paint2_linear_11070_29353)"/>
</g>
<path d="M372.556 181V173.14H370.132V172.06H376.132V173.14H373.744V181H372.556ZM377.134 181V171.916H378.25V175.792L378.046 175.684C378.206 175.276 378.462 174.96 378.814 174.736C379.174 174.504 379.594 174.388 380.074 174.388C380.538 174.388 380.95 174.492 381.31 174.7C381.678 174.908 381.966 175.196 382.174 175.564C382.39 175.932 382.498 176.348 382.498 176.812V181H381.37V177.172C381.37 176.812 381.302 176.508 381.166 176.26C381.038 176.012 380.858 175.82 380.626 175.684C380.394 175.54 380.126 175.468 379.822 175.468C379.526 175.468 379.258 175.54 379.018 175.684C378.778 175.82 378.59 176.016 378.454 176.272C378.318 176.52 378.25 176.82 378.25 177.172V181H377.134ZM386.386 181.144C385.922 181.144 385.502 181.036 385.126 180.82C384.758 180.604 384.47 180.304 384.262 179.92C384.062 179.528 383.962 179.08 383.962 178.576V174.532H385.078V178.456C385.078 178.776 385.142 179.056 385.27 179.296C385.406 179.536 385.59 179.724 385.822 179.86C386.062 179.996 386.334 180.064 386.638 180.064C386.942 180.064 387.21 179.996 387.442 179.86C387.682 179.724 387.866 179.528 387.994 179.272C388.13 179.016 388.198 178.712 388.198 178.36V174.532H389.326V181H388.234V179.74L388.414 179.848C388.262 180.256 388.002 180.576 387.634 180.808C387.274 181.032 386.858 181.144 386.386 181.144Z" fill="#F2EEF9" fill-opacity="0.6"/>
<g filter="url(#filter3_d_11070_29353)">
<path d="M377 33C377 30.7909 378.791 29 381 29H421C423.209 29 425 30.7909 425 33V109H377V33Z" fill="url(#paint3_linear_11070_29353)"/>
</g>
<path d="M467.996 181V172.06H473.66V173.14H469.172V176.032H473.24V177.112H469.172V181H467.996ZM474.497 181V174.532H475.589V175.72L475.469 175.552C475.621 175.184 475.853 174.912 476.165 174.736C476.477 174.552 476.857 174.46 477.305 174.46H477.701V175.516H477.137C476.681 175.516 476.313 175.66 476.033 175.948C475.753 176.228 475.613 176.628 475.613 177.148V181H474.497ZM478.692 181V174.532H479.808V181H478.692ZM478.692 173.5V172.06H479.808V173.5H478.692Z" fill="#F2EEF9" fill-opacity="0.6"/>
<path d="M157 168L157 2.66668" stroke="#F2EEF9" stroke-opacity="0.08" stroke-dasharray="2 2"/>
<path d="M254 168L254 2.66668" stroke="#F2EEF9" stroke-opacity="0.08" stroke-dasharray="2 2"/>
<path d="M352 168L352 2.66668" stroke="#F2EEF9" stroke-opacity="0.08" stroke-dasharray="2 2"/>
<line x1="448.5" y1="168" x2="448.5" y2="-2.91409e-08" stroke="#F2EEF9" stroke-opacity="0.08" stroke-dasharray="2 2"/>
<line x1="548.5" y1="168" x2="548.5" y2="-2.91409e-08" stroke="#F2EEF9" stroke-opacity="0.08" stroke-dasharray="2 2"/>
<g filter="url(#filter4_d_11070_29353)">
<path d="M474 14C474 11.7909 475.791 10 478 10H518C520.209 10 522 11.7909 522 14V109H474V14Z" fill="url(#paint4_linear_11070_29353)"/>
</g>
<defs>
<filter id="filter0_d_11070_29353" x="69" y="70" width="78" height="60" filterUnits="userSpaceOnUse" color-interpolation-filters="sRGB">
<feFlood flood-opacity="0" result="BackgroundImageFix"/>
<feColorMatrix in="SourceAlpha" type="matrix" values="0 0 0 0 0 0 0 0 0 0 0 0 0 0 0 0 0 0 127 0" result="hardAlpha"/>
<feOffset dy="5"/>
<feGaussianBlur stdDeviation="7.5"/>
<feColorMatrix type="matrix" values="0 0 0 0 0.647059 0 0 0 0 0.584314 0 0 0 0 0.972549 0 0 0 0.2 0"/>
<feBlend mode="normal" in2="BackgroundImageFix" result="effect1_dropShadow_11070_29353"/>
<feBlend mode="normal" in="SourceGraphic" in2="effect1_dropShadow_11070_29353" result="shape"/>
</filter>
<filter id="filter1_d_11070_29353" x="167" y="44" width="78" height="86" filterUnits="userSpaceOnUse" color-interpolation-filters="sRGB">
<feFlood flood-opacity="0" result="BackgroundImageFix"/>
<feColorMatrix in="SourceAlpha" type="matrix" values="0 0 0 0 0 0 0 0 0 0 0 0 0 0 0 0 0 0 127 0" result="hardAlpha"/>
<feOffset dy="5"/>
<feGaussianBlur stdDeviation="7.5"/>
<feColorMatrix type="matrix" values="0 0 0 0 0.647059 0 0 0 0 0.584314 0 0 0 0 0.972549 0 0 0 0.2 0"/>
<feBlend mode="normal" in2="BackgroundImageFix" result="effect1_dropShadow_11070_29353"/>
<feBlend mode="normal" in="SourceGraphic" in2="effect1_dropShadow_11070_29353" result="shape"/>
</filter>
<filter id="filter2_d_11070_29353" x="264" y="30" width="78" height="100" filterUnits="userSpaceOnUse" color-interpolation-filters="sRGB">
<feFlood flood-opacity="0" result="BackgroundImageFix"/>
<feColorMatrix in="SourceAlpha" type="matrix" values="0 0 0 0 0 0 0 0 0 0 0 0 0 0 0 0 0 0 127 0" result="hardAlpha"/>
<feOffset dy="5"/>
<feGaussianBlur stdDeviation="7.5"/>
<feColorMatrix type="matrix" values="0 0 0 0 0.647059 0 0 0 0 0.584314 0 0 0 0 0.972549 0 0 0 0.2 0"/>
<feBlend mode="normal" in2="BackgroundImageFix" result="effect1_dropShadow_11070_29353"/>
<feBlend mode="normal" in="SourceGraphic" in2="effect1_dropShadow_11070_29353" result="shape"/>
</filter>
<filter id="filter3_d_11070_29353" x="362" y="19" width="78" height="110" filterUnits="userSpaceOnUse" color-interpolation-filters="sRGB">
<feFlood flood-opacity="0" result="BackgroundImageFix"/>
<feColorMatrix in="SourceAlpha" type="matrix" values="0 0 0 0 0 0 0 0 0 0 0 0 0 0 0 0 0 0 127 0" result="hardAlpha"/>
<feOffset dy="5"/>
<feGaussianBlur stdDeviation="7.5"/>
<feColorMatrix type="matrix" values="0 0 0 0 0.647059 0 0 0 0 0.584314 0 0 0 0 0.972549 0 0 0 0.2 0"/>
<feBlend mode="normal" in2="BackgroundImageFix" result="effect1_dropShadow_11070_29353"/>
<feBlend mode="normal" in="SourceGraphic" in2="effect1_dropShadow_11070_29353" result="shape"/>
</filter>
<filter id="filter4_d_11070_29353" x="459" y="0" width="78" height="129" filterUnits="userSpaceOnUse" color-interpolation-filters="sRGB">
<feFlood flood-opacity="0" result="BackgroundImageFix"/>
<feColorMatrix in="SourceAlpha" type="matrix" values="0 0 0 0 0 0 0 0 0 0 0 0 0 0 0 0 0 0 127 0" result="hardAlpha"/>
<feOffset dy="5"/>
<feGaussianBlur stdDeviation="7.5"/>
<feColorMatrix type="matrix" values="0 0 0 0 0.647059 0 0 0 0 0.584314 0 0 0 0 0.972549 0 0 0 0.2 0"/>
<feBlend mode="normal" in2="BackgroundImageFix" result="effect1_dropShadow_11070_29353"/>
<feBlend mode="normal" in="SourceGraphic" in2="effect1_dropShadow_11070_29353" result="shape"/>
</filter>
<linearGradient id="paint0_linear_11070_29353" x1="84" y1="95" x2="132" y2="95" gradientUnits="userSpaceOnUse">
<stop stop-color="#C0B7F9"/>
<stop offset="1" stop-color="#A595F8"/>
</linearGradient>
<linearGradient id="paint1_linear_11070_29353" x1="182" y1="82" x2="230" y2="82" gradientUnits="userSpaceOnUse">
<stop stop-color="#C0B7F9"/>
<stop offset="1" stop-color="#A595F8"/>
</linearGradient>
<linearGradient id="paint2_linear_11070_29353" x1="279" y1="75" x2="327" y2="75" gradientUnits="userSpaceOnUse">
<stop stop-color="#C0B7F9"/>
<stop offset="1" stop-color="#A595F8"/>
</linearGradient>
<linearGradient id="paint3_linear_11070_29353" x1="377" y1="69" x2="425" y2="69" gradientUnits="userSpaceOnUse">
<stop stop-color="#C0B7F9"/>
<stop offset="1" stop-color="#A595F8"/>
</linearGradient>
<linearGradient id="paint4_linear_11070_29353" x1="474" y1="59.5" x2="522" y2="59.5" gradientUnits="userSpaceOnUse">
<stop stop-color="#C0B7F9"/>
<stop offset="1" stop-color="#A595F8"/>
</linearGradient>
</defs>
</svg>
