<svg width="62" height="61" viewBox="0 0 62 61" fill="none" xmlns="http://www.w3.org/2000/svg">
<path d="M16.9302 29.8134H23.184L20.1073 20.219L16.9302 29.8134ZM17.2479 14.6443H23.067L31.7957 39.0274H26.2107L24.6221 34.0151H15.5423L13.8367 39.0274H8.45228L17.2479 14.6443Z" fill="#E3C045"/>
<path d="M39.3037 20.9964V31.8646C39.3037 32.8902 39.4263 33.6622 39.6716 34.1805C40.1063 35.0959 40.9591 35.5535 42.23 35.5535C43.8576 35.5535 44.9723 34.9029 45.5743 33.6015C45.8865 32.8957 46.0425 31.9639 46.0425 30.8059V20.9964H50.8751V39.0274H46.2432V36.4799C46.1986 36.535 46.0871 36.7004 45.9088 36.9761C45.7304 37.2518 45.5186 37.4945 45.2733 37.704C44.5264 38.3657 43.8018 38.8178 43.0995 39.0604C42.4084 39.3031 41.5946 39.4244 40.6582 39.4244C37.9604 39.4244 36.1433 38.4649 35.2069 36.546C34.683 35.4874 34.421 33.9269 34.421 31.8646V20.9964H39.3037Z" fill="#E3C045"/>
<path fill-rule="evenodd" clip-rule="evenodd" d="M0.316406 0.323608H8.8635V1.67637H1.68385V59.3236H8.8635V60.6764H0.316406V0.323608Z" fill="#E3C045"/>
<path fill-rule="evenodd" clip-rule="evenodd" d="M60.3164 1.67637H53.1369V0.323608H61.6839V60.6764H53.1369V59.3236H60.3164V1.67637Z" fill="#E3C045"/>
</svg>
