<svg width="24" height="24" viewBox="0 0 24 24" fill="none" xmlns="http://www.w3.org/2000/svg">
<path d="M19.3741 15.103C20.0229 13.5613 20.1723 11.855 19.8011 10.224C19.43 8.59303 18.557 7.11938 17.305 6.01024C16.0529 4.9011 14.4847 4.21225 12.8209 4.04055C11.1571 3.86884 9.48124 4.22292 8.02906 5.05299L7.03706 3.31599C8.5547 2.4486 10.2733 1.99435 12.0213 1.99856C13.7693 2.00278 15.4856 2.4653 16.9991 3.33999C21.4891 5.93199 23.2091 11.482 21.1161 16.11L22.4581 16.884L18.2931 19.098L18.1281 14.384L19.3741 15.103ZM4.62406 8.89699C3.97521 10.4387 3.82585 12.145 4.19698 13.776C4.56811 15.4069 5.44108 16.8806 6.69314 17.9897C7.9452 19.0989 9.51338 19.7877 11.1772 19.9594C12.8411 20.1311 14.5169 19.7771 15.9691 18.947L16.9611 20.684C15.4434 21.5514 13.7249 22.0056 11.9769 22.0014C10.2288 21.9972 8.5125 21.5347 6.99906 20.66C2.50906 18.068 0.789062 12.518 2.88206 7.88999L1.53906 7.11699L5.70406 4.90299L5.86906 9.61699L4.62306 8.89799L4.62406 8.89699ZM8.49906 14H13.9991C14.1317 14 14.2588 13.9473 14.3526 13.8535C14.4464 13.7598 14.4991 13.6326 14.4991 13.5C14.4991 13.3674 14.4464 13.2402 14.3526 13.1464C14.2588 13.0527 14.1317 13 13.9991 13H9.99906C9.33602 13 8.70014 12.7366 8.2313 12.2678C7.76245 11.7989 7.49906 11.163 7.49906 10.5C7.49906 9.83694 7.76245 9.20106 8.2313 8.73222C8.70014 8.26338 9.33602 7.99999 9.99906 7.99999H10.9991V6.99999H12.9991V7.99999H15.4991V9.99999H9.99906C9.86645 9.99999 9.73928 10.0527 9.64551 10.1464C9.55174 10.2402 9.49906 10.3674 9.49906 10.5C9.49906 10.6326 9.55174 10.7598 9.64551 10.8535C9.73928 10.9473 9.86645 11 9.99906 11H13.9991C14.6621 11 15.298 11.2634 15.7668 11.7322C16.2357 12.2011 16.4991 12.8369 16.4991 13.5C16.4991 14.163 16.2357 14.7989 15.7668 15.2678C15.298 15.7366 14.6621 16 13.9991 16H12.9991V17H10.9991V16H8.49906V14Z" fill="#836415"/>
</svg>
