<svg width="219" height="117" viewBox="0 0 219 117" fill="none" xmlns="http://www.w3.org/2000/svg">
<g filter="url(#filter0_d_224_1076)">
<path d="M122.703 45.1557C122.823 45.1557 122.92 45.1631 122.995 45.1779C123.085 45.1779 123.273 45.1854 123.558 45.2002V51.7039C123.153 51.6594 122.793 51.6297 122.478 51.6148C122.163 51.6 121.908 51.5925 121.713 51.5925C119.135 51.5925 117.403 52.4241 116.518 54.0871C116.024 55.0226 115.776 56.4629 115.776 58.4081V70.0123H109.322V45.7348H115.439V49.9666C116.428 48.3481 117.291 47.2419 118.025 46.6479C119.225 45.6531 120.784 45.1557 122.703 45.1557Z" fill="#E3C045"/>
<path d="M137.006 50.323C135.522 50.323 134.367 50.7833 133.543 51.7039C132.733 52.6245 132.223 53.8718 132.013 55.4458H141.976C141.871 53.7679 141.354 52.4983 140.424 51.6371C139.51 50.761 138.37 50.323 137.006 50.323ZM137.006 45.0888C139.045 45.0888 140.882 45.4675 142.516 46.2248C144.15 46.982 145.5 48.1774 146.564 49.8107C147.524 51.251 148.146 52.9215 148.431 54.8221C148.596 55.9358 148.663 57.5394 148.633 59.6331H131.856C131.946 62.0683 132.718 63.7758 134.172 64.7559C135.057 65.3646 136.122 65.669 137.366 65.669C138.685 65.669 139.757 65.2978 140.582 64.5554C141.032 64.1545 141.429 63.5977 141.774 62.8849H148.318C148.153 64.3252 147.396 65.7878 146.047 67.2727C143.948 69.6336 141.009 70.8141 137.231 70.8141C134.112 70.8141 131.361 69.8192 128.977 67.8295C126.594 65.8398 125.402 62.6028 125.402 58.1185C125.402 53.9164 126.474 50.6942 128.618 48.4521C130.777 46.2099 133.573 45.0888 137.006 45.0888Z" fill="#E3C045"/>
<path d="M159.36 45.7348V60.3681C159.36 61.749 159.525 62.7884 159.855 63.4863C160.44 64.7187 161.587 65.3349 163.296 65.3349C165.485 65.3349 166.984 64.4589 167.794 62.7067C168.214 61.7564 168.424 60.5017 168.424 58.9426V45.7348H174.923V70.0123H168.693V66.5822C168.633 66.6565 168.484 66.8792 168.244 67.2504C168.004 67.6216 167.719 67.9483 167.389 68.2304C166.385 69.1213 165.41 69.7301 164.465 70.0568C163.536 70.3835 162.441 70.5468 161.182 70.5468C157.554 70.5468 155.11 69.255 153.851 66.6713C153.146 65.2459 152.794 63.1448 152.794 60.3681V45.7348H159.36Z" fill="#E3C045"/>
<path d="M186.123 62.2613C186.258 63.3898 186.55 64.1916 187 64.6668C187.794 65.5131 189.264 65.9363 191.408 65.9363C192.667 65.9363 193.664 65.7507 194.399 65.3795C195.148 65.0083 195.523 64.4515 195.523 63.709C195.523 62.9963 195.223 62.4543 194.624 62.0831C194.024 61.7119 191.797 61.0734 187.944 60.1676C185.171 59.4846 183.214 58.6308 182.075 57.6062C180.935 56.5965 180.365 55.1414 180.365 53.2407C180.365 50.9986 181.25 49.0757 183.019 47.472C184.803 45.8535 187.307 45.0443 190.53 45.0443C193.589 45.0443 196.078 45.6531 197.997 46.8707C199.931 48.0734 201.04 50.1596 201.325 53.1294H194.916C194.826 52.3127 194.594 51.6668 194.219 51.1916C193.514 50.3304 192.315 49.8998 190.62 49.8998C189.226 49.8998 188.229 50.1151 187.629 50.5457C187.045 50.9763 186.752 51.4812 186.752 52.0603C186.752 52.7879 187.067 53.315 187.697 53.6416C188.327 53.9832 190.553 54.5697 194.376 55.4012C196.925 55.9952 198.837 56.8935 200.111 58.0962C201.37 59.3138 202 60.8358 202 62.6622C202 65.0677 201.093 67.0351 199.279 68.5645C197.48 70.0791 194.691 70.8364 190.913 70.8364C187.06 70.8364 184.211 70.0345 182.367 68.4309C180.538 66.8124 179.623 64.7559 179.623 62.2613H186.123Z" fill="#E3C045"/>
<path d="M39.3417 57.6062H47.7527L43.6147 44.6879L39.3417 57.6062ZM39.769 37.1819H47.5953L59.3347 70.0123H51.8232L49.6868 63.2636H37.4751L35.1812 70.0123H27.9397L39.769 37.1819Z" fill="#E3C045"/>
<path d="M69.4323 45.7348V60.3681C69.4323 61.749 69.5972 62.7884 69.9271 63.4863C70.5118 64.7187 71.6588 65.3349 73.3679 65.3349C75.5569 65.3349 77.0562 64.4589 77.8658 62.7067C78.2856 61.7564 78.4955 60.5017 78.4955 58.9426V45.7348H84.9949V70.0123H78.7654V66.5822C78.7054 66.6565 78.5555 66.8792 78.3156 67.2504C78.0757 67.6216 77.7908 67.9483 77.461 68.2304C76.4565 69.1213 75.4819 69.7301 74.5374 70.0568C73.6078 70.3835 72.5134 70.5468 71.254 70.5468C67.6257 70.5468 65.1819 69.255 63.9225 66.6713C63.2178 65.2459 62.8655 63.1448 62.8655 60.3681V45.7348H69.4323Z" fill="#E3C045"/>
<path fill-rule="evenodd" clip-rule="evenodd" d="M17 17.8164H28.4942V19.6379H18.8392V97.254H28.4942V99.0754H17V17.8164Z" fill="#E3C045"/>
<path fill-rule="evenodd" clip-rule="evenodd" d="M97.6941 19.6379H88.039V17.8164H99.5333V99.0754H88.039V97.254H97.6941V19.6379Z" fill="#E3C045"/>
</g>
<defs>
<filter id="filter0_d_224_1076" x="0" y="0.816406" width="219" height="115.259" filterUnits="userSpaceOnUse" color-interpolation-filters="sRGB">
<feFlood flood-opacity="0" result="BackgroundImageFix"/>
<feColorMatrix in="SourceAlpha" type="matrix" values="0 0 0 0 0 0 0 0 0 0 0 0 0 0 0 0 0 0 127 0" result="hardAlpha"/>
<feOffset/>
<feGaussianBlur stdDeviation="8.5"/>
<feComposite in2="hardAlpha" operator="out"/>
<feColorMatrix type="matrix" values="0 0 0 0 0.890196 0 0 0 0 0.752941 0 0 0 0 0.270588 0 0 0 0.6 0"/>
<feBlend mode="normal" in2="BackgroundImageFix" result="effect1_dropShadow_224_1076"/>
<feBlend mode="normal" in="SourceGraphic" in2="effect1_dropShadow_224_1076" result="shape"/>
</filter>
</defs>
</svg>
