<svg width="25" height="24" viewBox="0 0 25 24" fill="none" xmlns="http://www.w3.org/2000/svg">
<g id="funds-line">
<path id="Vector" d="M4.90601 14.523L8.30801 11.121L11.136 13.95L14.293 10.793L12.5 9H17.5V14L15.707 12.207L11.136 16.778L8.30801 13.95L5.83301 16.424C6.95642 18.1149 8.68063 19.3154 10.6562 19.7823C12.6318 20.2493 14.7111 19.9477 16.4726 18.9387C18.2342 17.9297 19.5462 16.2888 20.1429 14.3484C20.7397 12.4081 20.5764 10.3134 19.6863 8.48893C18.7961 6.66446 17.2456 5.24663 15.3491 4.52274C13.4525 3.79886 11.3516 3.82307 9.47219 4.59047C7.59279 5.35787 6.07541 6.81106 5.22754 8.65556C4.37967 10.5001 4.26473 12.5979 4.90601 14.524V14.523ZM3.36801 16.081L3.35801 16.071L3.36201 16.067C2.79194 14.787 2.49821 13.4012 2.50001 12C2.50001 6.477 6.97701 2 12.5 2C18.023 2 22.5 6.477 22.5 12C22.5 17.523 18.023 22 12.5 22C8.43001 22 4.93001 19.57 3.36801 16.081Z" fill="#525252"/>
</g>
</svg>
