<svg width="25" height="24" viewBox="0 0 25 24" fill="none" xmlns="http://www.w3.org/2000/svg">
<g id="pencil-ruler-2-line">
<path id="Vector" d="M7.44254 14.1209L5.32254 16.2429L8.15054 19.0709L19.4635 7.75695L16.6355 4.92995L14.5125 7.04995L15.9275 8.46395L14.5125 9.87995L13.0985 8.46495L11.6845 9.87995L13.0985 11.2939L11.6845 12.7079L10.2705 11.2939L8.85554 12.7079L10.2705 14.1219L8.85554 15.5369L7.44254 14.1199V14.1209ZM17.3425 2.80795L21.5845 7.04995C21.772 7.23747 21.8773 7.49178 21.8773 7.75695C21.8773 8.02211 21.772 8.27642 21.5845 8.46395L8.85654 21.1919C8.66901 21.3794 8.4147 21.4847 8.14954 21.4847C7.88437 21.4847 7.63006 21.3794 7.44254 21.1919L3.20054 16.9499C3.01307 16.7624 2.90775 16.5081 2.90775 16.2429C2.90775 15.9778 3.01307 15.7235 3.20054 15.5359L15.9285 2.80795C16.1161 2.62048 16.3704 2.51516 16.6355 2.51516C16.9007 2.51516 17.155 2.62048 17.3425 2.80795ZM14.5125 18.3629L15.9275 16.9489L18.1695 19.1919H19.5835V17.7779L17.3415 15.5349L18.7555 14.1209L21.3925 16.7569V20.9999H17.1505L14.5135 18.3629H14.5125ZM6.02854 9.87795L3.19954 7.04995C3.10656 6.95707 3.0328 6.84679 2.98248 6.72539C2.93215 6.60399 2.90625 6.47386 2.90625 6.34245C2.90625 6.21103 2.93215 6.0809 2.98248 5.95951C3.0328 5.83811 3.10656 5.72782 3.19954 5.63495L6.02854 2.80695C6.21606 2.61948 6.47037 2.51416 6.73554 2.51416C7.0007 2.51416 7.25501 2.61948 7.44254 2.80695L10.2725 5.63495L8.85654 7.04995L6.73554 4.92795L5.32154 6.34295L7.44254 8.46295L6.02854 9.87795Z" fill="#525252"/>
</g>
</svg>
