<svg width="25" height="24" viewBox="0 0 25 24" fill="none" xmlns="http://www.w3.org/2000/svg">
<g id="price-tag-3-line">
<path id="Vector" d="M11.3998 2.1001L21.2988 3.5151L22.7128 13.4151L13.5208 22.6071C13.3333 22.7946 13.079 22.8999 12.8138 22.8999C12.5487 22.8999 12.2944 22.7946 12.1068 22.6071L2.20685 12.7071C2.01938 12.5196 1.91406 12.2653 1.91406 12.0001C1.91406 11.7349 2.01938 11.4806 2.20685 11.2931L11.3998 2.1001ZM12.1068 4.2221L4.32785 12.0001L12.8138 20.4851L20.5918 12.7071L19.5318 5.2821L12.1068 4.2221ZM14.2268 10.5861C13.8517 10.2108 13.641 9.70188 13.6411 9.17124C13.6411 8.9085 13.6929 8.64834 13.7935 8.40561C13.8941 8.16289 14.0415 7.94235 14.2273 7.7566C14.4132 7.57084 14.6338 7.42351 14.8765 7.323C15.1193 7.2225 15.3795 7.17079 15.6422 7.17084C16.1728 7.17093 16.6817 7.38182 17.0568 7.7571C17.432 8.13238 17.6427 8.64132 17.6426 9.17195C17.6425 9.70259 17.4316 10.2114 17.0563 10.5866C16.6811 10.9617 16.1721 11.1724 15.6415 11.1724C15.1109 11.1723 14.602 10.9614 14.2268 10.5861Z" fill="#525252"/>
</g>
</svg>
