<svg width="24" height="24" viewBox="0 0 24 24" fill="none" xmlns="http://www.w3.org/2000/svg">
<path d="M15.502 20C14.8404 21.5823 13.5823 22.8404 12 23.502C10.4177 22.8404 9.15956 21.5823 8.498 20H10.758C11.084 20.489 11.505 20.912 12 21.243C12.495 20.913 12.916 20.489 13.243 20H15.502ZM18 14.805L20 17.073V19H4V17.073L6 14.805V8.99996C6 5.51696 8.504 2.55296 12 1.45496C15.496 2.55296 18 5.51696 18 8.99996V14.805ZM17.27 17L16 15.56V8.99996C16 6.68196 14.43 4.56996 12 3.57996C9.57 4.56996 8 6.68096 8 8.99996V15.56L6.73 17H17.27ZM12 11C11.4696 11 10.9609 10.7892 10.5858 10.4142C10.2107 10.0391 10 9.53039 10 8.99996C10 8.46952 10.2107 7.96082 10.5858 7.58574C10.9609 7.21067 11.4696 6.99996 12 6.99996C12.5304 6.99996 13.0391 7.21067 13.4142 7.58574C13.7893 7.96082 14 8.46952 14 8.99996C14 9.53039 13.7893 10.0391 13.4142 10.4142C13.0391 10.7892 12.5304 11 12 11Z" fill="#836415"/>
</svg>
