<svg width="25" height="24" viewBox="0 0 25 24" fill="none" xmlns="http://www.w3.org/2000/svg">
<g id="rocket-2-line">
<path id="Vector" d="M16.002 20.0001C15.3404 21.5824 14.0823 22.8405 12.5 23.5021C10.9177 22.8405 9.65956 21.5824 8.998 20.0001H11.258C11.584 20.4891 12.005 20.9121 12.5 21.2431C12.995 20.9131 13.416 20.4891 13.743 20.0001H16.002ZM18.5 14.8051L20.5 17.0731V19.0001H4.5V17.0731L6.5 14.8051V9.00008C6.5 5.51708 9.004 2.55308 12.5 1.45508C15.996 2.55308 18.5 5.51708 18.5 9.00008V14.8051ZM17.77 17.0001L16.5 15.5601V9.00008C16.5 6.68208 14.93 4.57008 12.5 3.58008C10.07 4.57008 8.5 6.68108 8.5 9.00008V15.5601L7.23 17.0001H17.77ZM12.5 11.0001C11.9696 11.0001 11.4609 10.7894 11.0858 10.4143C10.7107 10.0392 10.5 9.53051 10.5 9.00008C10.5 8.46965 10.7107 7.96094 11.0858 7.58586C11.4609 7.21079 11.9696 7.00008 12.5 7.00008C13.0304 7.00008 13.5391 7.21079 13.9142 7.58586C14.2893 7.96094 14.5 8.46965 14.5 9.00008C14.5 9.53051 14.2893 10.0392 13.9142 10.4143C13.5391 10.7894 13.0304 11.0001 12.5 11.0001Z" fill="#525252"/>
</g>
</svg>
