<svg width="25" height="24" viewBox="0 0 25 24" fill="none" xmlns="http://www.w3.org/2000/svg">
<g id="service-line">
<path id="Vector" d="M3.66202 4.46892C4.82208 3.30865 6.37802 2.63001 8.01762 2.56917C9.65721 2.50834 11.2592 3.06981 12.502 4.14092C13.7438 3.07159 15.3436 2.51075 16.9812 2.57068C18.6189 2.63061 20.1734 3.30689 21.3337 4.46413C22.494 5.62136 23.1743 7.17414 23.2385 8.81161C23.3027 10.4491 22.7461 12.0504 21.68 13.2949L13.915 21.0849C13.5583 21.4418 13.0798 21.6506 12.5755 21.6695C12.0713 21.6885 11.5785 21.5161 11.196 21.1869L11.086 21.0859L3.32202 13.2949C2.25651 12.0514 1.6996 10.4516 1.76263 8.8153C1.82567 7.17898 2.504 5.62674 3.66202 4.46892ZM5.07602 5.88292C4.25826 6.70091 3.78687 7.80236 3.75969 8.95869C3.7325 10.115 4.15161 11.2374 4.93002 12.0929L5.07602 12.2469L12.501 19.6719L17.804 14.3679L14.269 10.8329L13.209 11.8929C12.9305 12.1716 12.5998 12.3927 12.2358 12.5435C11.8718 12.6944 11.4817 12.7721 11.0877 12.7722C10.292 12.7724 9.52881 12.4564 8.96602 11.8939C8.40323 11.3314 8.08695 10.5683 8.08676 9.77263C8.08658 8.97691 8.40249 8.21371 8.96502 7.65092L11.067 5.54792C10.2305 4.88029 9.18343 4.53261 8.11371 4.56725C7.04398 4.60188 6.02161 5.01658 5.23002 5.73692L5.07602 5.88292ZM13.562 8.71092C13.7495 8.52345 14.0039 8.41813 14.269 8.41813C14.5342 8.41813 14.7885 8.52345 14.976 8.71092L19.218 12.9529L19.926 12.2469C20.7575 11.4161 21.2308 10.2928 21.2449 9.11748C21.2589 7.94213 20.8124 6.80794 20.001 5.95747C19.1896 5.10701 18.0777 4.60779 16.903 4.56657C15.7282 4.52536 14.584 4.94542 13.715 5.73692L13.562 5.88292L10.38 9.06492C10.2067 9.23813 10.103 9.46896 10.0886 9.71358C10.0742 9.95821 10.1502 10.1996 10.302 10.3919L10.38 10.4789C10.5532 10.6523 10.7841 10.7559 11.0287 10.7703C11.2733 10.7847 11.5147 10.7088 11.707 10.5569L11.794 10.4789L13.562 8.71092Z" fill="#525252"/>
</g>
</svg>
