<svg width="25" height="24" viewBox="0 0 25 24" fill="none" xmlns="http://www.w3.org/2000/svg">
<g id="team-line">
<path id="Vector" d="M12.2773 11C13.6034 11 14.8752 11.5268 15.8129 12.4645C16.7506 13.4021 17.2773 14.6739 17.2773 16V22H15.2773V16C15.2774 15.2348 14.985 14.4985 14.4601 13.9417C13.9351 13.385 13.2172 13.0499 12.4533 13.005L12.2773 13C11.5121 13 10.7758 13.2923 10.2191 13.8173C9.66234 14.3422 9.32724 15.0601 9.28234 15.824L9.27734 16V22H7.27734V16C7.27734 14.6739 7.80413 13.4021 8.74181 12.4645C9.67949 11.5268 10.9513 11 12.2773 11ZM5.77734 14C6.05634 14 6.32734 14.033 6.58734 14.094C6.41637 14.603 6.31511 15.1328 6.28634 15.669L6.27734 16V16.086C6.1624 16.0449 6.04284 16.018 5.92134 16.006L5.77734 16C5.40446 16 5.04495 16.1389 4.76892 16.3896C4.4929 16.6403 4.32014 16.9848 4.28434 17.356L4.27734 17.5V22H2.27734V17.5C2.27734 16.5717 2.64609 15.6815 3.30247 15.0251C3.95885 14.3687 4.84909 14 5.77734 14ZM18.7773 14C19.7056 14 20.5958 14.3687 21.2522 15.0251C21.9086 15.6815 22.2773 16.5717 22.2773 17.5V22H20.2773V17.5C20.2773 17.1271 20.1384 16.7676 19.8877 16.4916C19.637 16.2156 19.2925 16.0428 18.9213 16.007L18.7773 16C18.6023 16 18.4343 16.03 18.2773 16.085V16C18.2773 15.334 18.1693 14.694 17.9683 14.096C18.2273 14.033 18.4983 14 18.7773 14ZM5.77734 8C6.44038 8 7.07627 8.26339 7.54511 8.73223C8.01395 9.20107 8.27734 9.83696 8.27734 10.5C8.27734 11.163 8.01395 11.7989 7.54511 12.2678C7.07627 12.7366 6.44038 13 5.77734 13C5.1143 13 4.47842 12.7366 4.00958 12.2678C3.54074 11.7989 3.27734 11.163 3.27734 10.5C3.27734 9.83696 3.54074 9.20107 4.00958 8.73223C4.47842 8.26339 5.1143 8 5.77734 8ZM18.7773 8C19.4404 8 20.0763 8.26339 20.5451 8.73223C21.014 9.20107 21.2773 9.83696 21.2773 10.5C21.2773 11.163 21.014 11.7989 20.5451 12.2678C20.0763 12.7366 19.4404 13 18.7773 13C18.1143 13 17.4784 12.7366 17.0096 12.2678C16.5407 11.7989 16.2773 11.163 16.2773 10.5C16.2773 9.83696 16.5407 9.20107 17.0096 8.73223C17.4784 8.26339 18.1143 8 18.7773 8ZM5.77734 10C5.64474 10 5.51756 10.0527 5.42379 10.1464C5.33002 10.2402 5.27734 10.3674 5.27734 10.5C5.27734 10.6326 5.33002 10.7598 5.42379 10.8536C5.51756 10.9473 5.64474 11 5.77734 11C5.90995 11 6.03713 10.9473 6.1309 10.8536C6.22467 10.7598 6.27734 10.6326 6.27734 10.5C6.27734 10.3674 6.22467 10.2402 6.1309 10.1464C6.03713 10.0527 5.90995 10 5.77734 10ZM18.7773 10C18.6447 10 18.5176 10.0527 18.4238 10.1464C18.33 10.2402 18.2773 10.3674 18.2773 10.5C18.2773 10.6326 18.33 10.7598 18.4238 10.8536C18.5176 10.9473 18.6447 11 18.7773 11C18.91 11 19.0371 10.9473 19.1309 10.8536C19.2247 10.7598 19.2773 10.6326 19.2773 10.5C19.2773 10.3674 19.2247 10.2402 19.1309 10.1464C19.0371 10.0527 18.91 10 18.7773 10ZM12.2773 2C13.3382 2 14.3556 2.42143 15.1058 3.17157C15.8559 3.92172 16.2773 4.93913 16.2773 6C16.2773 7.06087 15.8559 8.07828 15.1058 8.82843C14.3556 9.57857 13.3382 10 12.2773 10C11.2165 10 10.1991 9.57857 9.44892 8.82843C8.69877 8.07828 8.27734 7.06087 8.27734 6C8.27734 4.93913 8.69877 3.92172 9.44892 3.17157C10.1991 2.42143 11.2165 2 12.2773 2ZM12.2773 4C11.7469 4 11.2382 4.21071 10.8631 4.58579C10.4881 4.96086 10.2773 5.46957 10.2773 6C10.2773 6.53043 10.4881 7.03914 10.8631 7.41421C11.2382 7.78929 11.7469 8 12.2773 8C12.8078 8 13.3165 7.78929 13.6916 7.41421C14.0666 7.03914 14.2773 6.53043 14.2773 6C14.2773 5.46957 14.0666 4.96086 13.6916 4.58579C13.3165 4.21071 12.8078 4 12.2773 4Z" fill="#525252"/>
</g>
</svg>
