<svg width="101" height="88" viewBox="0 0 101 88" fill="none" xmlns="http://www.w3.org/2000/svg">
<path fill-rule="evenodd" clip-rule="evenodd" d="M100.143 133.392C101.302 158.064 90.4254 180.415 80.0446 202.827C70.4097 223.629 56.4321 240.245 42.2937 258.29C19.6731 287.163 9.25226 338.169 -27.3832 339.946C-62.7805 341.662 -71.5024 287.216 -99.2359 265.153C-127.379 242.765 -173.868 243.393 -189.477 210.995C-205.421 177.903 -200.342 132.412 -176.758 104.25C-153.838 76.8798 -106.628 94.5014 -76.2354 75.7716C-47.1629 57.855 -43.3744 6.52251 -9.63319 1.25549C23.185 -3.86745 51.759 26.9293 72.9847 52.4783C91.621 74.9105 98.7754 104.26 100.143 133.392Z" fill="#F2EEF9" fill-opacity="0.04"/>
</svg>
