<svg width="55" height="55" viewBox="0 0 55 55" fill="none" xmlns="http://www.w3.org/2000/svg">
<path fill-rule="evenodd" clip-rule="evenodd" d="M35.7608 10.3144C35.7615 5.13677 39.9595 0.940093 45.1373 0.940918C50.3148 0.941718 54.5115 5.13972 54.5108 10.3174C54.5098 15.4951 50.3118 19.6917 45.1343 19.6909L39.5095 19.69V35.9417L45.1343 35.9409C50.3118 35.9402 54.5098 40.1367 54.5108 45.3144C54.5115 50.4922 50.3148 54.6902 45.1373 54.6909C39.9595 54.6917 35.7615 50.4949 35.7608 45.3174L35.7598 39.6897H19.5116L19.5107 45.3174C19.5099 50.4949 15.3119 54.6917 10.1343 54.6909C4.95659 54.6902 0.759917 50.4922 0.760742 45.3144C0.761542 40.1367 4.95954 35.9402 10.1372 35.9409L15.7595 35.9417V19.69L10.1372 19.6909C4.95954 19.6917 0.761542 15.4951 0.760742 10.3174C0.759917 5.13972 4.95659 0.941718 10.1343 0.940918C15.3119 0.940093 19.5099 5.13677 19.5107 10.3144L19.5116 15.9397H35.7598L35.7608 10.3144ZM15.7616 15.9397L15.7607 10.315C15.7602 7.20842 13.2414 4.69042 10.1348 4.69092C7.02824 4.69139 4.51024 7.21019 4.51074 10.3168C4.51122 13.4234 7.03002 15.9414 10.1366 15.9409L15.7616 15.9397ZM45.1365 4.69092C42.03 4.69042 39.5113 7.20842 39.5108 10.315L39.5098 15.94L45.1348 15.9409C48.2415 15.9414 50.7603 13.4234 50.7608 10.3168C50.7613 7.21019 48.2433 4.69139 45.1365 4.69092ZM19.5095 19.6897V35.9397H35.7595V19.6897H19.5095ZM50.7608 45.3149C50.7603 42.2084 48.2415 39.6904 45.1348 39.6909L39.5098 39.6917L39.5108 45.3167C39.5113 48.4234 42.03 50.9414 45.1365 50.9409C48.2433 50.9404 50.7613 48.4217 50.7608 45.3149ZM4.51074 45.3149C4.51122 42.2084 7.03002 39.6904 10.1366 39.6909L15.7616 39.6917L15.7607 45.3167C15.7602 48.4234 13.2414 50.9414 10.1348 50.9409C7.02824 50.9404 4.51024 48.4217 4.51074 45.3149Z" fill="white"/>
</svg>
