<svg width="82" height="94" viewBox="0 0 82 94" fill="none" xmlns="http://www.w3.org/2000/svg">
<path d="M78.7844 69.1933V25.54L41.0001 3.7168L3.21582 25.54V69.1933L41.0001 91.0165L78.7844 69.1933Z" fill="url(#paint0_linear_11070_30369)"/>
<mask id="mask0_11070_30369" style="mask-type:alpha" maskUnits="userSpaceOnUse" x="3" y="3" width="76" height="88">
<path d="M78.7849 69.161V25.6914L41.0006 3.86816L3.21631 25.6914V69.161L41.0006 90.9842L78.7849 69.161Z" fill="url(#paint1_linear_11070_30369)"/>
</mask>
<g mask="url(#mask0_11070_30369)">
<path fill-rule="evenodd" clip-rule="evenodd" d="M0.253532 163.884C-14.1453 159.634 -19.5026 140.979 -22.9551 126.378C-25.899 113.929 -18.903 101.894 -17.4091 89.1886C-16.0864 77.9394 -20.6972 65.6085 -14.6811 56.009C-8.61757 46.3339 2.96414 41.1061 14.1571 38.8205C24.3092 36.7475 33.8105 44.1895 44.1706 43.9916C58.1872 43.7237 73.7821 28.8793 84.856 37.4698C95.5597 45.773 83.0581 64.254 86.9933 77.2109C91.1733 90.9736 110.762 99.7435 108.06 113.871C105.449 127.526 87.814 132.25 75.3034 138.334C65.0362 143.327 53.3742 142.04 42.5658 145.72C27.735 150.769 15.2795 168.32 0.253532 163.884Z" fill="#B1262F"/>
</g>
<path d="M51.4915 57.383C52.5433 57.4429 53.5429 57.1659 54.4082 56.6569L58.026 68.027L50.6039 65.1976L46.1879 71.8145L42.6297 60.6241C43.2265 60.4295 43.8009 60.1301 44.3081 59.7109L46.5385 57.8845C47.1203 57.4054 47.8513 57.1734 48.6047 57.2108L51.4841 57.3755L51.4915 57.383ZM35.4537 57.8995C34.8719 57.4204 34.1334 57.1809 33.3875 57.2258L30.5081 57.3905C29.4564 57.4503 28.4568 57.1734 27.5915 56.6644L23.9737 68.042L31.3958 65.2125L35.8118 71.8295L39.37 60.639C38.7732 60.4444 38.1988 60.145 37.6916 59.7259L35.4612 57.8995H35.4537ZM61.2559 41.8361C61.7706 43.1685 61.2783 44.688 60.0848 45.459L57.6605 47.0234C56.5565 47.7345 55.7658 48.8273 55.4301 50.0998L54.6916 52.8918C54.3261 54.2691 53.0282 55.2048 51.6183 55.1299L48.739 54.9652C47.4336 54.8979 46.1506 55.3096 45.1286 56.1404L42.8983 57.9668C41.7943 58.865 40.1979 58.865 39.1014 57.9668L36.871 56.1404C35.9312 55.3694 34.7675 54.9578 33.5591 54.9578C33.4621 54.9578 33.3651 54.9578 33.2607 54.9652L30.3813 55.1299C28.9566 55.2048 27.6736 54.2691 27.308 52.8918L26.5696 50.0998C26.2339 48.8273 25.4432 47.7345 24.3392 47.0234L21.9149 45.459C20.7214 44.688 20.229 43.161 20.7437 41.8361L21.7881 39.1414C22.2655 37.9138 22.2655 36.5665 21.7881 35.3389L20.7437 32.6442C20.229 31.3119 20.7214 29.7923 21.9149 29.0214L24.3392 27.4569C25.4432 26.7458 26.2339 25.653 26.5696 24.3805L27.308 21.5885C27.6736 20.2112 28.9491 19.2681 30.3813 19.3504L33.2607 19.5151C34.5735 19.59 35.8491 19.1708 36.871 18.3399L39.1014 16.5135C40.2054 15.6153 41.8017 15.6153 42.8983 16.5135L45.1286 18.3399C46.1431 19.1708 47.4261 19.59 48.739 19.5151L51.6183 19.3504C53.0431 19.2756 54.3261 20.2112 54.6916 21.5885L55.4301 24.3805C55.7658 25.653 56.5565 26.7458 57.6605 27.4569L60.0848 29.0214C61.2783 29.7923 61.7706 31.3193 61.2559 32.6442L60.2116 35.3389C59.7342 36.5665 59.7342 37.9138 60.2116 39.1414L61.2559 41.8361ZM53.528 37.2402C53.528 30.3013 47.9185 24.6724 41.0036 24.6724C34.0887 24.6724 28.4792 30.3013 28.4792 37.2402C28.4792 44.179 34.0887 49.8079 41.0036 49.8079C47.9185 49.8079 53.528 44.179 53.528 37.2402ZM46.1282 44.3437L45.151 38.6175L49.2985 34.5604L43.5696 33.7221L41.0036 28.5124L38.4375 33.7221L32.7087 34.5604L36.8561 38.6175L35.8789 44.3437L41.0036 41.6415L46.1282 44.3437Z" fill="url(#paint2_linear_11070_30369)"/>
<path d="M40.9999 1.2745L80.6274 24.1382V69.8618L40.9999 92.7255L1.37248 69.8618V24.1382L40.9999 1.2745ZM40.9999 0L0.266602 23.5009V70.4991L40.9999 94L81.7333 70.4991V23.5009L40.9999 0Z" fill="url(#paint3_linear_11070_30369)"/>
<path fill-rule="evenodd" clip-rule="evenodd" d="M29.0195 86.9649L38.4195 92.306L78.7842 69.1851V58.2334L29.0195 86.9649Z" fill="url(#paint4_linear_11070_30369)"/>
<path d="M0.266602 49.5498V70.498L40.9999 93.9953L59.1548 83.523L0.266602 49.5498Z" fill="url(#paint5_linear_11070_30369)"/>
<path d="M8.92964 71.9197L17.3443 66.279L12.9402 63.7306L13.9043 62.0669L20.3952 65.8228L19.4311 67.4865L11.1317 73.1939L8.92964 71.9197ZM18.6976 77.777C18.194 77.4856 17.7619 77.1102 17.4013 76.6509C17.0456 76.183 16.8026 75.6779 16.6725 75.1355C16.5473 74.5845 16.5768 74.032 16.7612 73.4779L18.8563 73.9041C18.747 74.3877 18.7788 74.8049 18.9517 75.1555C19.1246 75.5062 19.386 75.7828 19.7359 75.9853C20.0346 76.1581 20.3296 76.2491 20.6207 76.258C20.9168 76.2584 21.1888 76.1823 21.4369 76.0296C21.6984 75.8733 21.9157 75.6459 22.0887 75.3473C22.2618 75.0487 22.3485 74.7514 22.3491 74.4555C22.3581 74.1645 22.2863 73.8951 22.1336 73.6473C21.9859 73.3909 21.7626 73.1763 21.4639 73.0034C21.1567 72.8256 20.844 72.7358 20.5259 72.7341C20.2127 72.7237 19.9216 72.823 19.6524 73.0318L18.249 71.7071L22.1098 66.8149L27.4356 69.8966L26.4715 71.5604L21.9522 68.9453L23.2139 68.4791L20.3899 72.1427L20.1266 71.358C20.5427 71.1317 20.9599 71.0313 21.3782 71.0569C21.805 71.0874 22.2787 71.2533 22.7993 71.5545C23.4394 71.9249 23.9108 72.38 24.2135 72.9197C24.5211 73.4509 24.6627 74.0227 24.6383 74.6352C24.6224 75.2526 24.434 75.8727 24.0731 76.4955C23.7122 77.1184 23.2322 77.5926 22.6333 77.9182C22.0478 78.2401 21.4106 78.3956 20.7219 78.3844C20.0381 78.3647 19.3633 78.1622 18.6976 77.777ZM24.8967 81.159L38.1291 76.0843L40.1007 77.2252L26.8683 82.2998L24.8967 81.159ZM29.142 77.3438C28.6641 77.0672 28.2973 76.7069 28.0418 76.2628C27.7998 75.8151 27.6766 75.3394 27.6722 74.8356C27.6678 74.3318 27.7991 73.8495 28.0661 73.3888C28.3331 72.9281 28.6863 72.5742 29.1258 72.3272C29.5702 72.0717 30.0444 71.9417 30.5485 71.9372C31.0612 71.9376 31.5565 72.0761 32.0344 72.3526C32.5124 72.6292 32.8749 72.987 33.1219 73.4262C33.3688 73.8653 33.4921 74.341 33.4915 74.8534C33.4958 75.3572 33.3645 75.8395 33.0975 76.3002C32.8305 76.7609 32.4773 77.1148 32.0379 77.3618C31.5984 77.6087 31.1242 77.7388 30.6151 77.7518C30.111 77.7564 29.62 77.6203 29.142 77.3438ZM29.9578 75.936C30.1883 76.0693 30.41 76.1293 30.623 76.1158C30.8409 76.0938 31.0352 76.0239 31.2059 75.9063C31.3816 75.7801 31.5214 75.6274 31.6252 75.4482C31.734 75.2605 31.797 75.0634 31.8141 74.8569C31.8312 74.6503 31.7926 74.4514 31.6983 74.2601C31.609 74.0603 31.4491 73.8937 31.2186 73.7604C30.9882 73.627 30.764 73.5714 30.5461 73.5934C30.3331 73.6069 30.137 73.67 29.9577 73.7827C29.787 73.9003 29.6472 74.053 29.5384 74.2407C29.4346 74.4199 29.3716 74.617 29.3496 74.8321C29.341 75.0436 29.3814 75.2493 29.4707 75.4491C29.565 75.6403 29.7274 75.8027 29.9578 75.936ZM32.9502 86.0241C32.4722 85.7475 32.1055 85.3872 31.8499 84.9431C31.6079 84.4955 31.4847 84.0197 31.4803 83.5159C31.4759 83.0121 31.6073 82.5299 31.8742 82.0691C32.1412 81.6084 32.4945 81.2546 32.9339 81.0076C33.3783 80.752 33.8526 80.622 34.3567 80.6175C34.8693 80.6179 35.3646 80.7564 35.8425 81.033C36.3205 81.3095 36.683 81.6674 36.93 82.1065C37.177 82.5457 37.3002 83.0214 37.2996 83.5337C37.304 84.0375 37.1726 84.5198 36.9057 84.9805C36.6387 85.4412 36.2854 85.7951 35.846 86.0421C35.4065 86.2891 34.9323 86.4191 34.4232 86.4322C33.9191 86.4367 33.4281 86.3007 32.9502 86.0241ZM33.766 84.6163C33.9964 84.7497 34.2181 84.8096 34.4311 84.7961C34.649 84.7741 34.8433 84.7043 35.0141 84.5866C35.1898 84.4604 35.3295 84.3078 35.4334 84.1286C35.5421 83.9409 35.6051 83.7438 35.6222 83.5372C35.6393 83.3307 35.6007 83.1317 35.5064 82.9405C35.4171 82.7407 35.2572 82.5741 35.0267 82.4407C34.8048 82.3123 34.5807 82.2567 34.3542 82.2737C34.1413 82.2872 33.9451 82.3503 33.7658 82.463C33.5951 82.5807 33.4553 82.7334 33.3465 82.9211C33.2427 83.1002 33.1798 83.2974 33.1577 83.5125C33.1491 83.7239 33.1895 83.9296 33.2788 84.1294C33.3817 84.3256 33.544 84.4879 33.766 84.6163Z" fill="white"/>
<path d="M10.5882 34.625L10.8801 37.2801L13.5372 37.5718L10.8801 37.8635L10.5882 40.5186L10.2962 37.8635L7.63916 37.5718L10.2962 37.2801L10.5882 34.625Z" fill="white"/>
<path d="M72.1487 47.1826L72.4407 49.8377L75.0977 50.1294L72.4407 50.4212L72.1487 53.0763L71.8568 50.4212L69.1997 50.1294L71.8568 49.8377L72.1487 47.1826Z" fill="white"/>
<ellipse cx="13.5371" cy="46.4115" rx="0.737255" ry="0.736706" fill="white"/>
<ellipse cx="72.8862" cy="31.6781" rx="0.737255" ry="0.736706" fill="white"/>
<defs>
<linearGradient id="paint0_linear_11070_30369" x1="10.5884" y1="6.29527" x2="80.3532" y2="74.1914" gradientUnits="userSpaceOnUse">
<stop stop-color="#A61933"/>
<stop offset="1" stop-color="#A4251B"/>
</linearGradient>
<linearGradient id="paint1_linear_11070_30369" x1="5.95182" y1="-2.84793" x2="80.3496" y2="51.6832" gradientUnits="userSpaceOnUse">
<stop stop-color="#772277"/>
<stop offset="1" stop-color="#601360"/>
</linearGradient>
<linearGradient id="paint2_linear_11070_30369" x1="20.541" y1="43.8384" x2="61.4587" y2="43.8384" gradientUnits="userSpaceOnUse">
<stop stop-color="#FF931E"/>
<stop offset="1" stop-color="#FCEE8B"/>
</linearGradient>
<linearGradient id="paint3_linear_11070_30369" x1="8.92934" y1="17.1615" x2="78.3732" y2="75.0438" gradientUnits="userSpaceOnUse">
<stop stop-color="#D1113F"/>
<stop offset="1" stop-color="#FF621E"/>
</linearGradient>
<linearGradient id="paint4_linear_11070_30369" x1="26.6701" y1="85.852" x2="79.2961" y2="56.2178" gradientUnits="userSpaceOnUse">
<stop stop-color="#DA1E3C"/>
<stop offset="1" stop-color="#FF611F"/>
</linearGradient>
<linearGradient id="paint5_linear_11070_30369" x1="0.266602" y1="57.1268" x2="52.223" y2="87.9182" gradientUnits="userSpaceOnUse">
<stop stop-color="#D91D3B"/>
<stop offset="1" stop-color="#FB5A22"/>
</linearGradient>
</defs>
</svg>
