<svg width="82" height="94" viewBox="0 0 82 94" fill="none" xmlns="http://www.w3.org/2000/svg">
<path d="M78.7844 69.1933V25.54L41.0001 3.7168L3.21582 25.54V69.1933L41.0001 91.0165L78.7844 69.1933Z" fill="url(#paint0_linear_11070_30483)"/>
<mask id="mask0_11070_30483" style="mask-type:alpha" maskUnits="userSpaceOnUse" x="3" y="3" width="76" height="88">
<path d="M78.7849 69.161V25.6914L41.0006 3.86816L3.21631 25.6914V69.161L41.0006 90.9842L78.7849 69.161Z" fill="url(#paint1_linear_11070_30483)"/>
</mask>
<g mask="url(#mask0_11070_30483)">
<path fill-rule="evenodd" clip-rule="evenodd" d="M0.253532 163.884C-14.1453 159.634 -19.5026 140.979 -22.9551 126.378C-25.899 113.929 -18.903 101.894 -17.4091 89.1886C-16.0864 77.9394 -20.6972 65.6085 -14.6811 56.009C-8.61757 46.3339 2.96414 41.1061 14.1571 38.8205C24.3092 36.7475 33.8105 44.1895 44.1706 43.9916C58.1872 43.7237 73.7821 28.8793 84.856 37.4698C95.5597 45.773 83.0581 64.254 86.9933 77.2109C91.1733 90.9736 110.762 99.7435 108.06 113.871C105.449 127.526 87.814 132.25 75.3034 138.334C65.0362 143.327 53.3742 142.04 42.5658 145.72C27.735 150.769 15.2795 168.32 0.253532 163.884Z" fill="#B1262F"/>
</g>
<path fill-rule="evenodd" clip-rule="evenodd" d="M35.2232 28.9275C35.0905 28.927 34.9591 28.9528 34.8365 29.0032C34.7139 29.0537 34.6024 29.128 34.5086 29.2217C34.3195 29.4114 34.2134 29.6684 34.2134 29.9362C34.2134 30.2041 34.3195 30.4611 34.5086 30.6508L37.8832 34.0255L39.2197 35.3619C39.3694 35.5109 39.5721 35.5946 39.7834 35.5946C39.9947 35.5946 40.1974 35.5109 40.3472 35.3619L41.6836 34.0255L48.0685 27.6412C48.2562 27.4514 48.3617 27.1954 48.3622 26.9285C48.3627 26.6616 48.2581 26.4052 48.0711 26.2147L48.0637 26.2072C47.873 26.0211 47.6168 25.9172 47.3504 25.918C47.0839 25.9188 46.8283 26.0242 46.6388 26.2115L40.2545 32.5963C40.1295 32.7211 39.9601 32.7912 39.7834 32.7912C39.6068 32.7912 39.4374 32.7211 39.3124 32.5963L35.9377 29.2217C35.8439 29.128 35.7324 29.0537 35.6098 29.0032C35.4872 28.9528 35.3558 28.927 35.2232 28.9275ZM61.1456 51.1817L63.4795 49.9689C63.6786 49.8643 63.8283 49.6854 63.896 49.471C63.9638 49.2567 63.9441 49.0242 63.8414 48.8243L57.4864 36.5923C57.3818 36.3934 57.203 36.2438 56.9888 36.1761C56.7745 36.1083 56.5422 36.1279 56.3423 36.2305L54.0084 37.4433C53.8093 37.5478 53.6596 37.7267 53.5919 37.9411C53.5241 38.1555 53.5438 38.3879 53.6465 38.5879L60.0037 50.8199C60.1082 51.0189 60.2871 51.1686 60.5015 51.2364C60.7158 51.3041 60.9483 51.2845 61.1483 51.1817H61.1456ZM34.5198 62.9442L35.6857 61.1165L38.8072 56.2242C38.999 55.9204 39.0663 55.5544 38.9952 55.2023C38.924 54.8502 38.7199 54.5391 38.4252 54.3336C38.3961 54.3177 38.3682 54.2999 38.3415 54.2803C38.0384 54.1029 37.6796 54.0464 37.3366 54.1219C36.9937 54.1975 36.6918 54.3996 36.4914 54.688C36.4737 54.7203 36.4536 54.7513 36.4312 54.7807C36.3708 54.9308 36.2971 55.0752 36.2111 55.2123L36.1903 55.2432L32.78 60.5063L32.7576 60.5394L32.1752 61.4522C31.9773 61.7631 31.9111 62.1399 31.991 62.4996C32.0709 62.8594 32.2905 63.1727 32.6014 63.3705C32.9124 63.5684 33.2891 63.6346 33.6489 63.5547C34.0087 63.4747 34.3219 63.2551 34.5198 62.9442ZM31.7137 59.7108L31.6668 59.7832C31.4637 60.0946 31.1461 60.3132 30.7828 60.3918V60.3891C30.4207 60.4715 30.0408 60.4078 29.7256 60.2117L29.7096 60.2021C29.4095 60.0078 29.198 59.7032 29.1209 59.3541C29.0438 59.005 29.1073 58.6396 29.2977 58.337L29.3078 58.321L32.7181 53.0579C32.9214 52.7469 33.239 52.5284 33.6022 52.4499C33.9506 52.371 34.316 52.4269 34.6247 52.6066C34.6476 52.623 34.6714 52.6379 34.6962 52.6513C34.9401 52.8157 35.1241 53.0548 35.2207 53.3326C35.3172 53.6105 35.3211 53.9122 35.2317 54.1924L31.7148 59.7086L31.7137 59.7108ZM27.3047 53.822C27.2915 53.8461 27.2767 53.8692 27.2605 53.8913L26.4202 55.207C26.2386 55.5171 26.1843 55.8855 26.2686 56.2349C26.353 56.5842 26.5694 56.8873 26.8725 57.0804C27.1755 57.2735 27.5417 57.3417 27.8939 57.2706C28.2462 57.1995 28.5572 56.9946 28.7616 56.699L30.8265 53.4629C31.0161 53.1525 31.0764 52.7802 30.9946 52.4258C30.9127 52.0715 30.6951 51.7634 30.3885 51.5677C30.082 51.372 29.7109 51.3043 29.355 51.3792C28.9991 51.4541 28.6867 51.6655 28.485 51.9682L27.3047 53.822ZM39.2943 63.087L39.1424 63.3247C38.9478 63.6267 38.6441 63.842 38.2947 63.9256C37.9453 64.0093 37.577 63.955 37.2667 63.7739C37.2403 63.754 37.2123 63.7361 37.183 63.7206C36.8953 63.52 36.6936 63.2185 36.6181 62.876C36.5426 62.5335 36.5987 62.1751 36.7754 61.8721C36.7973 61.8427 36.8167 61.8115 36.8335 61.7788L38.8658 58.5939C39.0665 58.2888 39.3793 58.0749 39.7364 57.9987C40.0936 57.9224 40.4664 57.9899 40.7742 58.1864C41.082 58.383 41.3 58.6928 41.381 59.0489C41.4621 59.405 41.3997 59.7787 41.2073 60.0891L39.2953 63.0854L39.2943 63.087ZM50.5948 49.6907C51.4931 49.6681 52.3828 49.5095 53.2336 49.2202C53.3168 49.1902 53.3932 49.144 53.4583 49.0842C53.5235 49.0244 53.576 48.9522 53.613 48.8718C53.6499 48.7915 53.6704 48.7046 53.6734 48.6162C53.6763 48.5278 53.6616 48.4397 53.6301 48.3571C53.5987 48.2744 53.551 48.1989 53.49 48.1349C53.429 48.0708 53.3559 48.0196 53.2748 47.9842C53.1938 47.9487 53.1065 47.9298 53.0181 47.9285C52.9297 47.9272 52.8419 47.9435 52.7598 47.9765C51.4117 48.3902 49.9871 48.4917 48.5939 48.2733C47.4405 48.1668 46.3455 47.7173 45.45 46.9827C44.6493 46.2324 43.6242 45.7661 42.5325 45.6558C41.4538 45.5178 40.362 45.781 39.4648 46.3955C38.5368 47.128 37.4565 47.6434 36.3033 47.904C35.9494 47.9886 35.5811 47.9926 35.2254 47.9158C34.8698 47.8389 34.536 47.6832 34.2485 47.4601C34.1755 47.4018 34.1233 47.3213 34.1001 47.2307C34.0768 47.1402 34.0837 47.0445 34.1196 46.9582C36.0422 41.8757 40.6813 41.4941 45.3322 41.111C47.9091 40.8979 50.4893 40.6847 52.7337 39.7256L58.5479 50.9105C58.0885 51.2204 57.6517 51.5625 57.2407 51.9341C56.8181 52.3157 56.3683 52.666 55.8947 52.9822L50.5959 49.6907H50.5948ZM29.5785 37.7273L27.3612 36.3125C27.1707 36.1922 26.9403 36.1519 26.7202 36.2004C26.5002 36.2489 26.3081 36.3823 26.1857 36.5715L18.8039 48.1422C18.7873 48.1736 18.7684 48.2037 18.7474 48.2323C18.6455 48.4154 18.6141 48.6296 18.6593 48.8343C18.7045 49.0389 18.823 49.22 18.9925 49.3433C19.0238 49.3601 19.0535 49.3796 19.0815 49.4014L21.2476 50.7836C21.4383 50.9036 21.6686 50.9437 21.8886 50.8951C22.1086 50.8465 22.3007 50.7132 22.4231 50.5241L29.838 38.9028C29.958 38.7121 29.998 38.4818 29.9494 38.2618C29.9009 38.0418 29.7676 37.8498 29.5785 37.7273ZM30.6298 40.1289C31.5645 40.6649 32.5342 41.1374 33.5324 41.5432C34.1894 41.8267 34.8752 42.1224 35.6164 42.4901C34.3656 43.5576 33.4203 44.9377 32.8769 46.4898C32.7451 46.8332 32.7239 47.2092 32.8164 47.5652C32.9089 47.9213 33.1104 48.2395 33.3928 48.4752C33.8259 48.8274 34.3331 49.0769 34.8764 49.2051C35.4196 49.3333 35.9849 49.3368 36.5297 49.2154C37.8924 48.9177 39.1705 48.3166 40.2689 47.4569C40.8973 47.0429 41.6552 46.8724 42.4004 46.9774C43.2018 47.058 43.9545 47.3999 44.5425 47.9504C45.444 48.734 46.5413 49.2581 47.7173 49.4669L55.7967 54.486L55.8212 54.5004L55.842 54.5126C56.2273 54.7601 56.5142 55.1344 56.653 55.5709C56.7134 55.7484 56.7352 55.9367 56.7168 56.1233C56.6984 56.3099 56.6403 56.4904 56.5464 56.6526L56.5368 56.6686C56.4301 56.8239 56.2909 56.9542 56.1289 57.0504C55.9668 57.1466 55.7859 57.2066 55.5984 57.226C55.1267 57.2832 54.65 57.1719 54.2524 56.9116L54.2433 56.9058L52.9916 56.1001C52.9685 56.083 52.9443 56.0675 52.9192 56.0537L48.6136 53.2828C48.4652 53.1876 48.2851 53.1553 48.1128 53.1929C47.9406 53.2305 47.7904 53.335 47.6952 53.4834C47.6 53.6318 47.5677 53.8119 47.6053 53.9842C47.6429 54.1564 47.7474 54.3066 47.8958 54.4018L52.2003 57.1727C52.2238 57.1899 52.2483 57.2056 52.2739 57.2196L52.3138 57.2452C52.6526 57.4642 52.8991 57.8 53.0066 58.1889C53.0497 58.369 53.0555 58.556 53.0235 58.7384C52.9915 58.9208 52.9225 59.0947 52.8206 59.2493C52.7142 59.4054 52.5749 59.5364 52.4125 59.6329C52.2502 59.7295 52.0686 59.7894 51.8806 59.8083C51.404 59.8651 50.9226 59.7518 50.5213 59.4886L49.5408 58.863C49.5328 58.8576 49.5248 58.8523 49.5163 58.8475L46.7155 57.0603C46.5672 56.97 46.3894 56.9415 46.2203 56.9808C46.0512 57.0202 45.9042 57.1242 45.811 57.2707C45.7177 57.4172 45.6856 57.5943 45.7215 57.7642C45.7574 57.9341 45.8585 58.0831 46.0031 58.1793L48.8006 59.9644C48.8081 59.9697 48.8161 59.9745 48.8241 59.9793C49.2271 60.2316 49.5288 60.6172 49.6767 61.069C49.7378 61.2457 49.7602 61.4335 49.7424 61.6196C49.7245 61.8057 49.6669 61.9857 49.5733 62.1476C49.5621 62.1646 49.5514 62.1817 49.5419 62.2009C49.4336 62.3458 49.2966 62.4668 49.1393 62.5563C48.982 62.6457 48.8079 62.7016 48.628 62.7204C48.1513 62.7774 47.6699 62.6642 47.2686 62.4007L44.7189 60.7722C44.5705 60.6777 44.3906 60.646 44.2188 60.684C44.047 60.7221 43.8974 60.8269 43.8029 60.9753C43.7083 61.1237 43.6766 61.3035 43.7147 61.4753C43.7527 61.6471 43.8575 61.7967 44.0059 61.8913L45.4622 62.8201C45.8696 63.0722 46.1748 63.4603 46.3239 63.9156C46.3918 64.0931 46.4173 64.2841 46.3982 64.4732C46.3791 64.6623 46.3159 64.8443 46.2138 65.0046C46.1118 65.1649 45.9735 65.2991 45.8102 65.3964C45.647 65.4937 45.4632 65.5514 45.2736 65.5649C44.7968 65.6217 44.3152 65.5085 43.9137 65.2451L40.7698 63.2394L42.3252 60.8015C42.5848 60.3953 42.7315 59.9272 42.7502 59.4455C42.7689 58.9637 42.6588 58.4857 42.4314 58.0606C42.204 57.6355 41.8675 57.2786 41.4564 57.0268C41.0453 56.7749 40.5745 56.6371 40.0925 56.6276C40.3703 56.0304 40.4222 55.3527 40.2386 54.7202C40.0549 54.0876 39.6483 53.5431 39.0939 53.1874C38.7934 52.9956 38.4581 52.8651 38.107 52.8033C37.7559 52.7415 37.3961 52.7496 37.0482 52.8272C36.8622 52.8685 36.6809 52.929 36.5074 53.0078C36.3253 52.3978 35.9315 51.8727 35.3969 51.527L35.3654 51.5062C34.7551 51.1227 34.0181 50.9954 33.3144 51.1518C32.8973 51.2441 32.5073 51.432 32.1752 51.7007C31.9878 51.2391 31.6772 50.8379 31.2773 50.5409C30.8774 50.2438 30.4035 50.0625 29.9075 50.0165C29.4115 49.9706 28.9124 50.0619 28.4647 50.2805C28.0171 50.499 27.6381 50.8364 27.3692 51.2558L26.5454 52.5474C26.2257 52.3194 25.8836 52.079 25.5058 51.8195C25.0219 51.487 24.4853 51.1268 23.8715 50.7218L30.6298 40.1289ZM28.0545 22.491C27.1523 21.5895 25.9654 21.0286 24.696 20.9041C23.4267 20.7795 22.1534 21.0989 21.0932 21.8079C20.0329 22.5168 19.2513 23.5715 18.8814 24.7921C18.5116 26.0128 18.5764 27.3239 19.0649 28.5021C19.5533 29.6803 20.4352 30.6527 21.5602 31.2536C22.6852 31.8545 23.9838 32.0468 25.2346 31.7976C26.4855 31.5484 27.6113 30.8733 28.4202 29.8871C29.229 28.901 29.671 27.6649 29.6707 26.3895C29.6716 25.6652 29.5294 24.9479 29.2522 24.2788C28.9751 23.6097 28.5684 23.0019 28.0556 22.4905L28.0545 22.491ZM23.4899 23.0239V22.6381C23.4899 22.4614 23.5601 22.292 23.685 22.1671C23.8099 22.0422 23.9794 21.972 24.156 21.972C24.3327 21.972 24.5021 22.0422 24.627 22.1671C24.7519 22.292 24.8221 22.4614 24.8221 22.6381V23.026C24.8694 23.0423 24.9162 23.0601 24.9628 23.0793C24.9766 23.0841 24.9905 23.09 25.0043 23.0963C25.2711 23.2169 25.5092 23.3927 25.7029 23.6122C25.8195 23.7439 25.879 23.9167 25.8683 24.0923C25.8575 24.2679 25.7774 24.4321 25.6457 24.5487C25.5139 24.6653 25.3412 24.7247 25.1655 24.714C24.9899 24.7033 24.8257 24.6232 24.7091 24.4914C24.6391 24.4135 24.5534 24.3512 24.4576 24.3086L24.4358 24.298C24.3468 24.2626 24.2518 24.2445 24.156 24.2447C23.9604 24.2447 23.7728 24.3224 23.6345 24.4607C23.4962 24.599 23.4185 24.7866 23.4185 24.9822C23.4185 25.1778 23.4962 25.3653 23.6345 25.5036C23.7728 25.642 23.9604 25.7197 24.156 25.7197C24.6462 25.7202 25.1202 25.8946 25.4938 26.2119C25.8674 26.5291 26.1164 26.9686 26.1963 27.4522C26.2762 27.9358 26.182 28.4321 25.9304 28.8527C25.6787 29.2733 25.286 29.591 24.8221 29.7492V30.135C24.8221 30.3117 24.7519 30.4811 24.627 30.606C24.5021 30.7309 24.3327 30.8011 24.156 30.8011C23.9794 30.8011 23.8099 30.7309 23.685 30.606C23.5601 30.4811 23.4899 30.3117 23.4899 30.135V29.7471C23.4287 29.7263 23.369 29.7023 23.3104 29.6762C23.0436 29.5554 22.8053 29.3797 22.6112 29.1604C22.4986 29.028 22.4423 28.8566 22.4546 28.6832C22.4669 28.5097 22.5467 28.348 22.6769 28.2328C22.8071 28.1176 22.9774 28.0581 23.151 28.067C23.3247 28.0759 23.4879 28.1526 23.6056 28.2806C23.6753 28.3588 23.7608 28.4213 23.8566 28.4639C23.9519 28.5058 24.0551 28.527 24.1592 28.5263C24.3548 28.5263 24.5424 28.4486 24.6807 28.3103C24.819 28.172 24.8967 27.9844 24.8967 27.7888C24.8967 27.5932 24.819 27.4056 24.6807 27.2673C24.5424 27.129 24.3548 27.0513 24.1592 27.0513C23.6688 27.0511 23.1944 26.8769 22.8204 26.5596C22.4465 26.2423 22.1974 25.8025 22.1174 25.3187C22.0374 24.8348 22.1318 24.3383 22.3838 23.9175C22.6357 23.4968 23.0288 23.1792 23.4931 23.0212L23.4899 23.0239ZM62.3216 22.491C61.42 21.5881 60.2333 21.0259 58.9636 20.9C57.6939 20.7741 56.4198 21.0924 55.3584 21.8006C54.2971 22.5088 53.5142 23.5631 53.1431 24.7839C52.7721 26.0047 52.8358 27.3164 53.3235 28.4955C53.8112 29.6745 54.6926 30.648 55.8176 31.25C56.9426 31.852 58.2415 32.0452 59.493 31.7968C60.7446 31.5484 61.8712 30.8737 62.681 29.8877C63.4908 28.9017 63.9337 27.6654 63.9341 26.3895C63.9351 25.6652 63.793 24.948 63.5159 24.2788C63.2388 23.6097 62.8322 23.002 62.3195 22.4905L62.3216 22.491ZM57.7571 23.0239V22.6381C57.7571 22.4614 57.8273 22.292 57.9522 22.1671C58.0771 22.0422 58.2465 21.972 58.4232 21.972C58.5998 21.972 58.7692 22.0422 58.8942 22.1671C59.0191 22.292 59.0892 22.4614 59.0892 22.6381V23.026C59.1372 23.0425 59.1841 23.0606 59.2305 23.0793C59.2444 23.0842 59.2581 23.0899 59.2715 23.0963C59.5384 23.2169 59.7767 23.3927 59.9706 23.6122C60.0283 23.6774 60.0727 23.7534 60.101 23.8358C60.1294 23.9182 60.1412 24.0053 60.1359 24.0923C60.1306 24.1792 60.1082 24.2643 60.07 24.3426C60.0318 24.4209 59.9786 24.4909 59.9133 24.5487C59.8481 24.6064 59.7721 24.6507 59.6897 24.6791C59.6073 24.7075 59.5202 24.7193 59.4332 24.714C59.3462 24.7087 59.2612 24.6863 59.1829 24.6481C59.1046 24.6099 59.0345 24.5566 58.9768 24.4914C58.9066 24.4136 58.8209 24.3514 58.7253 24.3086L58.7034 24.298C58.6143 24.2625 58.5191 24.2444 58.4232 24.2447C58.2276 24.2447 58.04 24.3224 57.9017 24.4607C57.7634 24.599 57.6857 24.7866 57.6857 24.9822C57.6857 25.1778 57.7634 25.3653 57.9017 25.5036C58.04 25.642 58.2276 25.7197 58.4232 25.7197C58.9137 25.7194 59.3884 25.8934 59.7626 26.2107C60.1368 26.5279 60.3861 26.9678 60.4661 27.4518C60.5461 27.9358 60.4516 28.4325 60.1994 28.8532C59.9472 29.274 59.5538 29.5916 59.0892 29.7492V30.135C59.0892 30.3117 59.0191 30.4811 58.8942 30.606C58.7692 30.7309 58.5998 30.8011 58.4232 30.8011C58.2465 30.8011 58.0771 30.7309 57.9522 30.606C57.8273 30.4811 57.7571 30.3117 57.7571 30.135V29.7471C57.6958 29.7263 57.6356 29.7023 57.577 29.6762C57.3104 29.5554 57.0723 29.3796 56.8784 29.1604C56.7617 29.0286 56.7022 28.8559 56.7129 28.6802C56.7236 28.5045 56.8036 28.3403 56.9354 28.2236C57.0672 28.1069 57.2399 28.0474 57.4156 28.0581C57.5913 28.0688 57.7555 28.1488 57.8722 28.2806C57.9421 28.3588 58.0278 28.4213 58.1237 28.4639C58.2189 28.5057 58.3219 28.527 58.4258 28.5263C58.6214 28.5263 58.809 28.4486 58.9473 28.3103C59.0856 28.172 59.1633 27.9844 59.1633 27.7888C59.1633 27.5932 59.0856 27.4056 58.9473 27.2673C58.809 27.129 58.6214 27.0513 58.4258 27.0513C57.9355 27.051 57.4611 26.8767 57.0873 26.5593C56.7134 26.242 56.4644 25.8022 56.3845 25.3184C56.3046 24.8346 56.399 24.3381 56.651 23.9174C56.9029 23.4967 57.296 23.1791 57.7603 23.0212L57.7571 23.0239Z" fill="url(#paint2_linear_11070_30483)"/>
<path d="M40.9999 1.2745L80.6274 24.1382V69.8618L40.9999 92.7255L1.37248 69.8618V24.1382L40.9999 1.2745ZM40.9999 0L0.266602 23.5009V70.4991L40.9999 94L81.7333 70.4991V23.5009L40.9999 0Z" fill="url(#paint3_linear_11070_30483)"/>
<path fill-rule="evenodd" clip-rule="evenodd" d="M29.0195 86.9649L38.4195 92.306L78.7842 69.1851V58.2334L29.0195 86.9649Z" fill="url(#paint4_linear_11070_30483)"/>
<path d="M0.266602 49.5498V70.498L40.9999 93.9953L59.1548 83.523L0.266602 49.5498Z" fill="url(#paint5_linear_11070_30483)"/>
<path d="M4.11061 65.3403L7.53833 59.4254L9.46835 60.5422C10.109 60.9129 10.5914 61.3617 10.9154 61.8884C11.2394 62.4152 11.4023 62.9759 11.4041 63.5706C11.4059 64.1654 11.2412 64.7486 10.9099 65.3202C10.5787 65.8919 10.1529 66.3276 9.63277 66.6273C9.11566 66.9218 8.54787 67.0598 7.92939 67.0411C7.3109 67.0225 6.68132 66.8278 6.04063 66.4571L4.11061 65.3403ZM5.96282 64.9808L6.69353 65.4037C7.08006 65.6273 7.45812 65.7436 7.8277 65.7525C8.20036 65.7561 8.54474 65.662 8.86086 65.4704C9.18535 65.2765 9.45801 64.989 9.67886 64.6079C9.90277 64.2215 10.0166 63.8421 10.0203 63.4696C10.0293 63.1002 9.93799 62.7576 9.74631 62.4417C9.55462 62.1258 9.26552 61.8561 8.87899 61.6324L8.14828 61.2096L5.96282 64.9808ZM11.1818 69.5592C10.8694 69.3785 10.6285 69.1719 10.4591 68.9396C10.2897 68.7073 10.1978 68.4633 10.1834 68.2076C10.172 67.9465 10.2415 67.6864 10.3918 67.427C10.5329 67.1835 10.7127 67.0013 10.9312 66.8804C11.1529 66.7542 11.4143 66.6935 11.7156 66.6982C12.0222 66.706 12.3629 66.783 12.7378 66.9292L14.1884 67.4823L13.6823 68.3557L12.4553 67.9107C12.2675 67.8444 12.1055 67.825 11.9695 67.8523C11.8366 67.8743 11.7287 67.9567 11.6459 68.0997C11.5692 68.232 11.5597 68.3643 11.6173 68.4966C11.675 68.6289 11.7779 68.738 11.9262 68.8238C12.1221 68.9371 12.3187 68.9944 12.5161 68.9955C12.7134 68.9966 12.8932 68.9486 13.0554 68.8517C13.226 68.7525 13.362 68.6156 13.4632 68.4409L14.1165 67.3135C14.2116 67.1494 14.2252 66.9735 14.1572 66.7858C14.0945 66.6011 13.952 66.4444 13.7296 66.3157C13.5178 66.1932 13.2961 66.1426 13.0645 66.1641C12.8382 66.1886 12.6327 66.2747 12.4482 66.4223L11.7573 65.4183C11.9831 65.2238 12.2393 65.0929 12.5259 65.0255C12.8124 64.958 13.113 64.9517 13.4277 65.0066C13.7424 65.0615 14.0532 65.1777 14.3603 65.3554C14.7257 65.5669 15.0104 65.8199 15.2143 66.1146C15.4183 66.4093 15.528 66.7202 15.5435 67.0472C15.5674 67.3721 15.4889 67.6906 15.3079 68.0029L13.6515 70.8611L12.5396 70.2177L12.9445 69.519L13.2421 69.6276C13.0046 69.7446 12.7723 69.8222 12.5451 69.8604C12.321 69.8933 12.0968 69.8837 11.8724 69.8316C11.645 69.7848 11.4148 69.694 11.1818 69.5592ZM14.179 73.5199C14.0519 73.4464 13.9336 73.3638 13.8241 73.2721C13.7199 73.1835 13.6365 73.0894 13.5741 72.9897L14.14 72.0131C14.2019 72.0772 14.2785 72.1463 14.3699 72.2204C14.4613 72.2944 14.5494 72.356 14.6341 72.405C14.8671 72.5398 15.0661 72.5808 15.2311 72.5278C15.3961 72.4749 15.5518 72.3954 15.6982 72.2892L16.3831 71.7844L15.7921 72.7676L16.6879 66.8295L17.9667 67.5694L17.2373 71.738L16.7607 71.4622L20.0158 68.7552L21.2946 69.4951L16.6892 73.1595C16.3979 73.3938 16.1093 73.5625 15.8233 73.6656C15.5373 73.7687 15.2566 73.8077 14.9812 73.7827C14.7111 73.7607 14.4437 73.6731 14.179 73.5199ZM21.882 75.6236L24.6886 70.7805L23.1874 69.9119L23.8086 68.84L28.0181 71.2758L27.3969 72.3477L25.9196 71.4928L23.113 76.3359L21.882 75.6236ZM24.6395 77.2192L27.1516 72.8842L28.2636 73.5276L27.6608 74.5677L27.6688 74.3709C27.9758 74.0608 28.2746 73.9051 28.5653 73.9037C28.8644 73.9001 29.1648 73.9856 29.4666 74.1602L29.7208 74.3073L29.1227 75.3394L28.7494 75.1234C28.4582 74.9549 28.1704 74.9085 27.8861 74.9843C27.6048 75.0548 27.3706 75.2515 27.1835 75.5744L25.8309 77.9086L24.6395 77.2192ZM28.9903 79.864C28.6779 79.6832 28.437 79.4767 28.2676 79.2443C28.0982 79.012 28.0063 78.768 27.9918 78.5123C27.9805 78.2513 28.0499 77.9911 28.2002 77.7317C28.3413 77.4882 28.5211 77.306 28.7397 77.1851C28.9613 77.0589 29.2228 76.9982 29.5241 77.0029C29.8307 77.0107 30.1714 77.0877 30.5462 77.2339L31.9968 77.787L31.4907 78.6604L30.2638 78.2155C30.0759 78.1492 29.914 78.1297 29.778 78.157C29.645 78.179 29.5371 78.2615 29.4543 78.4044C29.3776 78.5367 29.3681 78.669 29.4258 78.8013C29.4834 78.9337 29.5864 79.0427 29.7347 79.1285C29.9306 79.2419 30.1272 79.2991 30.3245 79.3002C30.5219 79.3013 30.7017 79.2534 30.8639 79.1564C31.0345 79.0572 31.1704 78.9203 31.2716 78.7456L31.925 77.6182C32.0201 77.4542 32.0336 77.2782 31.9657 77.0905C31.903 76.9058 31.7605 76.7491 31.5381 76.6204C31.3263 76.4979 31.1046 76.4473 30.873 76.4688C30.6466 76.4933 30.4412 76.5794 30.2566 76.7271L29.5658 75.723C29.7916 75.5286 30.0478 75.3976 30.3343 75.3302C30.6209 75.2628 30.9215 75.2565 31.2361 75.3113C31.5508 75.3662 31.8617 75.4825 32.1688 75.6602C32.5342 75.8716 32.8188 76.1246 33.0228 76.4193C33.2267 76.7141 33.3364 77.0249 33.352 77.352C33.3759 77.6768 33.2973 77.9953 33.1163 78.3076L31.46 81.1658L30.3481 80.5224L30.7529 79.8237L31.0506 79.9324C30.8131 80.0494 30.5808 80.127 30.3536 80.1651C30.1295 80.198 29.9052 80.1884 29.6809 80.1364C29.4535 80.0896 29.2233 79.9988 28.9903 79.864ZM34.3197 82.9478C33.8961 82.7027 33.5758 82.3831 33.3588 81.9889C33.1418 81.5947 33.035 81.169 33.0385 80.7116C33.0472 80.2572 33.1727 79.821 33.4151 79.4028C33.6604 78.9794 33.9793 78.655 34.3715 78.4296C34.7668 78.1989 35.1895 78.0795 35.6396 78.0714C36.0898 78.0633 36.5213 78.1787 36.9343 78.4177C37.252 78.6015 37.4974 78.8248 37.6704 79.0875C37.8518 79.3479 37.9511 79.628 37.9683 79.9278L37.6476 80.0602L39.0969 77.5593L40.2883 78.2487L36.8053 84.2589L35.6934 83.6154L36.1535 82.8215L36.122 83.132C35.8511 83.2579 35.5563 83.3029 35.2378 83.267C34.9223 83.2258 34.6162 83.1194 34.3197 82.9478ZM35.0838 81.9587C35.3009 82.0843 35.5207 82.1443 35.7431 82.1388C35.9655 82.1332 36.1739 82.0664 36.3682 81.9386C36.5678 81.8137 36.7351 81.6349 36.87 81.402C37.005 81.1691 37.077 80.9351 37.0859 80.7C37.1002 80.468 37.0544 80.2542 36.9486 80.0586C36.8427 79.8631 36.6812 79.7025 36.4641 79.5769C36.247 79.4512 36.0204 79.3908 35.7844 79.3956C35.5566 79.3981 35.343 79.4617 35.1434 79.5866C34.9468 79.7061 34.7811 79.8823 34.6461 80.1152C34.5112 80.3481 34.4392 80.5821 34.4302 80.8172C34.4213 81.0523 34.4723 81.2691 34.5835 81.4678C34.7 81.6694 34.8667 81.8331 35.0838 81.9587ZM39.7115 86.0677C39.2508 85.8011 38.9093 85.4692 38.687 85.072C38.4677 84.6695 38.3651 84.2426 38.3792 83.7913C38.3933 83.3401 38.5214 82.9053 38.7638 82.4872C39.0153 82.0532 39.3345 81.7219 39.7214 81.4935C40.1136 81.2681 40.5306 81.1525 40.9724 81.1466C41.4142 81.1407 41.8416 81.2573 42.2546 81.4962C42.5988 81.6954 42.871 81.9271 43.0714 82.1915C43.2748 82.4505 43.4097 82.7301 43.4763 83.0301C43.5481 83.3332 43.5565 83.642 43.5015 83.9565C43.4496 84.2657 43.3362 84.5711 43.1614 84.8728C43.1123 84.9575 43.058 85.0391 42.9983 85.1177C42.947 85.194 42.8939 85.2552 42.8389 85.3011L39.5905 83.4215L40.0966 82.5481L42.6699 84.0372L41.8668 84.1237C42.0516 83.9267 42.1655 83.7241 42.2085 83.5157C42.2546 83.302 42.2326 83.102 42.1426 82.9157C42.061 82.7271 41.9143 82.5715 41.7025 82.449C41.496 82.3295 41.2895 82.2771 41.0829 82.2919C40.8764 82.3067 40.6793 82.3905 40.4917 82.5435C40.3041 82.6964 40.1369 82.9178 39.9902 83.2075C39.828 83.4387 39.7329 83.6699 39.7049 83.9011C39.677 84.1324 39.7144 84.3484 39.8172 84.5492C39.9231 84.7448 40.0925 84.9099 40.3255 85.0448C40.5373 85.1673 40.7419 85.2291 40.9392 85.2302C41.1418 85.2344 41.3284 85.1869 41.499 85.0877L42.1899 86.0918C41.9825 86.2545 41.7401 86.3616 41.4627 86.4131C41.1907 86.4678 40.9042 86.4681 40.6032 86.414C40.3052 86.3547 40.008 86.2393 39.7115 86.0677ZM42.5333 87.5733L45.0454 83.2383L46.1573 83.8817L45.5546 84.9218L45.5626 84.725C45.8696 84.4149 46.1684 84.2592 46.4591 84.2578C46.7582 84.2541 47.0586 84.3396 47.3604 84.5143L47.6146 84.6614L47.0165 85.6935L46.6432 85.4775C46.3519 85.309 46.0642 85.2626 45.7798 85.3384C45.4986 85.4089 45.2644 85.6056 45.0773 85.9284L43.7246 88.2627L42.5333 87.5733Z" fill="white"/>
<path d="M11.6941 28.0273L11.9861 30.6824L14.6432 30.9742L11.9861 31.2659L11.6941 33.921L11.4022 31.2659L8.74512 30.9742L11.4022 30.6824L11.6941 28.0273Z" fill="white"/>
<path d="M72.1487 47.1826L72.4407 49.8377L75.0977 50.1294L72.4407 50.4212L72.1487 53.0763L71.8568 50.4212L69.1997 50.1294L71.8568 49.8377L72.1487 47.1826Z" fill="white"/>
<ellipse cx="14.643" cy="39.8158" rx="0.737255" ry="0.736706" fill="white"/>
<ellipse cx="50.7685" cy="16.6098" rx="0.737255" ry="0.736706" fill="white"/>
<defs>
<linearGradient id="paint0_linear_11070_30483" x1="10.5884" y1="6.29527" x2="80.3532" y2="74.1914" gradientUnits="userSpaceOnUse">
<stop stop-color="#A61933"/>
<stop offset="1" stop-color="#A4251B"/>
</linearGradient>
<linearGradient id="paint1_linear_11070_30483" x1="5.95182" y1="-2.84793" x2="80.3496" y2="51.6832" gradientUnits="userSpaceOnUse">
<stop stop-color="#772277"/>
<stop offset="1" stop-color="#601360"/>
</linearGradient>
<linearGradient id="paint2_linear_11070_30483" x1="18.6392" y1="43.2291" x2="63.9357" y2="43.2291" gradientUnits="userSpaceOnUse">
<stop stop-color="#FF931E"/>
<stop offset="1" stop-color="#FCEE8B"/>
</linearGradient>
<linearGradient id="paint3_linear_11070_30483" x1="8.92934" y1="17.1615" x2="78.3732" y2="75.0438" gradientUnits="userSpaceOnUse">
<stop stop-color="#D1113F"/>
<stop offset="1" stop-color="#FF621E"/>
</linearGradient>
<linearGradient id="paint4_linear_11070_30483" x1="26.6701" y1="85.852" x2="79.2961" y2="56.2178" gradientUnits="userSpaceOnUse">
<stop stop-color="#DA1E3C"/>
<stop offset="1" stop-color="#FF611F"/>
</linearGradient>
<linearGradient id="paint5_linear_11070_30483" x1="0.266602" y1="57.1268" x2="52.223" y2="87.9182" gradientUnits="userSpaceOnUse">
<stop stop-color="#D91D3B"/>
<stop offset="1" stop-color="#FB5A22"/>
</linearGradient>
</defs>
</svg>
